RobotoCondensed-LightItalic.ufo
<glyph name="exclam" format="1">
  <advance width="425.83"/>
  <unicode hex="0021"/>
  <outline>
    <contour>
      <point x="418.10777273565157" y="1455.9135739632336" type="line"/>
      <point x="302.67334730343816" y="1455.9311971862192" type="line"/>
      <point x="126.95938675549819" y="406.07615533153091" type="line"/>
      <point x="228.81231730576172" y="406.07752832825082" type="line"/>
    </contour>
    <contour>
      <point x="53.198889127982241" y="71.785926049968111" type="curve" smooth="yes"/>
      <point x="49.942587607564626" y="29.594785239188539"/>
      <point x="75.022761255338906" y="-11.115450672629285"/>
      <point x="120.8111011262455" y="-10.173322071627537" type="curve" smooth="yes"/>
      <point x="165.46520000916104" y="-9.2545313089974695"/>
      <point x="194.99105970729278" y="30.625202507142909"/>
      <point x="197.9987297866947" y="72.519826127005345" type="curve" smooth="yes"/>
      <point x="201.03359509978827" y="114.79325927374029"/>
      <point x="174.97343025804645" y="154.91550201381406"/>
      <point x="129.41376153649639" y="153.87825768820366" type="curve" smooth="yes"/>
      <point x="85.435979625339797" y="152.87702774030674"/>
      <point x="56.368351802254871" y="112.8519161452578"/>
    </contour>
  </outline>
</glyph>
<glyph name="quotedbl" format="1">
  <advance width="571.33"/>
  <unicode hex="0022"/>
  <outline>
    <contour>
      <point x="384.9858882322003" y="1535.923556679857" type="line"/>
      <point x="287.05547561316536" y="1535.9204934626041" type="line"/>
      <point x="266.66549351765622" y="1408.1395351109663" type="line"/>
      <point x="212.23134761032208" y="1082.0540709335949" type="line"/>
      <point x="294.08288479699735" y="1082.1067207328447" type="line"/>
      <point x="361.86970838885969" y="1391.129516278839" type="line"/>
    </contour>
    <contour>
      <point x="612.93082642168895" y="1535.9244498887533" type="line"/>
      <point x="515.96749278469053" y="1535.9227802417511" type="line"/>
      <point x="495.22851945537184" y="1406.1541171990852" type="line"/>
      <point x="441.08105759143916" y="1082.0765551461659" type="line"/>
      <point x="522.98632048825493" y="1082.1036279590255" type="line"/>
      <point x="589.82475570546649" y="1391.1802505991334" type="line"/>
    </contour>
  </outline>
</glyph>
<glyph name="numbersign" format="1">
  <advance width="1020.4399999999999"/>
  <unicode hex="0023"/>
  <outline>
    <contour>
      <point x="134.35268250573671" y="0.0" type="line"/>
      <point x="221.10047855960249" y="0.0" type="line"/>
      <point x="701.58065010087955" y="1455.7082352099878" type="line"/>
      <point x="604.30220760529187" y="1455.5302589374846" type="line"/>
    </contour>
    <contour>
      <point x="469.96982688898868" y="0.0" type="line"/>
      <point x="556.72405684357227" y="0.0" type="line"/>
      <point x="1038.1743948780872" y="1455.7074528044798" type="line"/>
      <point x="940.88975049595615" y="1455.5289801935" type="line"/>
    </contour>
    <contour>
      <point x="1067.2540538909116" y="943.14766730348958" type="line"/>
      <point x="1082.1982308856673" y="1039.8802748084049" type="line"/>
      <point x="232.65364836977739" y="1039.8980517343437" type="line"/>
      <point x="218.09274817476791" y="943.13227021924968" type="line"/>
    </contour>
    <contour>
      <point x="913.80015580401823" y="410.1455753749031" type="line"/>
      <point x="928.5673723881232" y="505.88187329842174" type="line"/>
      <point x="78.052864427507885" y="505.90000629971132" type="line"/>
      <point x="63.668728058030197" y="410.12951356566236" type="line"/>
    </contour>
  </outline>
</glyph>
<glyph name="dollar" format="1">
  <advance width="966.12"/>
  <unicode hex="0024"/>
  <outline>
    <contour>
      <point x="713.9572313841079" y="1677.9178920144614" type="line"/>
      <point x="625.75612108247049" y="1677.857989512245" type="line"/>
      <point x="580.77529395544968" y="1412.1400230246522" type="line"/>
      <point x="678.09377432082044" y="1412.1000682116094" type="line"/>
    </contour>
    <contour>
      <point x="453.24226513507892" y="38.903429136961819" type="line"/>
      <point x="365.06641799879361" y="38.842708760702784" type="line"/>
      <point x="322.88564066036281" y="-207.83911954202986" type="line"/>
      <point x="420.23343752231574" y="-207.88241699083935" type="line"/>
    </contour>
    <contour>
      <point x="708.33923583259377" y="367.40157545521851" type="curve" smooth="yes"/>
      <point x="691.91590504738258" y="211.97937396893823"/>
      <point x="577.94419918457481" y="83.08474586852023"/>
      <point x="414.83171954610617" y="86.725302198364886" type="curve" smooth="yes"/>
      <point x="228.66024227786707" y="90.880519208784079"/>
      <point x="182.02629599488566" y="260.87778965827692"/>
      <point x="196.14310477844867" y="418.91583027487519" type="curve"/>
      <point x="85.939429665370255" y="419.12697923600376" type="line"/>
      <point x="65.927511760459168" y="193.90236822733547"/>
      <point x="156.10378796547423" y="-16.883607911175481"/>
      <point x="407.63185533644497" y="-21.705459653981727" type="curve" smooth="yes"/>
      <point x="641.13227832792882" y="-26.181717247480908"/>
      <point x="800.44260974549331" y="142.35629130372851"/>
      <point x="818.12211461713048" y="369.32658160758552" type="curve" smooth="yes"/>
      <point x="834.53967357626743" y="580.09595270089096"/>
      <point x="727.61792687197453" y="695.01001022355194"/>
      <point x="547.83206632206361" y="782.03017602265186" type="curve" smooth="yes"/>
      <point x="410.28820946791927" y="848.60431701174548"/>
      <point x="325.94515245500378" y="930.39922799125509"/>
      <point x="342.33546489100559" y="1090.4797388346533" type="curve" smooth="yes"/>
      <point x="357.56603149854914" y="1239.2332719042593"/>
      <point x="452.48901834402881" y="1373.8708124475909"/>
      <point x="614.67680931761413" y="1369.5465847600287" type="curve" smooth="yes"/>
      <point x="792.41610596166174" y="1364.8077250523877"/>
      <point x="816.29327021945369" y="1165.0763582874386"/>
      <point x="803.32999232138047" y="1027.0931421911021" type="curve"/>
      <point x="912.1560178701435" y="1026.9852132695908" type="line"/>
      <point x="931.80624712641986" y="1237.1595319637106"/>
      <point x="872.25590513030318" y="1471.3352178466978"/>
      <point x="622.45906888611239" y="1477.2590263235136" type="curve" smooth="yes"/>
      <point x="394.41444940213501" y="1482.6669917337354"/>
      <point x="248.828289686679" y="1301.5622482770195"/>
      <point x="232.01715103623786" y="1086.2214558481005" type="curve" smooth="yes"/>
      <point x="215.31979712396964" y="872.33817895063726"/>
      <point x="323.79907838228468" y="760.68367086795649"/>
      <point x="505.04892843298069" y="672.94197658669577" type="curve" smooth="yes"/>
      <point x="636.92889497152873" y="609.09987297882162"/>
      <point x="724.62165057225468" y="521.49021785347952"/>
    </contour>
  </outline>
</glyph>
<glyph name="percent" format="1">
  <advance width="1269.73"/>
  <unicode hex="0025"/>
  <outline>
    <contour>
      <point x="195.98683253573876" y="1099.0426852053399" type="line" smooth="yes"/>
      <point x="186.16579842871451" y="964.55354738722042"/>
      <point x="241.38368013548435" y="803.16626090477416"/>
      <point x="399.22104615300628" y="798.93573783814657" type="curve" smooth="yes"/>
      <point x="563.2731772687456" y="794.53864010187601"/>
      <point x="651.45051501321348" y="956.08502340257928"/>
      <point x="667.32290357130989" y="1099.1203660820272" type="curve" smooth="yes"/>
      <point x="674.5691206666105" y="1175.9619990776539" type="line" smooth="yes"/>
      <point x="684.43013910155128" y="1309.6966293672415"/>
      <point x="632.2366831358479" y="1473.894939786564"/>
      <point x="473.8297213658351" y="1478.175581668113" type="curve" smooth="yes"/>
      <point x="308.58357978604766" y="1482.6410391613122"/>
      <point x="218.79800326471582" y="1319.7289878310505"/>
      <point x="203.0901775320205" y="1175.4301678554193" type="curve" smooth="yes"/>
    </contour>
    <contour>
      <point x="292.92647930963125" y="1176.3861823353111" type="line" smooth="yes"/>
      <point x="303.49206545130534" y="1270.3645279972654"/>
      <point x="355.60355877685299" y="1392.7289781498282"/>
      <point x="468.15289396122523" y="1390.0517418954519" type="curve" smooth="yes"/>
      <point x="576.54669727767578" y="1387.4733542087263"/>
      <point x="592.54282673825901" y="1260.6540656314969"/>
      <point x="586.03020555372461" y="1176.9763763194633" type="curve" smooth="yes"/>
      <point x="578.35586057491184" y="1098.4963122077934" type="line" smooth="yes"/>
      <point x="567.31399910304845" y="1005.3379115207338"/>
      <point x="516.75426175356677" y="884.70755893490684"/>
      <point x="404.95031106470242" y="887.36119583261723" type="curve" smooth="yes"/>
      <point x="297.49965261109691" y="889.91150850224062"/>
      <point x="279.90829293335713" y="1012.6035054983507"/>
      <point x="285.8316345502397" y="1096.4604870390926" type="curve" smooth="yes"/>
    </contour>
    <contour>
      <point x="647.42827653213794" y="279.04839863274151" type="line" smooth="yes"/>
      <point x="637.82396447741235" y="144.34700061606779"/>
      <point x="692.31986111562924" y="-18.070352558033296"/>
      <point x="850.8241419235261" y="-22.220607073170331" type="curve" smooth="yes"/>
      <point x="1015.0861804261624" y="-26.521621932115487"/>
      <point x="1103.0880295876023" y="136.1240637135927"/>
      <point x="1118.9737686173796" y="279.11554937862093" type="curve" smooth="yes"/>
      <point x="1126.3354402262555" y="356.95358316313371" type="line" smooth="yes"/>
      <point x="1136.2553440864954" y="491.4030220030578"/>
      <point x="1082.2582591813107" y="653.55058169939196"/>
      <point x="923.95311479141355" y="657.74330421041395" type="curve" smooth="yes"/>
      <point x="759.54070555708131" y="662.09777804602322"/>
      <point x="669.98858246756379" y="499.05198563142062"/>
      <point x="654.38219764971939" y="355.55007085713021" type="curve" smooth="yes"/>
    </contour>
    <contour>
      <point x="744.59629616834411" y="357.38831837482655" type="line" smooth="yes"/>
      <point x="755.00064164377807" y="452.07573517867235"/>
      <point x="805.18476312756184" y="573.21549404161601"/>
      <point x="918.67808730110528" y="570.47124649588943" type="curve" smooth="yes"/>
      <point x="1028.4922200886774" y="567.81596111604119"/>
      <point x="1044.2259167194622" y="443.35954503762719"/>
      <point x="1037.6531461187512" y="358.03370013915196" type="curve" smooth="yes"/>
      <point x="1030.0127865797378" y="278.46273580541481" type="line" smooth="yes"/>
      <point x="1019.1447428008779" y="185.05391057939408"/>
      <point x="969.3661437211025" y="62.795242088688966"/>
      <point x="856.88213224423873" y="65.272096030963581" type="curve" smooth="yes"/>
      <point x="748.29473630086773" y="67.663148023085967"/>
      <point x="731.69054297953187" y="191.81669910790586"/>
      <point x="737.55425864156746" y="276.18557755618474" type="curve" smooth="yes"/>
    </contour>
    <contour>
      <point x="1069.8270525935038" y="1257.4067345516942" type="line"/>
      <point x="1008.2810703573875" y="1307.6804964604519" type="line"/>
      <point x="234.56389249357227" y="175.65935865166574" type="line"/>
      <point x="298.91222678955052" y="121.51734492520896" type="line"/>
    </contour>
  </outline>
</glyph>
<glyph name="ampersand" format="1">
  <advance width="1067.97"/>
  <unicode hex="0026"/>
  <outline>
    <contour>
      <point x="363.47727694394251" y="786.29115984438761" type="line" smooth="yes"/>
      <point x="226.21926504072874" y="676.36092280031357"/>
      <point x="87.040165128162286" y="550.68592515074556"/>
      <point x="70.863861639689475" y="364.31255182341448" type="curve" smooth="yes"/>
      <point x="52.532547142232303" y="153.11047324904376"/>
      <point x="173.830804076709" y="-15.466151327688021"/>
      <point x="393.37377554350627" y="-19.906961001575709" type="curve" smooth="yes"/>
      <point x="532.66201492585878" y="-22.724416540121531"/>
      <point x="666.36587085763347" y="54.478322733785006"/>
      <point x="753.84405422857719" y="159.69012929426771" type="curve" smooth="yes"/>
      <point x="761.93283509777893" y="169.41867206146082"/>
      <point x="768.97780776185891" y="180.03889612123831"/>
      <point x="776.97377424529191" y="189.85475601546059" type="curve" smooth="yes"/>
      <point x="889.60998775045459" y="328.12713285360098"/>
      <point x="950.5810360468696" y="476.19992231677043"/>
      <point x="973.43716684558729" y="653.30074917236891" type="curve"/>
      <point x="875.4545680282074" y="652.56263347141135" type="line"/>
      <point x="838.7457828716299" y="418.17086993045518"/>
      <point x="687.2543843090823" y="74.407623158150827"/>
      <point x="399.44612976319911" y="83.526988753806876" type="curve" smooth="yes"/>
      <point x="240.54202713495002" y="88.561954164382456"/>
      <point x="165.49747368349588" y="215.10730174639147"/>
      <point x="183.59514066101559" y="364.18116619396449" type="curve" smooth="yes"/>
      <point x="198.86254455951197" y="489.94162482423593"/>
      <point x="293.85006140637137" y="598.46121262848465"/>
      <point x="385.43527934530135" y="678.18265433488057" type="curve" smooth="yes"/>
      <point x="639.90328927198743" y="883.74517847608809" type="line" smooth="yes"/>
      <point x="739.2572035929544" y="963.52727825309114"/>
      <point x="827.85470074675811" y="1065.4329331900913"/>
      <point x="837.2401213745153" y="1198.2658388347727" type="curve" smooth="yes"/>
      <point x="847.54387173544842" y="1344.0959676872124"/>
      <point x="762.15144224140045" y="1474.2718838878302"/>
      <point x="607.9353599715522" y="1477.7730099753578" type="curve" smooth="yes"/>
      <point x="413.61748236071446" y="1482.1845562976528"/>
      <point x="308.04905753393643" y="1311.9105360322039"/>
      <point x="292.70747653330983" y="1136.4170964493339" type="curve" smooth="yes"/>
      <point x="278.73838704714569" y="976.62368521826738"/>
      <point x="358.12162528133558" y="835.40513094150026"/>
      <point x="431.8587880822937" y="699.96385820400735" type="curve" smooth="yes"/>
      <point x="808.56090101234281" y="0.0" type="line"/>
      <point x="932.0352519010022" y="0.0" type="line"/>
      <point x="487.71260307756518" y="825.69941624773389" type="line" smooth="yes"/>
      <point x="436.90160751245833" y="921.95233121439151"/>
      <point x="390.13119492916883" y="1029.9744532492327"/>
      <point x="402.19483719903832" y="1141.5007118397118" type="curve" smooth="yes"/>
      <point x="413.71851330041295" y="1248.0350778333695"/>
      <point x="475.88030306254223" y="1376.3516403273509"/>
      <point x="599.91944647743867" y="1374.6268704857196" type="curve" smooth="yes"/>
      <point x="695.92980251709594" y="1373.2918421872123"/>
      <point x="738.84473861066738" y="1285.541676647051"/>
      <point x="731.21093465629895" y="1199.1398210474385" type="curve" smooth="yes"/>
      <point x="722.22786644615758" y="1097.4665573674156"/>
      <point x="656.14261890229204" y="1023.2491132735939"/>
      <point x="580.45275648673135" y="961.5040064448599" type="curve" smooth="yes"/>
    </contour>
  </outline>
</glyph>
<glyph name="quotesingle" format="1">
  <advance width="338.53"/>
  <unicode hex="0027"/>
  <outline>
    <contour>
      <point x="368.4171400028649" y="1535.9286498423398" type="line"/>
      <point x="266.63269176004275" y="1535.9375540630572" type="line"/>
      <point x="244.5247035513026" y="1397.0989104846014" type="line"/>
      <point x="190.86999335485388" y="1089.0915122806798" type="line"/>
      <point x="280.5976893592432" y="1089.1126523436737" type="line"/>
      <point x="345.39758071940054" y="1391.2662759797415" type="line"/>
    </contour>
  </outline>
</glyph>
<glyph name="parenleft" format="1">
  <advance width="579.09"/>
  <unicode hex="0028"/>
  <outline>
    <contour>
      <point x="127.9102144175969" y="570.13871323876458" type="line" smooth="yes"/>
      <point x="82.178499878076664" y="254.10142244655788"/>
      <point x="85.110732615567883" y="-231.09077833012307"/>
      <point x="344.91920499776097" y="-468.86553709680771" type="curve"/>
      <point x="377.99446710967089" y="-390.65383657743513" type="line"/>
      <point x="165.10661670821301" y="-168.77021186076541"/>
      <point x="198.41872648423589" y="298.31323867021399"/>
      <point x="238.86715949360041" y="570.92161060264493" type="curve" smooth="yes"/>
      <point x="241.9392532406905" y="590.73685289668447" type="line" smooth="yes"/>
      <point x="293.7814981867532" y="923.40328563690559"/>
      <point x="407.23107847134554" y="1328.2312451053911"/>
      <point x="681.76150144529083" y="1549.8793011605999" type="curve"/>
      <point x="665.03544186107888" y="1633.9511407355212" type="line"/>
      <point x="333.94912249194613" y="1425.5729195925237"/>
      <point x="185.99574386098499" y="947.55418312403458"/>
      <point x="130.28982035078499" y="585.66713551749615" type="curve" smooth="yes"/>
    </contour>
  </outline>
</glyph>
<glyph name="parenright" format="1">
  <advance width="589.76"/>
  <unicode hex="0029"/>
  <outline>
    <contour>
      <point x="445.53623895134581" y="593.29619116536901" type="line" smooth="yes"/>
      <point x="490.89901533120604" y="905.48889784357164"/>
      <point x="487.03262264683303" y="1397.6945933474424"/>
      <point x="229.00842151789789" y="1632.1914153442153" type="curve"/>
      <point x="194.94369463481468" y="1555.8071825295212" type="line"/>
      <point x="404.79781770410546" y="1330.666651706633"/>
      <point x="375.74520954487451" y="867.79032625267928"/>
      <point x="335.01398726607471" y="593.09614550509548" type="curve" smooth="yes"/>
      <point x="331.93835684521736" y="573.26636152292417" type="line" smooth="yes"/>
      <point x="279.95712426683934" y="239.72997031941475"/>
      <point x="166.9324723600979" y="-168.70614208891084"/>
      <point x="-107.75131812041212" y="-391.82425738736919" type="curve"/>
      <point x="-90.202333097918839" y="-470.97121844534001" type="line"/>
      <point x="242.72062184545001" y="-258.77282979776658"/>
      <point x="386.99282690068662" y="212.050963884976"/>
      <point x="443.15149899844641" y="577.7710774600564" type="curve" smooth="yes"/>
    </contour>
  </outline>
</glyph>
<glyph name="asterisk" format="1">
  <advance width="842.93"/>
  <unicode hex="002A"/>
  <outline>
    <contour>
      <point x="155.98933403280938" y="706.50071465530573" type="line"/>
      <point x="233.98900123352809" y="638.42474737251428" type="line"/>
      <point x="483.62799967800322" y="939.17606527305861" type="line"/>
      <point x="638.05605145230641" y="634.49230991504146" type="line"/>
      <point x="728.38324253076405" y="694.75211150337918" type="line"/>
      <point x="560.48906108979065" y="991.09277139951269" type="line"/>
      <point x="905.39751406768278" y="1104.1007057492986" type="line"/>
      <point x="890.85210012206369" y="1213.0040900667984" type="line"/>
      <point x="556.67410852182775" y="1089.0065672448413" type="line"/>
      <point x="629.87681170804467" y="1455.9003991585241" type="line"/>
      <point x="525.02451038626907" y="1455.9287003943639" type="line"/>
      <point x="464.18889909754489" y="1086.1554403391563" type="line"/>
      <point x="162.28339815364745" y="1208.6188676156135" type="line"/>
      <point x="113.62923061793906" y="1110.0554156211376" type="line"/>
      <point x="418.18200345058017" y="1003.154543464158" type="line"/>
    </contour>
  </outline>
</glyph>
<glyph name="plus" format="1">
  <advance width="981.64"/>
  <unicode hex="002B"/>
  <outline>
    <contour>
      <point x="921.02137417255744" y="741.91312202221775" type="line"/>
      <point x="105.25264511134331" y="741.91780896175942" type="line"/>
      <point x="84.640951213285561" y="627.085351467137" type="line"/>
      <point x="900.40968027450151" y="627.08066452759215" type="line"/>
    </contour>
    <contour>
      <point x="646.42895769132474" y="1205.9372455691882" type="line"/>
      <point x="534.9071609561156" y="1205.9420803579817" type="line"/>
      <point x="350.46809204751395" y="146.06124687610557" type="line"/>
      <point x="461.98988878272235" y="146.05641208731123" type="line"/>
    </contour>
  </outline>
</glyph>
<glyph name="comma" format="1">
  <advance width="381.21"/>
  <unicode hex="002C"/>
  <outline>
    <contour>
      <point x="184.43003380026539" y="219" type="move" name="_bottom"/>
    </contour>
    <contour>
      <point x="54.80151887545081" y="47" type="move" name="_right"/>
    </contour>
    <contour>
      <point x="194.88582122148193" y="189.81902773803478" type="line"/>
      <point x="77.743199589091162" y="189.952653350605" type="line"/>
      <point x="52.788778607455001" y="47.062816824592105" type="line" smooth="yes"/>
      <point x="34.104761121277221" y="-56.467258766478267"/>
      <point x="-15.884648155983911" y="-139.80318328866434"/>
      <point x="-82.960340462812312" y="-219.38533377982029" type="curve"/>
      <point x="-16.029003397774446" y="-273.58905366655631" type="line"/>
      <point x="85.138278640282607" y="-190.30217502662259"/>
      <point x="151.76704738453475" y="-79.146842036611204"/>
      <point x="172.52677390277233" y="50.786533797347957" type="curve" smooth="yes"/>
    </contour>
  </outline>
</glyph>
<glyph name="hyphen" format="1">
  <advance width="513.13"/>
  <unicode hex="002D"/>
  <outline>
    <contour>
      <point x="467.43658194687828" y="693.91940589552723" type="line"/>
      <point x="73.645355768612305" y="693.92384336391046" type="line"/>
      <point x="54.990192886472229" y="590.0805569549068" type="line"/>
      <point x="448.78141906473763" y="590.07611948652334" type="line"/>
    </contour>
  </outline>
</glyph>
<glyph name="period" format="1">
  <advance width="474.33"/>
  <unicode hex="002E"/>
  <outline>
    <contour>
      <point x="49.726855602838484" y="73.51943908528297" type="curve" smooth="yes"/>
      <point x="46.19471576162435" y="26.183845731022018"/>
      <point x="79.72785694766506" y="-10.770717905624142"/>
      <point x="127.59135735700322" y="-9.881009755095004" type="curve" smooth="yes"/>
      <point x="174.44124098073968" y="-9.010143166673744"/>
      <point x="213.17352739314612" y="27.688439380524237"/>
      <point x="216.78749795282073" y="74.39922710953502" type="curve" smooth="yes"/>
      <point x="220.46873470802814" y="121.9794344779668"/>
      <point x="185.39846981478212" y="160.8901072342408"/>
      <point x="137.22424595463502" y="159.92025300500404" type="curve" smooth="yes"/>
      <point x="89.82068573549407" y="158.96591394823213"/>
      <point x="53.1829070505394" y="119.83534199232687"/>
    </contour>
  </outline>
</glyph>
<glyph name="slash" format="1">
  <advance width="706.16"/>
  <unicode hex="002F"/>
  <outline>
    <contour>
      <point x="781.22426682485218" y="1455.0173765480199" type="line"/>
      <point x="684.12325087955458" y="1455.4600131645343" type="line"/>
      <point x="-87.505942137406919" y="-124.58621528504034" type="line"/>
      <point x="19.017294769903998" y="-124.30992311191079" type="line"/>
    </contour>
  </outline>
</glyph>
<glyph name="zero" format="1">
  <advance width="966.12"/>
  <unicode hex="0030"/>
  <outline>
    <contour>
      <point x="892.27821440014759" y="853.35634845716379" type="line" smooth="yes"/>
      <point x="922.2288724703368" y="1078.1635443713665"/>
      <point x="935.88536274541309" y="1467.8251277770407"/>
      <point x="621.60420872255133" y="1477.5382350414552" type="curve" smooth="yes"/>
      <point x="293.45647910892308" y="1487.6798997754449"/>
      <point x="195.41599767532026" y="1109.7885422618654"/>
      <point x="157.13810721568143" y="852.63220346075468" type="curve" smooth="yes"/>
      <point x="119.52875635133579" y="607.64009304392857" type="line" smooth="yes"/>
      <point x="89.80385535093842" y="384.08752572390506"/>
      <point x="76.491060131857921" y="-10.642739620531856"/>
      <point x="390.45772334486009" y="-20.486982087456703" type="curve" smooth="yes"/>
      <point x="720.90881219006735" y="-30.848084150845541"/>
      <point x="814.3616407599668" y="352.23572728166351"/>
      <point x="853.87807876238094" y="609.1977191430035" type="curve" smooth="yes"/>
    </contour>
    <contour>
      <point x="742.12904927591524" y="593.71002802316946" type="line" smooth="yes"/>
      <point x="714.71510892391473" y="408.94163710082273"/>
      <point x="648.30195852422321" y="72.273346283738235"/>
      <point x="398.0501916691839" y="83.06476195041374" type="curve" smooth="yes"/>
      <point x="167.71104234717907" y="92.997501031061461"/>
      <point x="207.52115898026543" y="444.57992027937962"/>
      <point x="227.45963356580404" y="593.30994019289949" type="curve" smooth="yes"/>
      <point x="269.83540134880752" y="869.34517478261023" type="line" smooth="yes"/>
      <point x="297.02429287024199" y="1055.4367229470504"/>
      <point x="363.2252881560633" y="1384.7950284885155"/>
      <point x="613.57563912276464" y="1374.1355640521583" type="curve" smooth="yes"/>
      <point x="844.63940011743534" y="1364.2972876792956"/>
      <point x="805.20330799363887" y="1020.9534308756865"/>
      <point x="784.95572655914384" y="870.27825226147365" type="curve" smooth="yes"/>
    </contour>
  </outline>
</glyph>
<glyph name="one" format="1">
  <advance width="966.12"/>
  <unicode hex="0031"/>
  <outline>
    <contour>
      <point x="738.09784205996266" y="1461.7004478677734" type="line"/>
      <point x="716.2058047226551" y="1461.5097554223385" type="line"/>
      <point x="280.74840326988533" y="1279.9064043135149" type="line"/>
      <point x="258.85905001691748" y="1158.485773873726" type="line"/>
      <point x="604.39984729605692" y="1304.5851859822658" type="line"/>
      <point x="377.55354905017879" y="0.0" type="line"/>
      <point x="488.10539864240741" y="0.0" type="line"/>
    </contour>
  </outline>
</glyph>
<glyph name="two" format="1">
  <advance width="966.12"/>
  <unicode hex="0032"/>
  <outline>
    <contour>
      <point x="803.30805051735331" y="103.93280922410214" type="line"/>
      <point x="187.67021351697542" y="104.34442613197793" type="line"/>
      <point x="588.29161070629698" y="560.85938996448567" type="line" smooth="yes"/>
      <point x="718.78912232162509" y="709.28987999535639"/>
      <point x="876.20259609044194" y="887.29961805738083"/>
      <point x="896.31106925758797" y="1093.1292487402789" type="curve" smooth="yes"/>
      <point x="916.2706760282955" y="1297.4350881763062"/>
      <point x="814.48235265117205" y="1472.2830093893881"/>
      <point x="595.61959762071808" y="1476.7784524321419" type="curve" smooth="yes"/>
      <point x="344.23867072627581" y="1481.9418190302247"/>
      <point x="201.45991416252161" y="1262.1515771260169"/>
      <point x="173.1225062721083" y="1036.1379021852802" type="curve"/>
      <point x="280.96352203364461" y="1036.6917765403973" type="line"/>
      <point x="307.06471289230757" y="1200.4536379396754"/>
      <point x="398.4755993634227" y="1378.8691040228375"/>
      <point x="589.56244824803764" y="1373.3774419586559" type="curve" smooth="yes"/>
      <point x="749.28289311599428" y="1368.7872217887414"/>
      <point x="798.66372062476069" y="1220.66363960374"/>
      <point x="782.3519788065239" y="1082.4113064613712" type="curve" smooth="yes"/>
      <point x="762.11804192288537" y="910.91588837604252"/>
      <point x="624.47610837487696" y="760.60555720710954"/>
      <point x="517.28573999805701" y="635.6253980467709" type="curve" smooth="yes"/>
      <point x="49.524280084646421" y="99.247559220758831" type="line"/>
      <point x="33.940212579901356" y="0.0" type="line"/>
      <point x="786.49223278680699" y="0.0" type="line"/>
    </contour>
  </outline>
</glyph>
<glyph name="three" format="1">
  <advance width="966.12"/>
  <unicode hex="0033"/>
  <outline>
    <contour>
      <point x="375.77298809848537" y="794.42489877001572" type="line"/>
      <point x="362.49255591133186" y="712.54030548457433" type="line"/>
      <point x="485.51148558690738" y="711.69931001031421" type="line" smooth="yes"/>
      <point x="699.46737449158127" y="713.26483898396691"/>
      <point x="882.25736621541296" y="861.0916354774929"/>
      <point x="900.07097368865936" y="1080.2498253631834" type="curve" smooth="yes"/>
      <point x="916.68850544104805" y="1284.6928717641485"/>
      <point x="822.39993143463357" y="1471.8537355751191"/>
      <point x="598.66460329559413" y="1476.8009395623612" type="curve" smooth="yes"/>
      <point x="364.90108200682835" y="1481.9698855406773"/>
      <point x="217.55027081817209" y="1289.4806282836471"/>
      <point x="190.53073267811578" y="1074.0952140369839" type="curve"/>
      <point x="297.96209824172718" y="1074.8574509352006" type="line"/>
      <point x="324.20344763885794" y="1228.7258954255915"/>
      <point x="417.49731499083464" y="1378.0331712126294"/>
      <point x="591.869832885341" y="1373.645750306654" type="curve" smooth="yes"/>
      <point x="754.57035322982688" y="1369.5520108057749"/>
      <point x="802.33673225034534" y="1226.3329695671639"/>
      <point x="788.57407852711367" y="1084.5491723007103" type="curve" smooth="yes"/>
      <point x="771.88616448222319" y="912.62914369846783"/>
      <point x="645.8104881339799" y="795.07563836786699"/>
      <point x="472.99266945193506" y="793.40067650212598" type="curve" smooth="yes"/>
    </contour>
    <contour>
      <point x="358.76309028994757" y="689.99427949784172" type="line"/>
      <point x="467.69637756517773" y="689.07244819299194" type="line" smooth="yes"/>
      <point x="641.92245737301198" y="683.54905111444737"/>
      <point x="717.89036529142595" y="567.73597500431367"/>
      <point x="703.04108230980773" y="399.57470151255274" type="curve" smooth="yes"/>
      <point x="688.03823992375294" y="229.67443866765888"/>
      <point x="586.64810416092439" y="78.338107615710783"/>
      <point x="401.24606699545689" y="84.079332878621685" type="curve" smooth="yes"/>
      <point x="228.62417886291669" y="89.424803512223292"/>
      <point x="165.60174448280512" y="242.5841070607234"/>
      <point x="178.44488956987237" y="395.02810074318916" type="curve"/>
      <point x="67.902980038102584" y="395.20893949125616" type="line"/>
      <point x="50.710337303690814" y="180.5060076163218"/>
      <point x="161.94198087806348" y="-14.38641097754854"/>
      <point x="394.51834273604686" y="-20.283888449149714" type="curve" smooth="yes"/>
      <point x="639.65425628476817" y="-26.499840560898395"/>
      <point x="794.29491237370871" y="173.62656970388329"/>
      <point x="812.56098994105059" y="403.40899298189458" type="curve" smooth="yes"/>
      <point x="830.33419525851525" y="626.99121375196569"/>
      <point x="703.30586788540586" y="763.65399849281073"/>
      <point x="480.00961538450815" y="769.81964059074494" type="curve" smooth="yes"/>
      <point x="371.98287455979192" y="770.75138600736057" type="line"/>
    </contour>
  </outline>
</glyph>
<glyph name="four" format="1">
  <advance width="966.12"/>
  <unicode hex="0034"/>
  <outline>
    <contour>
      <point x="895.3652633791295" y="470.92379710878765" type="line"/>
      <point x="184.271787538944" y="471.3110237952904" type="line"/>
      <point x="695.3739797621321" y="1203.3973432797295" type="line"/>
      <point x="860.8909525582357" y="1455.6158116165486" type="line"/>
      <point x="762.1868553752724" y="1455.602645247666" type="line"/>
      <point x="42.61954544151614" y="436.9124618852661" type="line"/>
      <point x="33.555138057154736" y="367.4165647313353" type="line"/>
      <point x="876.7223839808819" y="367.07512942909943" type="line"/>
    </contour>
    <contour>
      <point x="884.7078783932925" y="1455.927261244264" type="line"/>
      <point x="774.1578508671715" y="1455.9309235408448" type="line"/>
      <point x="521.1179396993607" y="0.0" type="line"/>
      <point x="631.6679672254816" y="0.0" type="line"/>
    </contour>
  </outline>
</glyph>
<glyph name="five" format="1">
  <advance width="966.12"/>
  <unicode hex="0035"/>
  <outline>
    <contour>
      <point x="305.82682683770491" y="720.5171539438337" type="line"/>
      <point x="373.38316675576721" y="783.98444252151228"/>
      <point x="443.09368658490996" y="824.8611915369811"/>
      <point x="538.77873020079505" y="822.25820099887562" type="curve" smooth="yes"/>
      <point x="722.77771675770077" y="817.25274138962584"/>
      <point x="758.30785935820859" y="617.42792239426194"/>
      <point x="744.49527179833206" y="469.56181414975498" type="curve" smooth="yes"/>
      <point x="728.25853049886723" y="295.7447262133233"/>
      <point x="649.94112913690492" y="76.677635638852806"/>
      <point x="440.16780739864953" y="82.89869357403073" type="curve" smooth="yes"/>
      <point x="272.02615452880855" y="87.885118707370737"/>
      <point x="225.51456561947302" y="239.10474950205904"/>
      <point x="225.80090383734267" y="383.45413943127068" type="curve"/>
      <point x="121.50885506975806" y="383.61727978644416" type="line"/>
      <point x="118.79194175486617" y="181.49521905885948"/>
      <point x="207.19688317184406" y="-15.344279671253938"/>
      <point x="433.67375627241381" y="-21.381093628606273" type="curve" smooth="yes"/>
      <point x="709.1498104451482" y="-28.723996530695693"/>
      <point x="834.27265742361897" y="231.64931980622313"/>
      <point x="855.42436790648321" y="471.13808675612222" type="curve" smooth="yes"/>
      <point x="873.27158762768897" y="673.21198749233849"/>
      <point x="812.5476935754923" y="931.35727395057643"/>
      <point x="565.16362204351901" y="933.25177806388842" type="curve" smooth="yes"/>
      <point x="483.84780833952726" y="933.87450669223347"/>
      <point x="405.56766871214609" y="904.58167808567759"/>
      <point x="341.72294168532966" y="855.14639667072436" type="curve"/>
      <point x="464.8130050603985" y="1342.8769201612743" type="line"/>
      <point x="968.03788775768874" y="1343.0734004939331" type="line"/>
      <point x="986.30384254463399" y="1455.9272712542704" type="line"/>
      <point x="385.26551518740013" y="1455.8035382065773" type="line"/>
      <point x="217.65635048672641" y="748.31773639632468" type="line"/>
    </contour>
  </outline>
</glyph>
<glyph name="six" format="1">
  <advance width="966.12"/>
  <unicode hex="0036"/>
  <outline>
    <contour>
      <point x="823.46606727116739" y="1467.9210456892747" type="line" smooth="yes"/>
      <point x="363.16519850588855" y="1467.9716841467002"/>
      <point x="187.23095763029994" y="1035.8873361057408"/>
      <point x="131.34458227145618" y="642.61211729482636" type="curve" smooth="yes"/>
      <point x="113.95916082142844" y="515.76376851103078" type="line" smooth="yes"/>
      <point x="88.391581559955029" y="295.67867424583346"/>
      <point x="152.45739430176974" y="-13.509981867918603"/>
      <point x="426.43601429421915" y="-20.766365454819312" type="curve" smooth="yes"/>
      <point x="694.06208121374812" y="-27.854500286198419"/>
      <point x="823.81838130121344" y="257.66310969059504"/>
      <point x="845.65299568074909" y="484.9361419283336" type="curve" smooth="yes"/>
      <point x="864.86365983591452" y="684.89689314440932"/>
      <point x="810.62532786792212" y="948.98021036975763"/>
      <point x="564.68421026632529" y="956.28776954849536" type="curve" smooth="yes"/>
      <point x="330.06300998341288" y="963.25898413178118"/>
      <point x="197.25674139975803" y="752.52670363737946"/>
      <point x="154.69460556482858" y="547.88986102639217" type="curve"/>
      <point x="215.39454861423394" y="546.2521137448681" type="line"/>
      <point x="250.34243160530107" y="696.78900985692439"/>
      <point x="370.18232171758251" y="857.04063909349668"/>
      <point x="540.96703429917545" y="852.07247073423355" type="curve" smooth="yes"/>
      <point x="728.15588982639679" y="846.62710191181793"/>
      <point x="749.99648332547849" y="623.38020326986839"/>
      <point x="735.53598750089395" y="480.2238500726113" type="curve" smooth="yes"/>
      <point x="719.2610321963391" y="319.10466867584523"/>
      <point x="632.70063773548372" y="76.984727751122293"/>
      <point x="433.13720054192595" y="83.101996568031808" type="curve" smooth="yes"/>
      <point x="226.39298597226386" y="89.439379580917048"/>
      <point x="207.82842629724738" y="362.39929388609715"/>
      <point x="224.69809329887318" y="513.20054387473908" type="curve" smooth="yes"/>
      <point x="252.3261411598246" y="715.10260943680635" type="line" smooth="yes"/>
      <point x="297.09068784451915" y="1027.8729601587133"/>
      <point x="456.31578823198919" y="1361.8845229094336"/>
      <point x="816.98657616165929" y="1361.0958620171373" type="curve" smooth="yes"/>
      <point x="829.57157843594496" y="1360.874673017026" type="line"/>
      <point x="841.25150693200624" y="1467.7293433521938" type="line"/>
    </contour>
  </outline>
</glyph>
<glyph name="seven" format="1">
  <advance width="966.12"/>
  <unicode hex="0037"/>
  <outline>
    <contour>
      <point x="998.34044754436775" y="1455.7240532238914" type="line"/>
      <point x="215.16108830929545" y="1455.9392564177258" type="line"/>
      <point x="198.35045913906549" y="1352.0652464347656" type="line"/>
      <point x="864.88240456282836" y="1351.7584020220602" type="line"/>
      <point x="152.54965592385551" y="0.0" type="line"/>
      <point x="272.55236367182914" y="0.0" type="line"/>
      <point x="989.97006892450543" y="1386.1102587617772" type="line"/>
    </contour>
  </outline>
</glyph>
<glyph name="eight" format="1">
  <advance width="966.12"/>
  <unicode hex="0038"/>
  <outline>
    <contour>
      <point x="825.02292015997409" y="395.74377230432731" type="curve" smooth="yes"/>
      <point x="841.73939687916936" y="601.30843468571891"/>
      <point x="713.45054887856202" y="774.22235101988485"/>
      <point x="500.24828508127996" y="779.565650540918" type="curve" smooth="yes"/>
      <point x="269.58949605472674" y="785.34644749389759"/>
      <point x="87.927354288195403" y="604.07168088754918"/>
      <point x="68.705479733463605" y="378.70600794948484" type="curve" smooth="yes"/>
      <point x="50.311226846425185" y="163.04373379007532"/>
      <point x="164.31896465387439" y="-14.841096258285614"/>
      <point x="391.89324042812393" y="-20.600542814456432" type="curve" smooth="yes"/>
      <point x="636.90587063059206" y="-26.80131899813102"/>
      <point x="805.83269766425224" y="159.7591402181267"/>
    </contour>
    <contour>
      <point x="714.75751305889071" y="394.70038887251826" type="curve" smooth="yes"/>
      <point x="698.04041698908929" y="223.86681760859204"/>
      <point x="580.7351390230142" y="78.315730250650248"/>
      <point x="399.11338964301956" y="83.055071410496339" type="curve" smooth="yes"/>
      <point x="231.81239280181515" y="87.420718713859102"/>
      <point x="164.7547365872787" y="224.51328676627497"/>
      <point x="180.02603627745651" y="377.36201138108953" type="curve" smooth="yes"/>
      <point x="196.76153511946103" y="544.86574097120103"/>
      <point x="315.41740710017257" y="700.96730861782862"/>
      <point x="496.09372839330729" y="695.92663094855254" type="curve" smooth="yes"/>
      <point x="660.56365022088426" y="691.33809462962461"/>
      <point x="729.21286102225679" y="542.42094429275699"/>
    </contour>
    <contour>
      <point x="917.6472084012596" y="1089.3799532659275" type="curve" smooth="yes"/>
      <point x="934.25789147075602" y="1289.133912809182"/>
      <point x="836.95116694398075" y="1470.9769621411954"/>
      <point x="620.18123127778199" y="1476.687559722345" type="curve" smooth="yes"/>
      <point x="386.18156086319118" y="1482.8520582620183"/>
      <point x="238.31010956612204" y="1291.9177483390715"/>
      <point x="221.37830801062461" y="1072.229888733897" type="curve" smooth="yes"/>
      <point x="206.73777545884718" y="882.27093786634566"/>
      <point x="319.61773777179923" y="717.25097083363232"/>
      <point x="519.37115289132839" y="712.27979458878281" type="curve" smooth="yes"/>
      <point x="733.85825460889885" y="706.94194750242889"/>
      <point x="900.38022955980216" y="881.73362237754441"/>
    </contour>
    <contour>
      <point x="806.35539593848512" y="1090.5770695783165" type="curve" smooth="yes"/>
      <point x="791.75689664232971" y="940.04513645442682"/>
      <point x="687.10996814343287" y="793.645568289896"/>
      <point x="523.10461506641957" y="797.99078234580031" type="curve" smooth="yes"/>
      <point x="372.24602588348324" y="801.98768153154685"/>
      <point x="317.91385039201901" y="940.70193425709886"/>
      <point x="330.71510286548823" y="1073.5006400395364" type="curve" smooth="yes"/>
      <point x="345.26042536644906" y="1224.3921256437015"/>
      <point x="445.21397220329317" y="1377.9661416607082"/>
      <point x="612.44391352261312" y="1372.9021323946322" type="curve" smooth="yes"/>
      <point x="761.83556573380361" y="1368.3782970987306"/>
      <point x="818.99989529721358" y="1220.960398250631"/>
    </contour>
  </outline>
</glyph>
<glyph name="nine" format="1">
  <advance width="966.12"/>
  <unicode hex="0039"/>
  <outline>
    <contour>
      <point x="184.67787421809396" y="94.856211149450843" type="line"/>
      <point x="172.01957380576761" y="-11.851734255922283" type="line"/>
      <point x="196.66698396591966" y="-12.065576091876251" type="line" smooth="yes"/>
      <point x="653.2467927635787" y="-11.396488593224081"/>
      <point x="814.99789646747377" y="388.50836586296435"/>
      <point x="870.2463858954759" y="781.24469931775502" type="curve" smooth="yes"/>
      <point x="885.57199230126128" y="895.25343945706402" type="line" smooth="yes"/>
      <point x="912.89749264963325" y="1124.6229347128442"/>
      <point x="886.03416147762528" y="1469.5624952212602"/>
      <point x="584.95049518737972" y="1476.599095347601" type="curve" smooth="yes"/>
      <point x="313.99269242152144" y="1482.9316265428911"/>
      <point x="181.85296880331737" y="1188.733107305824"/>
      <point x="158.94188905248157" y="959.23777837552927" type="curve" smooth="yes"/>
      <point x="139.45048515466706" y="763.99660259990969"/>
      <point x="192.79700665257153" y="483.57816266135887"/>
      <point x="437.66086136797185" y="477.14073087348021" type="curve" smooth="yes"/>
      <point x="683.09234095184866" y="470.68837631810624"/>
      <point x="822.73691450045806" y="724.57378167827028"/>
      <point x="853.60392737786469" y="935.59476560710289" type="curve"/>
      <point x="797.30275517513678" y="934.61961641082951" type="line"/>
      <point x="767.15576546012994" y="773.5608624452085"/>
      <point x="645.05018895952003" y="575.82756992063685"/>
      <point x="458.78564368803677" y="581.85315851859798" type="curve" smooth="yes"/>
      <point x="275.87941285172542" y="587.77010689659971"/>
      <point x="254.08359852939103" y="827.2711235934986"/>
      <point x="268.24027427612225" y="963.98207250976247" type="curve" smooth="yes"/>
      <point x="285.24343115275479" y="1128.1814758699238"/>
      <point x="377.53091464990916" y="1378.0477203919759"/>
      <point x="580.39283887992428" y="1371.9111715454467" type="curve" smooth="yes"/>
      <point x="799.24005913456722" y="1365.2910694138261"/>
      <point x="793.51654252939386" y="1058.4759283924463"/>
      <point x="776.26681336835304" y="907.76261589261253" type="curve" smooth="yes"/>
      <point x="748.10226806015442" y="702.91441066007314" type="line" smooth="yes"/>
      <point x="703.12085865015467" y="389.7595077148062"/>
      <point x="560.42605085744174" y="94.240487670972954"/>
      <point x="203.32211235533975" y="94.566727009212954" type="curve" smooth="yes"/>
    </contour>
  </outline>
</glyph>
<glyph name="less" format="1">
  <advance width="891.43"/>
  <unicode hex="003C"/>
  <outline>
    <contour>
      <point x="163.5565543702665" y="676.16586334863564" type="line"/>
      <point x="95.455149024138777" y="685.98417151629349" type="line"/>
      <point x="81.785442069785503" y="610.77223542148215" type="line"/>
      <point x="692.15386879293794" y="230.66714581474923" type="line"/>
      <point x="714.05638345602472" y="353.2793120367208" type="line"/>
    </contour>
    <contour>
      <point x="821.58288517234325" y="956.11158818682168" type="line"/>
      <point x="841.9327777645924" y="1088.1688196430869" type="line"/>
      <point x="99.184141539734426" y="709.15023208174739" type="line"/>
      <point x="84.289471078353429" y="625.43798038530122" type="line"/>
      <point x="168.89829332279328" y="633.19408488031161" type="line"/>
    </contour>
  </outline>
</glyph>
<glyph name="equal" format="1">
  <advance width="960.3"/>
  <unicode hex="003D"/>
  <outline>
    <contour>
      <point x="882.02387428533109" y="936.91610033873883" type="line"/>
      <point x="199.17265294799421" y="936.92085575441808" type="line"/>
      <point x="179.63711866876838" y="828.08363641113897" type="line"/>
      <point x="862.48834000610452" y="828.07888099545698" type="line"/>
    </contour>
    <contour>
      <point x="810.81735697422289" y="525.91616163946946" type="line"/>
      <point x="127.96613563686488" y="525.92091705514883" type="line"/>
      <point x="108.4306013576424" y="417.08369771189024" type="line"/>
      <point x="791.2818226950028" y="417.07894229621155" type="line"/>
    </contour>
  </outline>
</glyph>
<glyph name="greater" format="1">
  <advance width="905.98"/>
  <unicode hex="003E"/>
  <outline>
    <contour>
      <point x="744.06035506131036" y="641.44556409132133" type="line"/>
      <point x="818.430451244952" y="629.14830354768742" type="line"/>
      <point x="832.05529390377262" y="704.23049715270179" type="line"/>
      <point x="205.04482529862952" y="1083.3675871437151" type="line"/>
      <point x="183.65947437236872" y="963.68908831264037" type="line"/>
    </contour>
    <contour>
      <point x="75.429773338843532" y="356.90171980752393" type="line"/>
      <point x="55.281571864967546" y="225.88338982045113" type="line"/>
      <point x="814.47685790764092" y="605.72350343007349" type="line"/>
      <point x="829.8027697141755" y="690.82902555477756" type="line"/>
      <point x="738.89518186490659" y="679.76119666579234" type="line"/>
    </contour>
  </outline>
</glyph>
<glyph name="question" format="1">
  <advance width="802.1899999999999"/>
  <unicode hex="003F"/>
  <outline>
    <contour>
      <point x="399.24552896275708" y="404.95613484364895" type="line"/>
      <point x="419.21695546978327" y="512.67955777078055"/>
      <point x="456.19574511765995" y="603.87323554689431"/>
      <point x="537.52567043040824" y="679.72559998142924" type="curve" smooth="yes"/>
      <point x="665.1619560110172" y="798.76559678089961"/>
      <point x="782.62675684236297" y="930.07190267318742"/>
      <point x="800.44026584672679" y="1111.3820797504738" type="curve" smooth="yes"/>
      <point x="818.13797849401567" y="1291.5136536675964"/>
      <point x="744.89258347197483" y="1471.3485660100032"/>
      <point x="542.07153236014472" y="1476.8656165147272" type="curve" smooth="yes"/>
      <point x="329.32050764009483" y="1482.6527778664604"/>
      <point x="204.44291402377303" y="1309.7033302574591"/>
      <point x="175.58613445552345" y="1116.6017382186767" type="curve"/>
      <point x="284.02465950224695" y="1117.2573414366557" type="line"/>
      <point x="309.61715724741725" y="1244.8394496316282"/>
      <point x="385.69866271967783" y="1374.3797668901868"/>
      <point x="533.1360559419727" y="1370.0273526297931" type="curve" smooth="yes"/>
      <point x="673.13109073805538" y="1365.8946399406036"/>
      <point x="700.09389795971629" y="1225.1808138736344"/>
      <point x="687.23764770363346" y="1110.3679911929746" type="curve" smooth="yes"/>
      <point x="670.82491852707324" y="963.79401144623409"/>
      <point x="582.44081072571498" y="869.72516408288016"/>
      <point x="483.11519868158803" y="769.42374810520198" type="curve" smooth="yes"/>
      <point x="374.07582635576733" y="659.31314101688906"/>
      <point x="317.425914509047" y="558.05441035255899"/>
      <point x="297.68097964978818" y="403.52506291712717" type="curve"/>
    </contour>
    <contour>
      <point x="218.84236806270297" y="71.530623597918861" type="curve" smooth="yes"/>
      <point x="215.67605918340922" y="29.438124316954628"/>
      <point x="240.76107573689032" y="-11.073920554108751"/>
      <point x="286.42982315815914" y="-10.099654688976274" type="curve" smooth="yes"/>
      <point x="330.62233478889129" y="-9.15688182991072"/>
      <point x="360.5700764043545" y="30.730599424778895"/>
      <point x="363.63347099648036" y="72.265335372563001" type="curve" smooth="yes"/>
      <point x="366.73088262260308" y="114.26128794859925"/>
      <point x="340.32757512257604" y="154.9378860500702"/>
      <point x="295.04815923579025" y="153.93032641436022" type="curve" smooth="yes"/>
      <point x="251.00748510582522" y="152.95033131694646"/>
      <point x="221.93099406450622" y="112.59041678811103"/>
    </contour>
  </outline>
</glyph>
<glyph name="at" format="1">
  <advance width="1557.82"/>
  <unicode hex="0040"/>
  <outline>
    <contour>
      <point x="1434.9431166651789" y="517.84096458854958" type="curve" smooth="yes"/>
      <point x="1500.1545958264496" y="906.76839562619125"/>
      <point x="1447.6244459221903" y="1412.4945439998962"/>
      <point x="952.3158099124521" y="1421.1147213455577" type="curve" smooth="yes"/>
      <point x="450.6118657529413" y="1429.8462003856037"/>
      <point x="169.99513724312573" y="902.34320438652344"/>
      <point x="95.109707505801609" y="472.6233105134009" type="curve" smooth="yes"/>
      <point x="28.421612721636038" y="89.942712781995397"/>
      <point x="80.469190951990811" y="-447.16246912665224"/>
      <point x="577.96593769334277" y="-452.76494584732768" type="curve" smooth="yes"/>
      <point x="684.79887406854846" y="-453.96802715984666"/>
      <point x="798.3610338147131" y="-427.30004953253024"/>
      <point x="886.76769640380087" y="-365.96740980650929" type="curve"/>
      <point x="867.88781773278129" y="-283.57139780561641" type="line"/>
      <point x="780.84134697025934" y="-332.1104574543009"/>
      <point x="683.14527932713008" y="-362.33755158069891"/>
      <point x="582.75011374779683" y="-361.20969926274734" type="curve" smooth="yes"/>
      <point x="145.09114695057019" y="-356.29298163669307"/>
      <point x="128.66036938541083" y="150.68210136376729"/>
      <point x="187.43820580569889" y="472.23515382932186" type="curve" smooth="yes"/>
      <point x="256.25985015476419" y="848.73437809308348"/>
      <point x="499.67662806568649" y="1334.9818235368168"/>
      <point x="946.23884255100347" y="1326.2683471869043" type="curve" smooth="yes"/>
      <point x="1397.6143951632421" y="1317.4609513190107"/>
      <point x="1407.7997131994421" y="863.47462928950506"/>
      <point x="1350.0183950640189" y="517.99129030922109" type="curve" smooth="yes"/>
      <point x="1325.5625297497597" y="371.76593098771684"/>
      <point x="1254.9368386632609" y="55.793234427848702"/>
      <point x="1051.966897157369" y="65.298857563755789" type="curve" smooth="yes"/>
      <point x="935.4995803526208" y="70.753332314954832"/>
      <point x="958.14864844687816" y="235.60462417678332"/>
      <point x="970.47382750152883" y="310.31802818784524" type="curve"/>
      <point x="1104.7352774517053" y="880.85747171854518" type="line"/>
      <point x="1010.6971520630623" y="880.87658679805861" type="line"/>
      <point x="875.79158153395497" y="310.16480207848832" type="line"/>
      <point x="853.88255026679963" y="179.87280939953013"/>
      <point x="863.85887833611366" y="-15.696183655479299"/>
      <point x="1036.5319400210653" y="-21.191276501251004" type="curve" smooth="yes"/>
      <point x="1295.9405029292232" y="-29.446612476988591"/>
      <point x="1401.1163996987789" y="316.09522443069022"/>
    </contour>
    <contour>
      <point x="548.15638572302839" y="419.5228493853906" type="curve" smooth="yes"/>
      <point x="578.44138578420836" y="586.17264291258891"/>
      <point x="664.36160673412189" y="904.98806642628426"/>
      <point x="888.60536150050541" y="897.32768850095044" type="curve" smooth="yes"/>
      <point x="952.04897898644981" y="895.16039475669891"/>
      <point x="999.27329874445741" y="866.53870079739681"/>
      <point x="1033.9117543585028" y="814.66354460593823" type="curve"/>
      <point x="1098.2338633317565" y="883.85186467157996" type="line"/>
      <point x="1036.7667630998619" y="947.23084396185345"/>
      <point x="975.53177707896361" y="989.58012164337742"/>
      <point x="883.83623671471719" y="991.34550704047047" type="curve" smooth="yes"/>
      <point x="614.36723446480835" y="996.53350898311135"/>
      <point x="484.39743457176138" y="630.57471588377632"/>
      <point x="447.65192352241456" y="419.80294624194335" type="curve" smooth="yes"/>
      <point x="423.97669807296325" y="284.0021634483968"/>
      <point x="395.08360518988184" y="-13.6397645861631"/>
      <point x="601.97025511146092" y="-21.517461628891869" type="curve" smooth="yes"/>
      <point x="786.56533032724406" y="-28.546354400276016"/>
      <point x="882.88561265196108" y="178.85628937893662"/>
      <point x="936.57009036278782" y="322.79251001454668" type="curve"/>
      <point x="901.21189739085219" y="383.10335435548734" type="line"/>
      <point x="857.41734742995311" y="272.32516411732547"/>
      <point x="783.85977174661832" y="67.983499601501535"/>
      <point x="630.76333041259443" y="77.997598973188943" type="curve" smooth="yes"/>
      <point x="487.66060320343047" y="87.358005512655424"/>
      <point x="532.6339685933666" y="334.10737623117325"/>
    </contour>
  </outline>
</glyph>
<glyph name="A" format="1">
  <advance width="1090.28"/>
  <unicode hex="0041"/>
  <outline>
    <contour>
      <point x="720.89875589746202" y="1606" type="move" name="top"/>
    </contour>
    <contour>
      <point x="458.93076189018177" y="0" type="move" name="bottom"/>
    </contour>
    <contour>
      <point x="941.0207618901818" y="0" type="move" name="right"/>
    </contour>
    <contour>
      <point x="434.67588224297469" y="1454" type="move" name="tonos"/>
    </contour>
    <contour>
      <point x="924.53076189018179" y="0" type="move" name="ogonek"/>
    </contour>
    <contour>
      <point x="1243.6620635163636" y="1600" type="move" name="top_dd"/>
    </contour>
    <contour>
      <point x="896.88846203902153" y="-407" type="move" name="bottom_dd"/>
    </contour>
    <contour>
      <point x="1244.698755897462" y="1606" type="move" name="top0315"/>
    </contour>
    <contour>
      <point x="700.51999737704671" y="1362.3048567305143" type="line"/>
      <point x="723.38576914929115" y="1455.787031903066" type="line"/>
      <point x="639.29212266860611" y="1455.7303459741399" type="line"/>
      <point x="-64.162598328774635" y="0.0" type="line"/>
      <point x="58.60166721752843" y="0.0" type="line"/>
    </contour>
    <contour>
      <point x="831.31098405757712" y="0.0" type="line"/>
      <point x="941.22477447428651" y="0.0" type="line"/>
      <point x="744.77741788330059" y="1456.0282148949045" type="line"/>
      <point x="666.68347085497487" y="1455.960854563768" type="line"/>
      <point x="656.64535334852496" y="1367.9627780326437" type="line"/>
    </contour>
    <contour>
      <point x="855.28897362131499" y="513.91283356067879" type="line"/>
      <point x="215.12460809993968" y="513.91755740513497" type="line"/>
      <point x="195.94583081860736" y="407.08531514397885" type="line"/>
      <point x="836.11019633999081" y="407.0805912995541" type="line"/>
    </contour>
  </outline>
</glyph>
<glyph name="B" format="1">
  <advance width="1065.06"/>
  <unicode hex="0042"/>
  <outline>
    <contour>
      <point x="672.46544827856019" y="1612" type="move" name="top"/>
    </contour>
    <contour>
      <point x="399.54858252534541" y="10" type="move" name="bottom"/>
    </contour>
    <contour>
      <point x="1218.4420635163638" y="1600" type="move" name="top_dd"/>
    </contour>
    <contour>
      <point x="871.66846203902173" y="-407" type="move" name="bottom_dd"/>
    </contour>
    <contour>
      <point x="1220.5154482785601" y="1612" type="move" name="top0315"/>
    </contour>
    <contour>
      <point x="604.3386460894335" y="699.78174333455718" type="line"/>
      <point x="672.24845883149305" y="736.76260427715272" type="line"/>
      <point x="853.90857191211376" y="765.70518284096329"/>
      <point x="980.51893371747644" y="897.00865362241893"/>
      <point x="996.75746100171091" y="1082.0138565728184" type="curve" smooth="yes"/>
      <point x="1016.9447808827915" y="1312.0075712891733"/>
      <point x="894.56912725159646" y="1448.9910762723448"/>
      <point x="665.36402687157079" y="1454.8802903633723" type="curve" smooth="yes"/>
      <point x="315.14890526698122" y="1456.0468225672123" type="line"/>
      <point x="62.305866104799051" y="0.0" type="line"/>
      <point x="175.7631788114586" y="0.0" type="line"/>
      <point x="410.05427511011828" y="1349.0531788825374" type="line"/>
      <point x="661.94773280752486" y="1348.0067466038161" type="line" smooth="yes"/>
      <point x="825.44841416681129" y="1342.9331772077421"/>
      <point x="898.86698335573612" y="1249.2234377286202"/>
      <point x="882.04969812931677" y="1087.5133310855401" type="curve" smooth="yes"/>
      <point x="863.57265466117644" y="909.84347358750119"/>
      <point x="740.34532658729722" y="804.74353247501665"/>
      <point x="563.74542558034432" y="803.67565940297675" type="curve" smooth="yes"/>
      <point x="284.10705270529417" y="804.96658418156983" type="line"/>
      <point x="267.22749836721272" y="700.06724470462029" type="line"/>
    </contour>
    <contour>
      <point x="475.36202183434443" y="0.0" type="line" smooth="yes"/>
      <point x="728.21800958396148" y="-2.4626578648956476"/>
      <point x="900.12301307719827" y="169.94855252737065"/>
      <point x="920.15404978018523" y="419.30665823909493" type="curve" smooth="yes"/>
      <point x="932.31352013475168" y="570.67488440885722"/>
      <point x="871.94893823383541" y="732.2221003648591"/>
      <point x="709.9574351725845" y="765.32421508921868" type="curve"/>
      <point x="695.1134405883497" y="803.70255316965074" type="line"/>
      <point x="404.12871632141253" y="805.04655405406118" type="line"/>
      <point x="383.29870914069659" y="700.2991632197743" type="line"/>
      <point x="603.61968857097577" y="698.63184371891634" type="line" smooth="yes"/>
      <point x="764.24622673809552" y="691.75748505676495"/>
      <point x="822.6607379715258" y="565.24375524793516"/>
      <point x="806.87657504774631" y="417.72357185539033" type="curve" smooth="yes"/>
      <point x="787.45628707021103" y="236.21984195749525"/>
      <point x="666.52730230253837" y="106.76570851404968"/>
      <point x="479.86330342618112" y="105.59522136570132" type="curve" smooth="yes"/>
      <point x="182.94435946682353" y="106.61296578087061" type="line"/>
      <point x="104.34030267567617" y="0.0" type="line"/>
    </contour>
  </outline>
</glyph>
<glyph name="C" format="1">
  <advance width="1123.26"/>
  <unicode hex="0043"/>
  <outline>
    <contour>
      <point x="750.7838716124038" y="1633" type="move" name="top"/>
    </contour>
    <contour>
      <point x="466.90294125501805" y="-10" type="move" name="bottom"/>
    </contour>
    <contour>
      <point x="1276.6420635163636" y="1600" type="move" name="top_dd"/>
    </contour>
    <contour>
      <point x="929.86846203902155" y="-407" type="move" name="bottom_dd"/>
    </contour>
    <contour>
      <point x="1282.3438716124037" y="1633" type="move" name="top0315"/>
    </contour>
    <contour>
      <point x="876.58268577133049" y="452.86550735482552" type="line"/>
      <point x="824.31030603286365" y="238.56878536065091"/>
      <point x="730.3676308883978" y="75.706876537135358"/>
      <point x="486.75281386709037" y="85.604256207131215" type="curve" smooth="yes"/>
      <point x="232.74351871641281" y="95.923934068081721"/>
      <point x="218.73951420401048" y="381.92171753246407"/>
      <point x="244.78098097202826" y="576.16451243315532" type="curve" smooth="yes"/>
      <point x="294.33875912968108" y="891.31731871565034" type="line" smooth="yes"/>
      <point x="329.24886881596495" y="1119.4284322763706"/>
      <point x="446.65304494674791" y="1377.6399494115446"/>
      <point x="715.40394032785878" y="1369.9025800632671" type="curve" smooth="yes"/>
      <point x="935.26501684976142" y="1363.5727542520917"/>
      <point x="977.41279320811509" y="1191.1825714841423"/>
      <point x="968.75034227786705" y="999.80879829104754" type="curve"/>
      <point x="1082.6052927179962" y="999.66158929949938" type="line"/>
      <point x="1096.0125076804622" y="1254.1727455890432"/>
      <point x="1003.6890873193496" y="1470.2955067488051"/>
      <point x="722.27736246346092" y="1476.676717668762" type="curve" smooth="yes"/>
      <point x="386.91039225270151" y="1484.2814021345482"/>
      <point x="224.46952974703711" y="1180.7839860257225"/>
      <point x="179.85599381511787" y="888.59835635725278" type="curve" smooth="yes"/>
      <point x="130.28732018582878" y="576.68883845063158" type="line" smooth="yes"/>
      <point x="95.475842307987051" y="315.42440966474533"/>
      <point x="159.01034057303946" y="-12.142134036975168"/>
      <point x="479.0737471952674" y="-21.173700510009105" type="curve" smooth="yes"/>
      <point x="779.8619558209507" y="-29.661358406227333"/>
      <point x="933.92023756709318" y="179.80921984196613"/>
      <point x="985.27943928396189" y="454.13014580535639" type="curve"/>
    </contour>
  </outline>
</glyph>
<glyph name="E" format="1">
  <advance width="988.43"/>
  <unicode hex="0045"/>
  <outline>
    <contour>
      <point x="824.5483821614457" y="106.91642050774904" type="line"/>
      <point x="162.0664800467976" y="106.92115971957834" type="line"/>
      <point x="142.89091388960725" y="0.0" type="line"/>
      <point x="805.3728160042516" y="0.0" type="line"/>
    </contour>
    <contour>
      <point x="428.8110919191854" y="1455.9426618485877" type="line"/>
      <point x="315.3487362665279" y="1455.9471667589585" type="line"/>
      <point x="62.305195590848186" y="0.0" type="line"/>
      <point x="175.76755124350433" y="0.0" type="line"/>
    </contour>
    <contour>
      <point x="862.8548395622664" y="803.916378052962" type="line"/>
      <point x="282.8259326367968" y="803.9210975849984" type="line"/>
      <point x="263.6476845665592" y="697.0825642353923" type="line"/>
      <point x="843.6765914920279" y="697.0778447033547" type="line"/>
    </contour>
    <contour>
      <point x="1053.415254044498" y="1455.9155705138983" type="line"/>
      <point x="395.7833665418152" y="1455.9203099403835" type="line"/>
      <point x="376.6077971256768" y="1349.0824528831683" type="line"/>
      <point x="1034.2396846283614" y="1349.0777134566947" type="line"/>
    </contour>
    <contour>
      <point x="698.65544827856" y="1612" type="move" name="top"/>
    </contour>
    <contour>
      <point x="421.85858252534535" y="10" type="move" name="bottom"/>
    </contour>
    <contour>
      <point x="1141.8120635163637" y="1600" type="move" name="top_dd"/>
    </contour>
    <contour>
      <point x="795.0384620390216" y="-407" type="move" name="bottom_dd"/>
    </contour>
    <contour>
      <point x="1143.88544827856" y="1612" type="move" name="top0315"/>
    </contour>
    <contour>
      <point x="698.65544827856" y="1612" type="move" name="parent_top"/>
    </contour>
  </outline>
</glyph>
<glyph name="F" format="1">
  <advance width="974.85"/>
  <unicode hex="0046"/>
  <outline>
    <contour>
      <point x="244.5883172951963" y="337" type="move" name="cross"/>
    </contour>
    <contour>
      <point x="698.65544827856002" y="1612" type="move" name="top"/>
    </contour>
    <contour>
      <point x="350.07858252534538" y="10" type="move" name="bottom"/>
    </contour>
    <contour>
      <point x="1128.2320635163637" y="1600" type="move" name="top_dd"/>
    </contour>
    <contour>
      <point x="781.45846203902158" y="-407" type="move" name="bottom_dd"/>
    </contour>
    <contour>
      <point x="1130.3054482785601" y="1612" type="move" name="top0315"/>
    </contour>
    <contour>
      <point x="428.81074765877543" y="1455.942365965989" type="line"/>
      <point x="315.34893494772319" y="1455.9468669987371" type="line"/>
      <point x="62.305531696945835" y="0.0" type="line"/>
      <point x="175.76734440799925" y="0.0" type="line"/>
    </contour>
    <contour>
      <point x="855.06295917147986" y="786.91580150249729" type="line"/>
      <point x="276.97309893459908" y="786.92051332484539" type="line"/>
      <point x="257.61573384406591" y="679.08321270329498" type="line"/>
      <point x="835.70559408094653" y="679.07850088094369" type="line"/>
    </contour>
    <contour>
      <point x="1052.4449670258257" y="1455.9150541466463" type="line"/>
      <point x="392.87311697434944" y="1455.9197878267917" type="line"/>
      <point x="373.69806626355529" y="1349.0830596645892" type="line"/>
      <point x="1033.2699163150266" y="1349.0783259844411" type="line"/>
    </contour>
  </outline>
</glyph>
<glyph name="G" format="1">
  <advance width="1179.52"/>
  <unicode hex="0047"/>
  <outline>
    <contour>
      <point x="755.63387161240371" y="1633" type="move" name="top"/>
    </contour>
    <contour>
      <point x="509.47685157259991" y="-5" type="move" name="bottom"/>
    </contour>
    <contour>
      <point x="1332.9020635163638" y="1600" type="move" name="top_dd"/>
    </contour>
    <contour>
      <point x="986.12846203902154" y="-407" type="move" name="bottom_dd"/>
    </contour>
    <contour>
      <point x="1338.6038716124037" y="1633" type="move" name="top0315"/>
    </contour>
    <contour>
      <point x="1043.7383753302295" y="692.84813591796205" type="line"/>
      <point x="621.52600341448101" y="692.93261868662717" type="line"/>
      <point x="602.53618705449128" y="587.08886734647899" type="line"/>
      <point x="913.45216554974763" y="586.92183324779478" type="line"/>
      <point x="846.20737341443623" y="207.62901600187868" type="line"/>
      <point x="754.06927942673565" y="128.74149585716461"/>
      <point x="645.62394452080605" y="84.56379377937634"/>
      <point x="522.76886407662221" y="86.589013432772177" type="curve" smooth="yes"/>
      <point x="262.13279401506128" y="90.885500721406061"/>
      <point x="225.28930895840259" y="357.06104300309266"/>
      <point x="252.70642123918338" y="564.96787084643552" type="curve" smooth="yes"/>
      <point x="306.12380517989669" y="903.31956339901478" type="line" smooth="yes"/>
      <point x="342.04297458865938" y="1138.4805836440551"/>
      <point x="458.10068854534973" y="1377.8980556719066"/>
      <point x="730.49542113490338" y="1369.4178105379783" type="curve" smooth="yes"/>
      <point x="927.0235308278111" y="1363.2994596797969"/>
      <point x="994.84871718651368" y="1226.2246030113765"/>
      <point x="991.41405962097656" y="1045.6205870728108" type="curve"/>
      <point x="1104.5533343604563" y="1045.4950699101682" type="line"/>
      <point x="1112.6542432640483" y="1290.1004115177295"/>
      <point x="994.42384986518027" y="1469.8208143382587"/>
      <point x="736.62951765110643" y="1476.1479676432768" type="curve" smooth="yes"/>
      <point x="396.57315467985416" y="1484.4941121158377"/>
      <point x="236.41467967738214" y="1201.3516875639966"/>
      <point x="191.4186052866624" y="900.63681919687133" type="curve" smooth="yes"/>
      <point x="138.33074322393134" y="565.68620237900518" type="line" smooth="yes"/>
      <point x="102.31069541660976" y="288.10570846844678"/>
      <point x="191.868573942247" y="-16.11750374701959"/>
      <point x="517.97995949226197" y="-21.06806872860879" type="curve" smooth="yes"/>
      <point x="683.64138207492965" y="-23.58290774919314"/>
      <point x="856.2974664209994" y="37.825277124596766"/>
      <point x="962.0769919259842" y="169.92896539130203" type="curve"/>
    </contour>
  </outline>
</glyph>
<glyph name="H" format="1">
  <advance width="1221.23"/>
  <unicode hex="0048"/>
  <outline>
    <contour>
      <point x="776.25544827856015" y="1612" type="move" name="top"/>
    </contour>
    <contour>
      <point x="948.78076189018179" y="0" type="move" name="right"/>
    </contour>
    <contour>
      <point x="134.49422843352374" y="1457" type="move" name="tonos"/>
    </contour>
    <contour>
      <point x="500.4285825253454" y="10" type="move" name="bottom"/>
    </contour>
    <contour>
      <point x="1374.6120635163638" y="1600" type="move" name="top_dd"/>
    </contour>
    <contour>
      <point x="1027.8384620390216" y="-407" type="move" name="bottom_dd"/>
    </contour>
    <contour>
      <point x="1376.68544827856" y="1612" type="move" name="top0315"/>
    </contour>
    <contour>
      <point x="997.70072132976748" y="803.9148691818782" type="line"/>
      <point x="289.59910798239554" y="803.91955163707416" type="line"/>
      <point x="270.42145963500172" y="697.08325232179914" type="line"/>
      <point x="978.52307298237292" y="697.07856986660147" type="line"/>
    </contour>
    <contour>
      <point x="428.81115337659003" y="1455.9404103851627" type="line"/>
      <point x="315.35054937952287" y="1455.9452274491966" type="line"/>
      <point x="62.305089069849075" y="0.0" type="line"/>
      <point x="175.76569306691448" y="0.0" type="line"/>
    </contour>
    <contour>
      <point x="1202.8707520822645" y="1455.9403817501207" type="line"/>
      <point x="1088.4401395610996" y="1455.9451960056881" type="line"/>
      <point x="835.3946803405812" y="0.0" type="line"/>
      <point x="949.82529286174804" y="0.0" type="line"/>
    </contour>
  </outline>
</glyph>
<glyph name="I" format="1">
  <advance width="485.0"/>
  <unicode hex="0049"/>
  <outline>
    <contour>
      <point x="418.32544827856009" y="1612" type="move" name="top"/>
    </contour>
    <contour>
      <point x="140.66467220776354" y="5" type="move" name="bottom"/>
    </contour>
    <contour>
      <point x="145.61588224297464" y="1454" type="move" name="tonos"/>
    </contour>
    <contour>
      <point x="193.15076189018174" y="0" type="move" name="right"/>
    </contour>
    <contour>
      <point x="175.69076189018176" y="0" type="move" name="ogonek"/>
    </contour>
    <contour>
      <point x="638.38206351636381" y="1600" type="move" name="top_dd"/>
    </contour>
    <contour>
      <point x="291.60846203902167" y="-407" type="move" name="bottom_dd"/>
    </contour>
    <contour>
      <point x="640.45544827856008" y="1612" type="move" name="top0315"/>
    </contour>
    <contour>
      <point x="449.18085825565322" y="1455.9398241778717" type="line"/>
      <point x="334.74741741653463" y="1455.9445749030419" type="line"/>
      <point x="81.70546639913853" y="0.0" type="line"/>
      <point x="196.13890723825705" y="0.0" type="line"/>
    </contour>
  </outline>
</glyph>
<glyph name="J" format="1">
  <advance width="958.36"/>
  <unicode hex="004A"/>
  <outline>
    <contour>
      <point x="660.1483423868641" y="433.4513746112653" type="line" smooth="yes"/>
      <point x="636.3273125885615" y="270.48585018000915"/>
      <point x="544.6895310723568" y="79.74583261534386"/>
      <point x="352.68602985168945" y="86.25653735720964" type="curve" smooth="yes"/>
      <point x="174.6725845003486" y="92.29284906713426"/>
      <point x="140.22901746567737" y="252.23122488847264"/>
      <point x="155.756597076135" y="401.849525909295" type="curve"/>
      <point x="41.67213459139158" y="402.0835069197202" type="line"/>
      <point x="19.351816622279088" y="184.3485498110545"/>
      <point x="100.24269824482033" y="-15.062661413814617"/>
      <point x="343.7304454901672" y="-21.554897322106914" type="curve" smooth="yes"/>
      <point x="605.3252480813937" y="-28.529930727357048"/>
      <point x="740.2000570848859" y="203.48069028925883"/>
      <point x="773.2612486869419" y="434.1615042391336" type="curve" smooth="yes"/>
      <point x="947.7919723060629" y="1455.9310352931332" type="line"/>
      <point x="834.3085479902045" y="1455.933460631925" type="line"/>
    </contour>
    <contour>
      <point x="900.6670249447164" y="1591" type="move" name="top"/>
    </contour>
    <contour>
      <point x="331.1029412550181" y="-10" type="move" name="bottom"/>
    </contour>
    <contour>
      <point x="1111.7420635163637" y="1600" type="move" name="top_dd"/>
    </contour>
    <contour>
      <point x="764.9684620390216" y="-407" type="move" name="bottom_dd"/>
    </contour>
    <contour>
      <point x="1110.1870249447165" y="1591" type="move" name="top0315"/>
    </contour>
    <contour>
      <point x="900.6670249447164" y="1591" type="move" name="parent_top"/>
    </contour>
  </outline>
</glyph>
<glyph name="K" format="1">
  <advance width="1090.28"/>
  <unicode hex="004B"/>
  <outline>
    <contour>
      <point x="458.74896824181815" y="100" type="move" name="bottom"/>
    </contour>
    <contour>
      <point x="895.57624887391989" y="-16" type="move" name="right"/>
    </contour>
    <contour>
      <point x="352.14991795179282" y="1229" type="move" name="cross"/>
    </contour>
    <contour>
      <point x="677.06078097570924" y="1560" type="move" name="top"/>
    </contour>
    <contour>
      <point x="1243.6620635163636" y="1600" type="move" name="top_dd"/>
    </contour>
    <contour>
      <point x="896.88846203902153" y="-407" type="move" name="bottom_dd"/>
    </contour>
    <contour>
      <point x="1236.7507809757092" y="1560" type="move" name="top0315"/>
    </contour>
    <contour>
      <point x="428.80836687841895" y="1455.9280464446845" type="line"/>
      <point x="315.34830566092927" y="1455.9317220986882" type="line"/>
      <point x="62.308826752303517" y="0.0" type="line"/>
      <point x="175.76888796979432" y="0.0" type="line"/>
    </contour>
    <contour>
      <point x="1163.5169057265355" y="1455.5965562834122" type="line"/>
      <point x="1014.2623431531117" y="1455.6159800964354" type="line"/>
      <point x="475.13413112919056" y="878.34786247379668" type="line"/>
      <point x="229.70270931183677" y="622.04576619783097" type="line"/>
      <point x="216.25072380576347" y="469.37415294314314" type="line"/>
      <point x="537.54895425706627" y="787.02211659175839" type="line"/>
    </contour>
    <contour>
      <point x="812.61969101863792" y="0.0" type="line"/>
      <point x="940.99502524779064" y="0.0" type="line"/>
      <point x="530.66419740311358" y="849.47693562093855" type="line"/>
      <point x="449.63598304371612" y="752.34009505018162" type="line"/>
    </contour>
  </outline>
</glyph>
<glyph name="L" format="1">
  <advance width="922.47"/>
  <unicode hex="004C"/>
  <outline>
    <contour>
      <point x="392.18694780142198" y="1573" type="move" name="top"/>
    </contour>
    <contour>
      <point x="423.79858252534541" y="10" type="move" name="bottom"/>
    </contour>
    <contour>
      <point x="647.27866430649101" y="1455" type="move" name="caron"/>
    </contour>
    <contour>
      <point x="538.17129698833094" y="773" type="move" name="dot"/>
    </contour>
    <contour>
      <point x="1075.8520635163636" y="1600" type="move" name="top_dd"/>
    </contour>
    <contour>
      <point x="729.07846203902159" y="-407" type="move" name="bottom_dd"/>
    </contour>
    <contour>
      <point x="1071.1869478014219" y="1573" type="move" name="top0315"/>
    </contour>
    <contour>
      <point x="777.01797976095679" y="106.91701018061538" type="line"/>
      <point x="163.03725572805502" y="106.92172086043642" type="line"/>
      <point x="143.86122636057382" y="0.0" type="line"/>
      <point x="757.84195039347912" y="0.0" type="line"/>
    </contour>
    <contour>
      <point x="429.78019946169513" y="1455.9396697659652" type="line"/>
      <point x="315.3489270823049" y="1455.9441501892122" type="line"/>
      <point x="62.306330922820635" y="0.0" type="line"/>
      <point x="176.73760330221029" y="0.0" type="line"/>
    </contour>
  </outline>
</glyph>
<glyph name="M" format="1">
  <advance width="1485.07"/>
  <unicode hex="004D"/>
  <outline>
    <contour>
      <point x="918.77875589746202" y="1606" type="move" name="top"/>
    </contour>
    <contour>
      <point x="1206.8007618901818" y="0" type="move" name="right"/>
    </contour>
    <contour>
      <point x="641.07858252534538" y="10" type="move" name="bottom"/>
    </contour>
    <contour>
      <point x="1638.452063516364" y="1600" type="move" name="top_dd"/>
    </contour>
    <contour>
      <point x="1291.6784620390217" y="-407" type="move" name="bottom_dd"/>
    </contour>
    <contour>
      <point x="1639.4887558974619" y="1606" type="move" name="top0315"/>
    </contour>
    <contour>
      <point x="351.60471546411821" y="1456.0240466892203" type="line"/>
      <point x="596.50172091836646" y="0.0" type="line"/>
      <point x="684.52782512430338" y="0.0" type="line"/>
      <point x="1434.2841737692936" y="1455.711524234574" type="line"/>
      <point x="1316.0564990003343" y="1455.7323835574914" type="line"/>
      <point x="666.56969984501291" y="180.1611573131093" type="line"/>
      <point x="460.9283376799259" y="1456.0266122983526" type="line"/>
    </contour>
    <contour>
      <point x="315.34266824276" y="1455.9297332525309" type="line"/>
      <point x="62.310240793942782" y="0.0" type="line"/>
      <point x="175.74922454679836" y="0.0" type="line"/>
      <point x="285.19785884791821" y="629.40643534971775" type="line"/>
      <point x="415.11661745526487" y="1455.9371276619634" type="line"/>
    </contour>
    <contour>
      <point x="1366.7372353877377" y="1455.9220106890516" type="line"/>
      <point x="1212.1147933045788" y="638.28916082184332" type="line"/>
      <point x="1101.158091557076" y="0.0" type="line"/>
      <point x="1214.638434148852" y="0.0" type="line"/>
      <point x="1467.6792693940017" y="1455.927812898841" type="line"/>
    </contour>
  </outline>
</glyph>
<glyph name="N" format="1">
  <advance width="1225.11"/>
  <unicode hex="004E"/>
  <outline>
    <contour>
      <point x="1206.7576435705676" y="1455.928569206189" type="line"/>
      <point x="1093.280731501429" y="1455.9306808477793" type="line"/>
      <point x="877.2154987889281" y="213.35507307396372" type="line"/>
      <point x="425.6605899134049" y="1456.0019994211139" type="line"/>
      <point x="315.18154400045927" y="1455.9505842416434" type="line"/>
      <point x="62.305338139168654" y="0.0" type="line"/>
      <point x="176.74310384627393" y="0.0" type="line"/>
      <point x="392.81140822199785" y="1242.5694660614927" type="line"/>
      <point x="843.4032704643629" y="0.0" type="line"/>
      <point x="953.8608970613591" y="0.0" type="line"/>
    </contour>
    <contour>
      <point x="784.918755897462" y="1606" type="move" name="top"/>
    </contour>
    <contour>
      <point x="506.24858252534534" y="10" type="move" name="bottom"/>
    </contour>
    <contour>
      <point x="1378.492063516364" y="1600" type="move" name="top_dd"/>
    </contour>
    <contour>
      <point x="1031.7184620390217" y="-407" type="move" name="bottom_dd"/>
    </contour>
    <contour>
      <point x="1379.528755897462" y="1606" type="move" name="top0315"/>
    </contour>
    <contour>
      <point x="784.918755897462" y="1606" type="move" name="parent_top"/>
    </contour>
  </outline>
</glyph>
<glyph name="O" format="2">
  <advance width="1172"/>
  <unicode hex="004F"/>
  <guideline x="0.0" y="901.0" angle="0.0" identifier="CSEfexVyVh"/>
  <guideline x="0.0" y="555.0" angle="0.0" identifier="brq844SUfT"/>
  <guideline x="748.0" y="0.0" angle="90.0" identifier="Bf6Z40P7Qv"/>
  <anchor x="760.6293585961419" y="1617" name="top"/>
  <anchor x="483.9779798266653" y="-1" name="bottom"/>
  <anchor x="1325.1420635163636" y="1600" name="top_dd"/>
  <anchor x="978.3684620390216" y="-407" name="bottom_dd"/>
  <anchor x="1328.079358596142" y="1617" name="top0315"/>
  <anchor x="760.6293585961419" y="1617" name="parent_top"/>
  <outline>
    <contour>
      <point x="1091.0542188061722" y="885.3140265166905" type="line" smooth="yes"/>
      <point x="1127.1787899528322" y="1161.252900928419"/>
      <point x="1052.6174541482587" y="1468.2678444836356"/>
      <point x="724.7530401596051" y="1476.342673814343" type="curve" smooth="yes"/>
      <point x="383.8341144844932" y="1484.7390170067758"/>
      <point x="220.35694567749977" y="1182.4135368592513"/>
      <point x="175.193658075227" y="884.5534256314118" type="curve" smooth="yes"/>
      <point x="125.4087025484602" y="569.6719146471997" type="line" smooth="yes"/>
      <point x="89.4313173110805" y="295.7733966051933"/>
      <point x="165.61914279282934" y="-13.13657543598211"/>
      <point x="491.48184983717624" y="-21.277857136678346" type="curve" smooth="yes"/>
      <point x="834.8177415677815" y="-29.85568501361365"/>
      <point x="994.9985349407793" y="271.0517596807197"/>
      <point x="1041.1375234807306" y="570.6482083261772" type="curve" smooth="yes"/>
    </contour>
    <contour>
      <point x="928.3530778204881" y="569.6515157618439" type="line" smooth="yes"/>
      <point x="892.7485421368298" y="331.61378653720016"/>
      <point x="777.8156463747184" y="79.15260164535583"/>
      <point x="499.3966886978177" y="88.26774426025742" type="curve" smooth="yes"/>
      <point x="238.62766258379202" y="96.8050467572258"/>
      <point x="212.57284207741026" y="361.57735427487364"/>
      <point x="239.27514425406355" y="568.9771071020617" type="curve" smooth="yes"/>
      <point x="288.60027129083903" y="887.3587527969248" type="line" smooth="yes"/>
      <point x="324.2136801322716" y="1122.6619810754862"/>
      <point x="442.54565528843705" y="1375.5891900390072"/>
      <point x="717.514735236581" y="1366.912315736227" type="curve" smooth="yes"/>
      <point x="980.4086533184006" y="1358.6164830462692"/>
      <point x="1005.4142287220809" y="1098.6361062739036"/>
      <point x="977.8517320897724" y="888.5530369678016" type="curve" smooth="yes"/>
    </contour>
  </outline>
</glyph>
<glyph name="P" format="1">
  <advance width="1070.8799999999999"/>
  <unicode hex="0050"/>
  <outline>
    <contour>
      <point x="174.71588224297466" y="1454" type="move" name="tonos"/>
    </contour>
    <contour>
      <point x="672.46544827856019" y="1612" type="move" name="top"/>
    </contour>
    <contour>
      <point x="349.10858252534541" y="10" type="move" name="bottom"/>
    </contour>
    <contour>
      <point x="1224.2620635163639" y="1600" type="move" name="top_dd"/>
    </contour>
    <contour>
      <point x="877.48846203902167" y="-407" type="move" name="bottom_dd"/>
    </contour>
    <contour>
      <point x="1226.3354482785601" y="1612" type="move" name="top0315"/>
    </contour>
    <contour>
      <point x="584.70221593243105" y="590.70029466740209" type="line" smooth="yes"/>
      <point x="854.26202492127936" y="590.41332075895457"/>
      <point x="1029.0797970067681" y="762.64838821567469"/>
      <point x="1054.1434370902182" y="1028.3635137594661" type="curve" smooth="yes"/>
      <point x="1076.0508597283597" y="1260.6176291733914"/>
      <point x="965.72946416084221" y="1447.5428826130064"/>
      <point x="718.68218540031364" y="1454.8461191329095" type="curve" smooth="yes"/>
      <point x="315.13767820771278" y="1455.9855656394852" type="line"/>
      <point x="62.30576867799563" y="0.0" type="line"/>
      <point x="175.76375112271586" y="0.0" type="line"/>
      <point x="410.0541978706533" y="1349.0402032492887" type="line"/>
      <point x="715.17610764327287" y="1347.7875589956336" type="line" smooth="yes"/>
      <point x="897.88915887800511" y="1340.56010052733"/>
      <point x="958.47729440196133" y="1192.0953032212046"/>
      <point x="939.96226616409012" y="1027.3100112286968" type="curve" smooth="yes"/>
      <point x="917.96098020657462" y="831.49673543232677"/>
      <point x="790.31615277161654" y="698.44944579822982"/>
      <point x="589.10772539528739" y="697.46324892161317" type="curve" smooth="yes"/>
      <point x="259.79256697397443" y="698.98318208227693" type="line"/>
      <point x="240.6089298416847" y="592.13357457396364" type="line"/>
    </contour>
  </outline>
</glyph>
<glyph name="Q" format="1">
  <advance width="1171.76"/>
  <unicode hex="0051"/>
  <outline>
    <contour>
      <point x="762.54206351636378" y="1600" type="move" name="top"/>
    </contour>
    <contour>
      <point x="482.42294125501803" y="-10" type="move" name="bottom"/>
    </contour>
    <contour>
      <point x="1325.1420635163636" y="1600" type="move" name="top_dd"/>
    </contour>
    <contour>
      <point x="978.36846203902155" y="-407" type="move" name="bottom_dd"/>
    </contour>
    <contour>
      <point x="1325.1420635163636" y="1600" type="move" name="top0315"/>
    </contour>
    <contour>
      <point x="669.749804499589" y="114.53243522852327" type="line"/>
      <point x="586.0398203768807" y="37.765055386912238" type="line"/>
      <point x="816.41532706498811" y="-255.56944434644106" type="line"/>
      <point x="902.33479742798363" y="-181.65612039501238" type="line"/>
    </contour>
    <contour>
      <point x="1087.1916110216293" y="885.31036676211318" type="line" smooth="yes"/>
      <point x="1123.3179951131397" y="1161.205064061955"/>
      <point x="1048.6735125824107" y="1468.2592187401697"/>
      <point x="720.88432322804942" y="1476.3316977466661" type="curve" smooth="yes"/>
      <point x="379.77364625632038" y="1484.7322456237021"/>
      <point x="215.5279611215424" y="1182.8491261417689"/>
      <point x="170.34900535406018" y="884.57085090153987" type="curve" smooth="yes"/>
      <point x="120.73160771715168" y="570.67395389270655" type="line" smooth="yes"/>
      <point x="84.776569399509881" y="296.94995884945843"/>
      <point x="160.53011335336998" y="-13.08553237324873"/>
      <point x="486.60273318543841" y="-21.266743220230904" type="curve" smooth="yes"/>
      <point x="830.82502807419291" y="-29.903332131521065"/>
      <point x="991.17906862400503" y="271.20909373029389"/>
      <point x="1037.4348415091365" y="571.66058729614485" type="curve" smooth="yes"/>
    </contour>
    <contour>
      <point x="924.65013413976249" y="570.64921485290188" type="line" smooth="yes"/>
      <point x="888.95286701430757" y="331.78776917679272"/>
      <point x="773.90524209143007" y="79.057636980327715"/>
      <point x="494.58310265421085" y="88.269268425870266" type="curve" smooth="yes"/>
      <point x="234.04200368874189" y="96.861528906625878"/>
      <point x="208.92167992582722" y="363.32589289726116"/>
      <point x="235.53040631118733" y="569.97840238635843" type="curve" smooth="yes"/>
      <point x="284.68940061565843" y="887.35413542743333" type="line" smooth="yes"/>
      <point x="320.23535279233033" y="1122.6240789006511"/>
      <point x="438.84042329402683" y="1375.5831199877803"/>
      <point x="713.67772350072062" y="1366.9213313094681" type="curve" smooth="yes"/>
      <point x="976.62390313419564" y="1358.6343038934594"/>
      <point x="1001.5453105318965" y="1098.6276029896248"/>
      <point x="973.97967423663317" y="888.52839026627123" type="curve" smooth="yes"/>
    </contour>
  </outline>
</glyph>
<glyph name="R" format="1">
  <advance width="1092.22"/>
  <unicode hex="0052"/>
  <outline>
    <contour>
      <point x="688.88875589746192" y="1606" type="move" name="top"/>
    </contour>
    <contour>
      <point x="413.12858252534534" y="10" type="move" name="bottom"/>
    </contour>
    <contour>
      <point x="1245.6020635163636" y="1600" type="move" name="top_dd"/>
    </contour>
    <contour>
      <point x="898.82846203902159" y="-407" type="move" name="bottom_dd"/>
    </contour>
    <contour>
      <point x="1246.638755897462" y="1606" type="move" name="top0315"/>
    </contour>
    <contour>
      <point x="313.19962561983488" y="1456.0123850105874" type="line"/>
      <point x="60.365859626894107" y="0.0" type="line"/>
      <point x="173.82395566685028" y="0.0" type="line"/>
      <point x="408.1118959502532" y="1349.0628402171351" type="line"/>
      <point x="690.01410737878393" y="1347.8862836763221" type="line" smooth="yes"/>
      <point x="870.74371839737262" y="1341.3427153561506"/>
      <point x="937.50918134870437" y="1203.3110479929458"/>
      <point x="918.71185711729811" y="1036.3189418397103" type="curve" smooth="yes"/>
      <point x="898.48654530578335" y="856.64084641335398"/>
      <point x="771.69551764669995" y="713.42249507843383"/>
      <point x="584.86213272777388" y="711.45677196605504" type="curve" smooth="yes"/>
      <point x="258.46875468404966" y="712.97862892987882" type="line"/>
      <point x="241.24256761361676" y="606.08681662628953" type="line"/>
      <point x="654.20514526677607" y="605.4412421276254" type="line"/>
      <point x="694.10092158227962" y="621.8013609408481" type="line"/>
      <point x="887.38632516103701" y="686.22371216807664"/>
      <point x="1012.7271086009163" y="825.78515757166565"/>
      <point x="1032.5416842729237" y="1034.6656254035759" type="curve" smooth="yes"/>
      <point x="1054.9395022013412" y="1270.7780087694837"/>
      <point x="939.44248269447803" y="1447.1262370697018"/>
      <point x="693.08694822100188" y="1454.6396154677325" type="curve" smooth="yes"/>
    </contour>
    <contour>
      <point x="787.29425779817439" y="0.0" type="line"/>
      <point x="908.87987976199281" y="0.0" type="line"/>
      <point x="910.13502939442981" y="13.428464048246934" type="line"/>
      <point x="712.48972226613751" y="652.043561428055" type="line"/>
      <point x="597.91602361786556" y="651.09333298376032" type="line"/>
    </contour>
  </outline>
</glyph>
<glyph name="S" format="1">
  <advance width="1027.23"/>
  <unicode hex="0053"/>
  <outline>
    <contour>
      <point x="705.33935859614189" y="1617" type="move" name="top"/>
    </contour>
    <contour>
      <point x="427.99685157259989" y="-5" type="move" name="bottom"/>
    </contour>
    <contour>
      <point x="1180.6120635163638" y="1600" type="move" name="top_dd"/>
    </contour>
    <contour>
      <point x="833.83846203902158" y="-407" type="move" name="bottom_dd"/>
    </contour>
    <contour>
      <point x="1183.5493585961419" y="1617" type="move" name="top0315"/>
    </contour>
    <contour>
      <point x="788.05809534360526" y="366.70304419179786" type="curve" smooth="yes"/>
      <point x="767.08064101488731" y="189.99326560222795"/>
      <point x="619.6722958517073" y="82.501453943033411"/>
      <point x="446.3119812380304" y="86.361337663547275" type="curve" smooth="yes"/>
      <point x="250.76917861164756" y="90.715116567347692"/>
      <point x="154.88003593208657" y="230.07203504810371"/>
      <point x="173.5830016856936" y="416.92946556268231" type="curve"/>
      <point x="59.760828977439488" y="417.1967381035156" type="line"/>
      <point x="36.842701389692422" y="170.02002736789129"/>
      <point x="187.32125622362602" y="-14.931310723236006"/>
      <point x="439.89240221490411" y="-20.632289567129469" type="curve" smooth="yes"/>
      <point x="678.11041021118194" y="-26.009292623005543"/>
      <point x="881.9114565558657" y="124.46933208709825"/>
      <point x="903.23289991969682" y="369.11407727072401" type="curve" smooth="yes"/>
      <point x="923.43274586158145" y="600.88948191260329"/>
      <point x="775.86689736894778" y="716.15033388181769"/>
      <point x="577.315138010841" y="793.99365614325632" type="curve" smooth="yes"/>
      <point x="438.24078858340044" y="848.51852883025401"/>
      <point x="309.54847544116171" y="926.62275973272494"/>
      <point x="328.90099569249719" y="1094.0051257517491" type="curve" smooth="yes"/>
      <point x="348.63561066895841" y="1264.6922767964097"/>
      <point x="489.88016504835042" y="1373.2141789342274"/>
      <point x="658.59834938820927" y="1369.1974251716033" type="curve" smooth="yes"/>
      <point x="846.51155326108051" y="1364.7236864832905"/>
      <point x="916.77504224708878" y="1209.5761358191353"/>
      <point x="899.89347813280426" y="1041.0623219084848" type="curve"/>
      <point x="1012.9824784000787" y="1040.8770294846308" type="line"/>
      <point x="1035.1771988502837" y="1269.529617697749"/>
      <point x="910.43123667185387" y="1469.9660275883218"/>
      <point x="666.31241099125964" y="1476.1237854604594" type="curve" smooth="yes"/>
      <point x="434.77239704191595" y="1481.9642499950419"/>
      <point x="234.70180628349965" y="1327.080705725029"/>
      <point x="214.60847450636567" y="1090.891717359618" type="curve" smooth="yes"/>
      <point x="195.65278558624868" y="868.07526066293485"/>
      <point x="348.90785407573321" y="758.96550479345638"/>
      <point x="536.27844722003533" y="683.04815543579639" type="curve" smooth="yes"/>
      <point x="687.64618834829616" y="621.71815966712222"/>
      <point x="809.4508872363873" y="546.91154135015222"/>
    </contour>
  </outline>
</glyph>
<glyph name="T" format="1">
  <advance width="1034.99"/>
  <unicode hex="0054"/>
  <outline>
    <contour>
      <point x="690.13762764339651" y="1602" type="move" name="top"/>
    </contour>
    <contour>
      <point x="415.28076189018168" y="0" type="move" name="bottom"/>
    </contour>
    <contour>
      <point x="467.66076189018179" y="0" type="move" name="right"/>
    </contour>
    <contour>
      <point x="566.08010603864727" y="884" type="move" name="cross"/>
    </contour>
    <contour>
      <point x="1188.3720635163636" y="1600" type="move" name="top_dd"/>
    </contour>
    <contour>
      <point x="841.59846203902157" y="-407" type="move" name="bottom_dd"/>
    </contour>
    <contour>
      <point x="1188.7176276433966" y="1602" type="move" name="top0315"/>
    </contour>
    <contour>
      <point x="723.69082396420606" y="1455.9398124407428" type="line"/>
      <point x="610.22728047204384" y="1455.9446677422309" type="line"/>
      <point x="357.1844429366331" y="0.0" type="line"/>
      <point x="470.64798642879578" y="0.0" type="line"/>
    </contour>
    <contour>
      <point x="1125.2082659419161" y="1455.9162396960987" type="line"/>
      <point x="208.56157439120096" y="1455.9209440267141" type="line"/>
      <point x="189.38364755081096" y="1349.0820296770721" type="line"/>
      <point x="1106.0303391015273" y="1349.0773253464602" type="line"/>
    </contour>
  </outline>
</glyph>
<glyph name="U" format="1">
  <advance width="1132.96"/>
  <unicode hex="0055"/>
  <outline>
    <contour>
      <point x="747.08875589746197" y="1606" type="move" name="top"/>
    </contour>
    <contour>
      <point x="463.78076189018168" y="0" type="move" name="bottom"/>
    </contour>
    <contour>
      <point x="584.06076189018177" y="0" type="move" name="right"/>
    </contour>
    <contour>
      <point x="686.82926236731987" y="39" type="move" name="ogonek"/>
    </contour>
    <contour>
      <point x="1286.3420635163639" y="1600" type="move" name="top_dd"/>
    </contour>
    <contour>
      <point x="939.5684620390216" y="-407" type="move" name="bottom_dd"/>
    </contour>
    <contour>
      <point x="1287.3787558974618" y="1606" type="move" name="top0315"/>
    </contour>
    <contour>
      <point x="1024.3870219386615" y="1455.9385183214433" type="line"/>
      <point x="849.94793466708563" y="429.38685491882438" type="line" smooth="yes"/>
      <point x="820.49468259949617" y="223.0925698706385"/>
      <point x="699.30703011969513" y="78.632062087749617"/>
      <point x="480.53031160910098" y="85.838682948376729" type="curve" smooth="yes"/>
      <point x="275.67789706537286" y="92.586629869105295"/>
      <point x="214.37406362532707" y="241.46620419646581"/>
      <point x="235.44568365665236" y="428.71391438012648" type="curve"/>
      <point x="409.34673570686687" y="1455.9225945444111" type="line"/>
      <point x="295.97799533116239" y="1455.9321811989557" type="line"/>
      <point x="121.59398690788511" y="429.73440322195739" type="line"/>
      <point x="92.684270441804117" y="176.47589824056095"/>
      <point x="204.19270253591469" y="-16.097162641976311"/>
      <point x="472.4885834915051" y="-22.194663351149849" type="curve" smooth="yes"/>
      <point x="756.82576794367446" y="-28.656731190829014"/>
      <point x="923.83410378935196" y="162.48944681307307"/>
      <point x="962.59380215699321" y="431.82286771299528" type="curve" smooth="yes"/>
      <point x="1138.1142003150267" y="1455.9530693391589" type="line"/>
    </contour>
  </outline>
</glyph>
<glyph name="V" format="1">
  <advance width="1074.76"/>
  <unicode hex="0056"/>
  <outline>
    <contour>
      <point x="696.01993317227846" y="1612" type="move" name="top"/>
    </contour>
    <contour>
      <point x="447.39780575924476" y="10" type="move" name="bottom"/>
    </contour>
    <contour>
      <point x="1211.1603292216187" y="1600" type="move" name="top_dd"/>
    </contour>
    <contour>
      <point x="898.46906847382957" y="-407" type="move" name="bottom_dd"/>
    </contour>
    <contour>
      <point x="1213.0299331722781" y="1612" type="move" name="top0315"/>
    </contour>
    <contour>
      <point x="475.3377444281524" y="186.9797003911801" type="line"/>
      <point x="403.54831674339221" y="0.0" type="line"/>
      <point x="499.22872612968035" y="0.0" type="line"/>
      <point x="1168.6767404629495" y="1455.7601949985806" type="line"/>
      <point x="1040.8632295000739" y="1455.8030381438555" type="line"/>
    </contour>
    <contour>
      <point x="299.31411552391012" y="1456.0201872165892" type="line"/>
      <point x="179.22276472842952" y="1456.0209568235161" type="line"/>
      <point x="392.94104358380861" y="0.0" type="line"/>
      <point x="480.43908831337478" y="0.0" type="line"/>
      <point x="468.82173643195995" y="176.03987535696433" type="line"/>
    </contour>
  </outline>
</glyph>
<glyph name="W" format="1">
  <advance width="1531.6299999999999"/>
  <unicode hex="0057"/>
  <outline>
    <contour>
      <point x="929.82513119694875" y="1606" type="move" name="top"/>
    </contour>
    <contour>
      <point x="680.19780575924483" y="10" type="move" name="bottom"/>
    </contour>
    <contour>
      <point x="1668.030329221619" y="1600" type="move" name="top_dd"/>
    </contour>
    <contour>
      <point x="1355.3390684738297" y="-407" type="move" name="bottom_dd"/>
    </contour>
    <contour>
      <point x="1668.9651311969487" y="1606" type="move" name="top0315"/>
    </contour>
    <contour>
      <point x="434.36928719081652" y="385.97521904470523" type="line"/>
      <point x="294.21487299970249" y="0.0" type="line"/>
      <point x="383.28068503537327" y="0.0" type="line"/>
      <point x="830.41052448385642" y="1130.221204909371" type="line"/>
      <point x="948.77937545216457" y="1455.7075033132519" type="line"/>
      <point x="852.57757830716969" y="1455.4698142593431" type="line"/>
    </contour>
    <contour>
      <point x="316.3967248104347" y="1456.0178664234331" type="line"/>
      <point x="202.93588331936178" y="1456.0083142075368" type="line"/>
      <point x="275.82304655522563" y="0.0" type="line"/>
      <point x="363.43395340599818" y="0.0" type="line"/>
      <point x="361.53550063015899" y="392.16700841371801" type="line"/>
    </contour>
    <contour>
      <point x="1116.9331409260967" y="401.73529218389535" type="line"/>
      <point x="986.9135743654241" y="0.0" type="line"/>
      <point x="1079.5965251079842" y="0.0" type="line"/>
      <point x="1607.6484585580415" y="1455.8197663196929" type="line"/>
      <point x="1489.58443505688" y="1455.8373850349374" type="line"/>
    </contour>
    <contour>
      <point x="955.54497440452917" y="1456.0117253118078" type="line"/>
      <point x="869.25495072431136" y="1456.0109948651209" type="line"/>
      <point x="886.37564778543924" y="1117.0179896466561" type="line"/>
      <point x="972.12767039453786" y="0.0" type="line"/>
      <point x="1055.698200413025" y="0.0" type="line"/>
      <point x="1038.1394819953243" y="377.63554958899795" type="line"/>
    </contour>
  </outline>
</glyph>
<glyph name="X" format="1">
  <advance width="1065.06"/>
  <unicode hex="0058"/>
  <outline>
    <contour>
      <point x="456.12780575924478" y="10" type="move" name="bottom"/>
    </contour>
    <contour>
      <point x="833.83980246702856" y="0" type="move" name="right"/>
    </contour>
    <contour>
      <point x="556.09104773713477" y="745" type="move" name="cross"/>
    </contour>
    <contour>
      <point x="712.50993317227847" y="1612" type="move" name="top"/>
    </contour>
    <contour>
      <point x="1201.4603292216188" y="1600" type="move" name="top_dd"/>
    </contour>
    <contour>
      <point x="888.76906847382975" y="-407" type="move" name="bottom_dd"/>
    </contour>
    <contour>
      <point x="1203.3299331722783" y="1612" type="move" name="top0315"/>
    </contour>
    <contour>
      <point x="340.39020582457164" y="1455.9894117673375" type="line"/>
      <point x="212.49825197662807" y="1455.9834870567295" type="line"/>
      <point x="488.59791890822225" y="744.96933996425491" type="line"/>
      <point x="-33.469796532425384" y="0.0" type="line"/>
      <point x="107.67443754658365" y="0.0" type="line"/>
      <point x="542.01516005416681" y="630.68857085009301" type="line"/>
      <point x="777.66482947919496" y="0.0" type="line"/>
      <point x="905.56460448190205" y="0.0" type="line"/>
      <point x="622.21980397145433" y="733.0314561676521" type="line"/>
      <point x="1128.223996310338" y="1455.6603336430001" type="line"/>
      <point x="987.25424888754549" y="1455.6799442316553" type="line"/>
      <point x="568.44573992779021" y="845.49093766208875" type="line"/>
    </contour>
  </outline>
</glyph>
<glyph name="Y" format="1">
  <advance width="1038.87"/>
  <unicode hex="0059"/>
  <outline>
    <contour>
      <point x="692.87484557988012" y="1601" type="move" name="top"/>
    </contour>
    <contour>
      <point x="416.14467220776351" y="5" type="move" name="bottom"/>
    </contour>
    <contour>
      <point x="515.90661523780363" y="588" type="move" name="cross"/>
    </contour>
    <contour>
      <point x="112.63588224297466" y="1454" type="move" name="tonos"/>
    </contour>
    <contour>
      <point x="1192.2520635163637" y="1600" type="move" name="top_dd"/>
    </contour>
    <contour>
      <point x="845.47846203902168" y="-407" type="move" name="bottom_dd"/>
    </contour>
    <contour>
      <point x="1192.4248455798802" y="1601" type="move" name="top0315"/>
    </contour>
    <contour>
      <point x="314.60847866640898" y="1456.0281042257493" type="line"/>
      <point x="188.4190361168948" y="1456.0064233228907" type="line"/>
      <point x="453.1364194614614" y="555.41225422272782" type="line"/>
      <point x="356.21329771847604" y="0.0" type="line"/>
      <point x="470.61801727949216" y="0.0" type="line"/>
      <point x="564.64764474813228" y="541.3071689827367" type="line"/>
      <point x="1151.7037963216426" y="1455.6772240715698" type="line"/>
      <point x="1014.6614648075599" y="1455.7005980454758" type="line"/>
      <point x="526.4662964914894" y="668.07510610809504" type="line"/>
    </contour>
  </outline>
</glyph>
<glyph name="Z" format="1">
  <advance width="1037.8999999999999"/>
  <unicode hex="005A"/>
  <outline>
    <contour>
      <point x="864.3193939615164" y="106.91407821512793" type="line"/>
      <point x="47.60749053652252" y="106.91880957360503" type="line"/>
      <point x="28.428603577303434" y="0.0" type="line"/>
      <point x="845.1405070022948" y="0.0" type="line"/>
    </contour>
    <contour>
      <point x="1056.525112483448" y="1365.9034463651976" type="line"/>
      <point x="1069.1079533271209" y="1455.3888184124685" type="line"/>
      <point x="994.7932265032734" y="1455.0006866127615" type="line"/>
      <point x="5.648120910114599" y="101.21962449861591" type="line"/>
      <point x="-10.10817815356691" y="0.0" type="line"/>
      <point x="63.08699109498882" y="0.0" type="line"/>
    </contour>
    <contour>
      <point x="1024.3148951278265" y="1455.9164842400876" type="line"/>
      <point x="259.016488884121" y="1455.9212140093878" type="line"/>
      <point x="239.8363319639306" y="1349.080885593034" type="line"/>
      <point x="1005.1347382076378" y="1349.0761558237411" type="line"/>
    </contour>
    <contour>
      <point x="692.7687558974619" y="1606" type="move" name="top"/>
    </contour>
    <contour>
      <point x="426.7085825253454" y="10" type="move" name="bottom"/>
    </contour>
    <contour>
      <point x="1191.282063516364" y="1600" type="move" name="top_dd"/>
    </contour>
    <contour>
      <point x="844.5084620390217" y="-407" type="move" name="bottom_dd"/>
    </contour>
    <contour>
      <point x="1192.3187558974619" y="1606" type="move" name="top0315"/>
    </contour>
  </outline>
</glyph>
<glyph name="bracketleft" format="1">
  <advance width="447.17"/>
  <unicode hex="005B"/>
  <outline>
    <contour>
      <point x="593.87773777517282" y="1663.9535211546697" type="line"/>
      <point x="315.4423866117848" y="1663.9501566239071" type="line"/>
      <point x="6.523870120894955" y="-311.94791323623286" type="line"/>
      <point x="284.81103215764256" y="-311.96003393484722" type="line"/>
      <point x="301.52034376719382" y="-208.07557444731094" type="line"/>
      <point x="133.43428618769255" y="-207.95168727316604" type="line"/>
      <point x="409.63269474144136" y="1559.9430238094444" type="line"/>
      <point x="577.16773724441748" y="1560.0701539884817" type="line"/>
    </contour>
  </outline>
</glyph>
<glyph name="backslash" format="1">
  <advance width="701.31"/>
  <unicode hex="005C"/>
  <outline>
    <contour>
      <point x="429.32570369456437" y="-125.02640952738614" type="line"/>
      <point x="531.25632344631026" y="-125.02495802335169" type="line"/>
      <point x="309.79527222722709" y="1456.0215943940382" type="line"/>
      <point x="207.85977656466804" y="1456.0351510787389" type="line"/>
    </contour>
  </outline>
</glyph>
<glyph name="asciicircum" format="1">
  <advance width="734.29"/>
  <unicode hex="005E"/>
  <outline>
    <contour>
      <point x="500.78083454282682" y="1321.9029463224131" type="line"/>
      <point x="542.00640310917811" y="1455.2159507948725" type="line"/>
      <point x="468.58201081316565" y="1455.021058700499" type="line"/>
      <point x="98.842977629757414" y="729.27983697310901" type="line"/>
      <point x="209.1507466335666" y="729.25238312737133" type="line"/>
    </contour>
    <contour>
      <point x="566.61517727754813" y="728.97634503589939" type="line"/>
      <point x="667.49495158304103" y="728.96848176998571" type="line"/>
      <point x="548.92550486766379" y="1456.7324668769086" type="line"/>
      <point x="478.04916388534775" y="1456.5607609670712" type="line"/>
      <point x="478.69877780579213" y="1335.1025097498705" type="line"/>
    </contour>
  </outline>
</glyph>
<glyph name="underscore" format="1">
  <advance width="765.3299999999999"/>
  <unicode hex="005F"/>
  <outline>
    <contour>
      <point x="302.72754586225085" y="157" type="move" name="_bottom"/>
    </contour>
    <contour>
      <point x="643.04274581892821" y="0.0" type="line"/>
      <point x="-83.458491575763304" y="0.0" type="line"/>
      <point x="-102.09962925842343" y="-103.91694222975336" type="line"/>
      <point x="624.40160813626801" y="-103.92166401953217" type="line"/>
    </contour>
  </outline>
</glyph>
<glyph name="grave" format="1">
  <advance width="567.4499999999999"/>
  <unicode hex="0060"/>
  <outline>
    <contour>
      <point x="384.1351000651441" y="1535.9140609193887" type="line"/>
      <point x="249.24328397072924" y="1535.905606823829" type="line"/>
      <point x="426.0102221763111" y="1256.1108671206423" type="line"/>
      <point x="526.0453888198391" y="1256.0565141478414" type="line"/>
    </contour>
    <contour>
      <point x="508.7597269170676" y="1593" type="move" name="mkmktop_acc"/>
    </contour>
  </outline>
</glyph>
<glyph name="a" format="1">
  <advance width="936.05"/>
  <unicode hex="0061"/>
  <outline>
    <contour>
      <point x="611.18240588980734" y="1291" type="move" name="top"/>
    </contour>
    <contour>
      <point x="326.04076189018173" y="0" type="move" name="bottom"/>
    </contour>
    <contour>
      <point x="693.67076189018178" y="0" type="move" name="ogonek"/>
    </contour>
    <contour>
      <point x="706.56067493706189" y="1276" type="move" name="rhalfring"/>
    </contour>
    <contour>
      <point x="1089.4320635163638" y="1600" type="move" name="top_dd"/>
    </contour>
    <contour>
      <point x="742.65846203902163" y="-407" type="move" name="bottom_dd"/>
    </contour>
    <contour>
      <point x="744.5902314298836" y="654" type="move" name="rhotichook"/>
    </contour>
    <contour>
      <point x="1036.0424058898075" y="1291" type="move" name="top0315"/>
    </contour>
    <contour>
      <point x="608.39605463164833" y="193.842702774087" type="line" smooth="yes"/>
      <point x="599.13808874707934" y="129.6904889825106"/>
      <point x="593.65925244778543" y="64.221576655056012"/>
      <point x="601.24392461403102" y="-0.34588352618458468" type="curve"/>
      <point x="712.92448191954054" y="0.0" type="line"/>
      <point x="714.67955148687975" y="13.204508282236345" type="line"/>
      <point x="714.01067794844619" y="85.903600327940865"/>
      <point x="711.05135227411154" y="153.75981316190786"/>
      <point x="722.85067677728534" y="226.66460120958328" type="curve" smooth="yes"/>
      <point x="813.7641819223461" y="780.1529430976841" type="line"/>
      <point x="832.76862370873641" y="974.14478234457852"/>
      <point x="733.39173723363649" y="1099.9679442390755"/>
      <point x="535.63367353391322" y="1103.451964596369" type="curve" smooth="yes"/>
      <point x="343.91583805111992" y="1106.8295706933445"/>
      <point x="181.77374459938429" y="974.95757644555681"/>
      <point x="155.21064737044333" y="784.59088095515176" type="curve"/>
      <point x="263.74373200711722" y="784.260088071631" type="line"/>
      <point x="290.60543324348743" y="913.49552860411768"/>
      <point x="387.7052256396089" y="1001.5534017339935"/>
      <point x="523.36643368054399" y="999.49169994202327" type="curve" smooth="yes"/>
      <point x="660.54391278201228" y="997.40695472586606"/>
      <point x="715.67963920066347" y="916.34706646759787"/>
      <point x="702.77481900539101" y="784.85575785495928" type="curve"/>
    </contour>
    <contour>
      <point x="708.51133680821135" y="630.97891550109603" type="line"/>
      <point x="498.5180152819255" y="632.14550308344951" type="line" smooth="yes"/>
      <point x="275.0876336055502" y="631.83659585685621"/>
      <point x="65.436691623879554" y="519.2309894231214"/>
      <point x="48.167046927871567" y="276.75839798493365" type="curve" smooth="yes"/>
      <point x="36.19837044626879" y="108.71348138914777"/>
      <point x="121.8554893410415" y="-20.225529489455941"/>
      <point x="298.66723630482113" y="-22.803875675350405" type="curve" smooth="yes"/>
      <point x="470.37736678683046" y="-25.307827859581828"/>
      <point x="610.0543988696129" y="99.295981958744818"/>
      <point x="666.39541627760354" y="254.88942351968572" type="curve"/>
      <point x="645.40598748886373" y="321.93779410424645" type="line"/>
      <point x="587.8435311427171" y="187.63062231984389"/>
      <point x="470.68316532832341" y="82.943204124486442"/>
      <point x="317.49131213049611" y="86.119327037157277" type="curve" smooth="yes"/>
      <point x="196.2230418200939" y="88.633579093468924"/>
      <point x="149.88792597506409" y="171.63709382902428"/>
      <point x="161.08587583476378" y="285.81169702086862" type="curve" smooth="yes"/>
      <point x="179.03153841980256" y="468.78616380567343"/>
      <point x="347.11322510554294" y="537.901085528257"/>
      <point x="511.40662789974169" y="538.48361665934476" type="curve" smooth="yes"/>
      <point x="693.94887426548598" y="537.1916861958988" type="line"/>
    </contour>
  </outline>
</glyph>
<glyph name="b" format="1">
  <advance width="966.12"/>
  <unicode hex="0062"/>
  <outline>
    <contour>
      <point x="691.86544827856005" y="1612" type="move" name="top"/>
    </contour>
    <contour>
      <point x="397.06294125501807" y="-10" type="move" name="bottom"/>
    </contour>
    <contour>
      <point x="1119.5020635163637" y="1600" type="move" name="top_dd"/>
    </contour>
    <contour>
      <point x="772.72846203902168" y="-407" type="move" name="bottom_dd"/>
    </contour>
    <contour>
      <point x="1121.5754482785601" y="1612" type="move" name="top0315"/>
    </contour>
    <contour>
      <point x="304.95529610191079" y="1535.9315324008614" type="line"/>
      <point x="38.044432711526824" y="0.0" type="line"/>
      <point x="141.0932360851466" y="0.0" type="line"/>
      <point x="184.45987381016198" y="203.6376202541467" type="line"/>
      <point x="415.52343647633381" y="1535.9291677058834" type="line"/>
    </contour>
    <contour>
      <point x="858.08965757591432" y="591.35915430466889" type="line" smooth="yes"/>
      <point x="882.94706734595763" y="805.91746159183003"/>
      <point x="870.36675650007533" y="1096.3491249925448"/>
      <point x="593.02199704570126" y="1103.2355256507988" type="curve" smooth="yes"/>
      <point x="365.63437463959337" y="1108.8815031543825"/>
      <point x="236.45902183456099" y="893.91667214448762"/>
      <point x="196.80970244050411" y="693.91544868578524" type="curve" smooth="yes"/>
      <point x="148.08515176383372" y="369.92039963665837" type="line"/>
      <point x="136.55316040349555" y="182.47643470596944"/>
      <point x="224.6652671342427" y="-13.888015930902789"/>
      <point x="432.02601606551093" y="-21.031959793471657" type="curve" smooth="yes"/>
      <point x="718.34085685925834" y="-30.896011501390824"/>
      <point x="813.37401570605141" y="256.60550906591402"/>
      <point x="845.01067781250879" y="491.48683750340024" type="curve" smooth="yes"/>
    </contour>
    <contour>
      <point x="734.7896702128877" y="489.64719501550866" type="line" smooth="yes"/>
      <point x="710.96555288399941" y="304.77974635091408"/>
      <point x="643.7390733646215" y="76.544192458683142"/>
      <point x="416.39759098437162" y="85.667151959102412" type="curve" smooth="yes"/>
      <point x="280.10665091174053" y="91.136354999122261"/>
      <point x="182.83052331591617" y="206.16865596758484"/>
      <point x="186.82343279521677" y="342.64583307911937" type="curve"/>
      <point x="246.77502393625616" y="714.61198201428931" type="line"/>
      <point x="283.72926575725603" y="862.04477222237165"/>
      <point x="403.55337899079268" y="1001.522909649269"/>
      <point x="564.39253453633171" y="998.17050715265952" type="curve" smooth="yes"/>
      <point x="780.33882765021667" y="993.66949563147205"/>
      <point x="765.34159125866302" y="749.0943296017997"/>
      <point x="747.35827682692764" y="592.27693536069546" type="curve" smooth="yes"/>
    </contour>
  </outline>
</glyph>
<glyph name="c" format="1">
  <advance width="901.13"/>
  <unicode hex="0063"/>
  <outline>
    <contour>
      <point x="565.34222716291708" y="1290" type="move" name="top"/>
    </contour>
    <contour>
      <point x="362.8017991748124" y="-10" type="move" name="bottom"/>
    </contour>
    <contour>
      <point x="565.34222716291708" y="1290" type="move" name="marktop"/>
    </contour>
    <contour>
      <point x="1037.530329221619" y="1600" type="move" name="top_dd"/>
    </contour>
    <contour>
      <point x="724.83906847382968" y="-407" type="move" name="bottom_dd"/>
    </contour>
    <contour>
      <point x="989.23222716291718" y="1290" type="move" name="top0315"/>
    </contour>
    <contour>
      <point x="389.27836333939047" y="81.897145536426862" type="curve" smooth="yes"/>
      <point x="169.52793345634814" y="89.518651922055611"/>
      <point x="167.68486218456354" y="308.40325587458449"/>
      <point x="187.78467009748078" y="479.17485806302557" type="curve" smooth="yes"/>
      <point x="203.64962327004451" y="602.30744360790311" type="line" smooth="yes"/>
      <point x="229.68497579970551" y="796.02978869991523"/>
      <point x="309.45753317040106" y="1007.3887992672982"/>
      <point x="540.33420052583949" y="998.49345101021765" type="curve" smooth="yes"/>
      <point x="700.3581185655222" y="992.32795799296946"/>
      <point x="738.60294893265745" y="855.18009807858414"/>
      <point x="730.45851209335626" y="716.80542439653914" type="curve"/>
      <point x="835.60361125022609" y="716.54220377513491" type="line"/>
      <point x="848.54817129340825" y="915.90990374160651"/>
      <point x="768.06847217890129" y="1095.3465726788099"/>
      <point x="547.48760881484588" y="1102.1460897608838" type="curve" smooth="yes"/>
      <point x="252.71388228640666" y="1111.2326395109801"/>
      <point x="127.60970603892049" y="858.48534128077063"/>
      <point x="92.969224400193198" y="601.68406247248402" type="curve" smooth="yes"/>
      <point x="77.105623567961871" y="479.69860774710924" type="line" smooth="yes"/>
      <point x="49.788740946970123" y="244.37584318705564"/>
      <point x="99.158446574044376" y="-14.967800530307041"/>
      <point x="382.09054291720452" y="-21.900110714816922" type="curve" smooth="yes"/>
      <point x="598.55148537539651" y="-27.20376631043916"/>
      <point x="736.37674185549224" y="133.3343710870991"/>
      <point x="770.90190589325607" y="334.48606456559565" type="curve"/>
      <point x="668.06012638260063" y="333.63085201092639" type="line"/>
      <point x="633.19776002959418" y="188.52597322062974"/>
      <point x="550.82799714580472" y="76.294191465725476"/>
    </contour>
  </outline>
</glyph>
<glyph name="d" format="1">
  <advance width="969.03"/>
  <unicode hex="0064"/>
  <outline>
    <contour>
      <point x="1085.1640114513166" y="1536" type="move" name="caron"/>
    </contour>
    <contour>
      <point x="836.87413684255284" y="1306" type="move" name="cross"/>
    </contour>
    <contour>
      <point x="411.40076189018168" y="0" type="move" name="bottom"/>
    </contour>
    <contour>
      <point x="638.23657653262558" y="1616" type="move" name="top"/>
    </contour>
    <contour>
      <point x="1122.4120635163638" y="1600" type="move" name="top_dd"/>
    </contour>
    <contour>
      <point x="775.63846203902165" y="-407" type="move" name="bottom_dd"/>
    </contour>
    <contour>
      <point x="1125.1765765326256" y="1616" type="move" name="top0315"/>
    </contour>
    <contour>
      <point x="647.38166029359218" y="216.1553497661113" type="line"/>
      <point x="616.42626861984388" y="0.0" type="line"/>
      <point x="719.94333222658008" y="0.0" type="line"/>
      <point x="986.83553311418973" y="1535.9276234448262" type="line"/>
      <point x="876.30426872362943" y="1535.9326200226976" type="line"/>
    </contour>
    <contour>
      <point x="88.741843830524815" y="489.68066276271088" type="line" smooth="yes"/>
      <point x="64.878296470511103" y="282.08601643173438"/>
      <point x="84.792757697753757" y="-15.039116268123617"/>
      <point x="354.69862709003377" y="-22.369914451276699" type="curve" smooth="yes"/>
      <point x="577.42836600154271" y="-28.41938187865437"/>
      <point x="711.12320090453306" y="170.57884080243093"/>
      <point x="749.37133036584021" y="370.04964343563188" type="curve" smooth="yes"/>
      <point x="798.03831040252055" y="694.08016950251647" type="line"/>
      <point x="808.90478019850639" y="880.46649230819173"/>
      <point x="731.53181094367153" y="1094.4895416457957"/>
      <point x="519.35906568216694" y="1102.102310964942" type="curve" smooth="yes"/>
      <point x="230.50164356317401" y="1112.4665305446285"/>
      <point x="133.21817152961009" y="828.01211031357946"/>
      <point x="101.65315978120286" y="589.38396635333777" type="curve" smooth="yes"/>
    </contour>
    <contour>
      <point x="212.36830396920254" y="591.33224834319162" type="line" smooth="yes"/>
      <point x="236.45514725448737" y="776.80128227439172"/>
      <point x="306.91369010095696" y="1006.0238950029237"/>
      <point x="534.74189793055359" y="996.11291894845112" type="curve" smooth="yes"/>
      <point x="681.63863250432701" y="989.72262148392554"/>
      <point x="765.4408764129671" y="854.98453156084975"/>
      <point x="759.68314324609605" y="715.01128315877952" type="curve"/>
      <point x="699.43269218369903" y="343.21052434957238" type="line"/>
      <point x="661.33746190783802" y="199.67810055537021"/>
      <point x="534.38856185874613" y="80.356548328169552"/>
      <point x="382.32539130403376" y="84.514620613148296" type="curve" smooth="yes"/>
      <point x="169.70559443431901" y="90.328575967207385"/>
      <point x="182.29040087222489" y="332.61889203421288"/>
      <point x="199.76041646197172" y="488.14109896721578" type="curve" smooth="yes"/>
    </contour>
  </outline>
</glyph>
<glyph name="e" format="1">
  <advance width="909.86"/>
  <unicode hex="0065"/>
  <outline>
    <contour>
      <point x="587.80802749213865" y="1291" type="move" name="top"/>
    </contour>
    <contour>
      <point x="387.95140312547187" y="2" type="move" name="bottom"/>
    </contour>
    <contour>
      <point x="600.79341629433668" y="42" type="move" name="ogonek"/>
    </contour>
    <contour>
      <point x="1042.3803292216189" y="1600" type="move" name="top_dd"/>
    </contour>
    <contour>
      <point x="729.68906847382959" y="-407" type="move" name="bottom_dd"/>
    </contour>
    <contour>
      <point x="775.68321777796746" y="654" type="move" name="rhotichook"/>
    </contour>
    <contour>
      <point x="994.23802749213871" y="1291" type="move" name="top0315"/>
    </contour>
    <contour>
      <point x="395.56075859888182" y="-20.822473518677501" type="curve" smooth="yes"/>
      <point x="524.23268847500231" y="-23.091908451065414"/>
      <point x="641.0898817923287" y="24.205440774718284"/>
      <point x="724.45307312361194" y="122.79646739849713" type="curve"/>
      <point x="673.18517816090491" y="197.57053953292814" type="line"/>
      <point x="596.96785772123462" y="126.74801197050324"/>
      <point x="512.03334314046674" y="80.75189616486287"/>
      <point x="405.42922236296374" y="83.524836367325165" type="curve" smooth="yes"/>
      <point x="193.7577172391367" y="89.030743850006928"/>
      <point x="163.94048040494528" y="297.73371419598323"/>
      <point x="183.12080688722341" y="469.08750736626598" type="curve" smooth="yes"/>
      <point x="198.75582539907805" y="594.40689321130913" type="line" smooth="yes"/>
      <point x="223.75985487397065" y="783.84724487839298"/>
      <point x="309.62689782833263" y="1008.5716946776416"/>
      <point x="537.39712391682588" y="998.73739204886112" type="curve" smooth="yes"/>
      <point x="717.21627711254996" y="990.97344501615839"/>
      <point x="740.21072300900232" y="811.25142956857394"/>
      <point x="721.86058921977587" y="665.09532294294195" type="curve" smooth="yes"/>
      <point x="717.44450939039427" y="635.79868626988866" type="line"/>
      <point x="163.4983895207605" y="635.92622492530256" type="line"/>
      <point x="144.8622820009324" y="532.08004167741444" type="line"/>
      <point x="812.79427777193939" y="531.99735304362446" type="line"/>
      <point x="826.01000410939423" y="625.29752165884076" type="line" smooth="yes"/>
      <point x="852.90359465962104" y="846.91823338238009"/>
      <point x="812.26633376311224" y="1094.4057577063945"/>
      <point x="544.81029957609542" y="1102.405041290026" type="curve" smooth="yes"/>
      <point x="257.52177553505089" y="1110.9974904419503"/>
      <point x="120.95230780170172" y="842.45217909775931"/>
      <point x="88.193603368266182" y="593.63649249575155" type="curve" smooth="yes"/>
      <point x="72.645509221247821" y="469.72873381641415" type="line" smooth="yes"/>
      <point x="46.469126226103171" y="232.77807580455391"/>
      <point x="119.14362585279224" y="-15.947201207393846"/>
    </contour>
  </outline>
</glyph>
<glyph name="f" format="1">
  <advance width="596.55"/>
  <unicode hex="0066"/>
  <outline>
    <contour>
      <point x="626.7603470112947" y="1718" type="move" name="top"/>
    </contour>
    <contour>
      <point x="186.14858252534538" y="10" type="move" name="bottom"/>
    </contour>
    <contour>
      <point x="749.93206351636377" y="1600" type="move" name="top_dd"/>
    </contour>
    <contour>
      <point x="403.15846203902169" y="-407" type="move" name="bottom_dd"/>
    </contour>
    <contour>
      <point x="770.32034701129464" y="1718" type="move" name="top0315"/>
    </contour>
    <contour>
      <point x="220.37344188338284" y="0.0" type="line"/>
      <point x="427.89746962745562" y="1216.5083419504763" type="line" smooth="yes"/>
      <point x="445.3143155667567" y="1332.3915379722698"/>
      <point x="503.55250160366893" y="1454.0622151711539"/>
      <point x="637.43987248832798" y="1453.5534654784083" type="curve" smooth="yes"/>
      <point x="668.5975095969917" y="1453.4350716508129"/>
      <point x="698.29076133698254" y="1447.5737309923188"/>
      <point x="728.10539378695842" y="1439.2289198334031" type="curve"/>
      <point x="747.09099466315024" y="1540.3990624213775" type="line"/>
      <point x="710.42401581418119" y="1551.4885631232128"/>
      <point x="673.95346714783136" y="1559.2410154999645"/>
      <point x="635.45381666785067" y="1559.8075748404979" type="curve" smooth="yes"/>
      <point x="433.05309272846011" y="1562.7860959244281"/>
      <point x="340.71680014181061" y="1395.0675628857746"/>
      <point x="316.7519197646219" y="1215.5673783053264" type="curve" smooth="yes"/>
      <point x="109.81958096945472" y="0.0" type="line"/>
    </contour>
    <contour>
      <point x="615.15082176002977" y="1081.9205477280029" type="line"/>
      <point x="153.46305230687341" y="1081.9251485239727" type="line"/>
      <point x="135.53251071216437" y="982.07861788872617" type="line"/>
      <point x="597.22028016532033" y="982.07401709276098" type="line"/>
    </contour>
  </outline>
</glyph>
<glyph name="g" format="1">
  <advance width="967.0899999999999"/>
  <unicode hex="0067"/>
  <outline>
    <contour>
      <point x="595.48962382629099" y="1290" type="move" name="top"/>
    </contour>
    <contour>
      <point x="289.54717949836714" y="-447" type="move" name="bottom"/>
    </contour>
    <contour>
      <point x="1120.4720635163637" y="1600" type="move" name="top_dd"/>
    </contour>
    <contour>
      <point x="773.69846203902159" y="-407" type="move" name="bottom_dd"/>
    </contour>
    <contour>
      <point x="1066.909623826291" y="1290" type="move" name="top0315"/>
    </contour>
    <contour>
      <point x="804.87357090769649" y="1081.9049666881019" type="line"/>
      <point x="756.10952074646912" y="845.96923143163531" type="line"/>
      <point x="608.36882607624943" y="-31.593860516598859" type="line" smooth="yes"/>
      <point x="583.70729961430811" y="-206.88791757117119"/>
      <point x="493.35526473745711" y="-335.0386082056516"/>
      <point x="303.26578350526961" y="-328.81353692494298" type="curve" smooth="yes"/>
      <point x="206.11441969557868" y="-325.63201335607874"/>
      <point x="128.79689358570872" y="-276.41281603837137"/>
      <point x="71.311056070624758" y="-200.53307437063" type="curve"/>
      <point x="11.090624966932097" y="-278.44305779669025" type="line"/>
      <point x="79.265014777649853" y="-370.93883719672294"/>
      <point x="190.9213629632078" y="-428.05791709807812"/>
      <point x="306.10446069573015" y="-431.80387149077154" type="curve" smooth="yes"/>
      <point x="559.31747741706386" y="-440.03879858465029"/>
      <point x="687.47775137839778" y="-258.08331352153249"/>
      <point x="719.26131701778115" y="-25.715291657293367" type="curve" smooth="yes"/>
      <point x="908.38353889576615" y="1081.943432422843" type="line"/>
    </contour>
    <contour>
      <point x="88.800738571712756" y="489.67537293052499" type="line" smooth="yes"/>
      <point x="64.78026967488934" y="280.88497321534999"/>
      <point x="83.429856956191827" y="-15.159515543322403"/>
      <point x="354.67167298344896" y="-22.416939359824859" type="curve" smooth="yes"/>
      <point x="577.44718771418206" y="-28.377584919644978"/>
      <point x="711.11900667617169" y="170.49924207498594"/>
      <point x="749.37439780333796" y="370.0643178509527" type="curve" smooth="yes"/>
      <point x="798.03956414451307" y="694.08376495426842" type="line"/>
      <point x="808.91904457828741" y="880.54502210525243"/>
      <point x="731.61718329754399" y="1094.4683074659017"/>
      <point x="519.34285107247979" y="1101.9908393872286" type="curve" smooth="yes"/>
      <point x="229.66128092033176" y="1112.2565122815811"/>
      <point x="133.49873435146623" y="828.82481625042897"/>
      <point x="101.7362639741434" y="589.390427314524" type="curve" smooth="yes"/>
    </contour>
    <contour>
      <point x="212.31040669816417" y="591.33954813982575" type="line" smooth="yes"/>
      <point x="236.32575977262036" y="776.83965187078286"/>
      <point x="306.61665736926568" y="1006.1911114717598"/>
      <point x="534.56149071345271" y="996.25918529720002" type="curve" smooth="yes"/>
      <point x="681.3110916734413" y="989.86506711738616"/>
      <point x="763.69173126251246" y="854.71516658441283"/>
      <point x="758.43955109201715" y="715.30154620023916" type="curve"/>
      <point x="698.44957587124986" y="343.20791367457002" type="line"/>
      <point x="660.21624456262305" y="200.63778699591245"/>
      <point x="535.03976270793225" y="80.366926275397688"/>
      <point x="383.37233487177554" y="84.544715427106837" type="curve" smooth="yes"/>
      <point x="170.04123475735582" y="90.421075094411307"/>
      <point x="181.96857672615889" y="332.28701942908674"/>
      <point x="199.75247362842589" y="488.71066077178813" type="curve" smooth="yes"/>
    </contour>
  </outline>
</glyph>
<glyph name="h" format="1">
  <advance width="955.4499999999999"/>
  <unicode hex="0068"/>
  <outline>
    <contour>
      <point x="592.75266621504375" y="1611" type="move" name="top"/>
    </contour>
    <contour>
      <point x="388.73413684255286" y="1306" type="move" name="cross"/>
    </contour>
    <contour>
      <point x="391.78858252534536" y="10" type="move" name="bottom"/>
    </contour>
    <contour>
      <point x="712.10076189018173" y="0" type="move" name="right"/>
    </contour>
    <contour>
      <point x="1108.8320635163636" y="1600" type="move" name="top_dd"/>
    </contour>
    <contour>
      <point x="762.05846203902161" y="-407" type="move" name="bottom_dd"/>
    </contour>
    <contour>
      <point x="1110.7326662150438" y="1611" type="move" name="top0315"/>
    </contour>
    <contour>
      <point x="416.47997410484356" y="1535.9279929628171" type="line"/>
      <point x="305.93001628994642" y="1535.9316391900447" type="line"/>
      <point x="39.027179328213876" y="0.0" type="line"/>
      <point x="149.57713714310978" y="0.0" type="line"/>
    </contour>
    <contour>
      <point x="230.58456473039865" y="608.44979367199073" type="line"/>
      <point x="265.28374345924146" y="770.26151772189837"/>
      <point x="371.52572516886215" y="1002.8029412902124"/>
      <point x="568.65231468040827" y="997.95102448117245" type="curve" smooth="yes"/>
      <point x="729.86037674718705" y="993.98317768773552"/>
      <point x="733.2548551608262" y="832.71200417287173"/>
      <point x="719.45653146371751" y="707.19760880991123" type="curve"/>
      <point x="601.69526985389109" y="0.0" type="line"/>
      <point x="712.14704406654164" y="0.0" type="line"/>
      <point x="830.13433741000176" y="705.28475659202013" type="line"/>
      <point x="849.34186781652613" y="883.27361473665496"/>
      <point x="823.35623459080352" y="1097.0345205462668"/>
      <point x="603.37887463337279" y="1102.8889702729475" type="curve" smooth="yes"/>
      <point x="351.24465302995827" y="1109.5992386616517"/>
      <point x="229.93696789994124" y="842.33380273734144"/>
      <point x="192.16359929355735" y="632.69852252502608" type="curve"/>
    </contour>
  </outline>
</glyph>
<glyph name="i" format="1">
  <advance width="419.03999999999996"/>
  <unicode hex="0069"/>
  <outline>
    <contour>
      <point x="107.57858252534534" y="10" type="move" name="bottom"/>
    </contour>
    <contour>
      <point x="152.41076189018173" y="0" type="move" name="ogonek"/>
    </contour>
    <contour>
      <point x="386.18206351636377" y="1600" type="move" name="top"/>
    </contour>
    <contour>
      <point x="572.42206351636378" y="1600" type="move" name="top_dd"/>
    </contour>
    <contour>
      <point x="225.64846203902169" y="-407" type="move" name="bottom_dd"/>
    </contour>
    <contour>
      <point x="232.43023142988363" y="654" type="move" name="rhotichook"/>
    </contour>
    <contour>
      <point x="572.42206351636378" y="1600" type="move" name="top0315"/>
    </contour>
    <contour>
      <point x="349.46191814739535" y="1081.9275797116309" type="line"/>
      <point x="238.9120611101186" y="1081.9312927569358" type="line"/>
      <point x="50.668411691753207" y="0.0" type="line"/>
      <point x="161.21826872902864" y="0.0" type="line"/>
    </contour>
    <contour>
      <point x="276.44842296488179" y="1393.6180622767581" type="curve" smooth="yes"/>
      <point x="272.91070031092107" y="1344.8565595929945"/>
      <point x="300.198790511639" y="1320.8547063373624"/>
      <point x="344.21088557028452" y="1312.9815147624049" type="curve"/>
      <point x="387.96049179971476" y="1322.6124250755961"/>
      <point x="417.55579456748035" y="1346.0438390728048"/>
      <point x="421.24782084917445" y="1394.3479367532623" type="curve" smooth="yes"/>
      <point x="425.04527093198078" y="1444.0313316537911"/>
      <point x="397.82278354192897" y="1468.8922530322345"/>
      <point x="352.81980270561405" y="1477.0329812040757" type="curve"/>
      <point x="308.90020587673075" y="1466.9339685889254"/>
      <point x="279.95345270278534" y="1441.9289485979652"/>
    </contour>
  </outline>
</glyph>
<glyph name="j" format="1">
  <advance width="422.92"/>
  <unicode hex="006A"/>
  <outline>
    <contour>
      <point x="373.57206351636376" y="1600" type="move" name="top"/>
    </contour>
    <contour>
      <point x="-8.3762052638292488" y="-459" type="move" name="bottom"/>
    </contour>
    <contour>
      <point x="576.30206351636377" y="1600" type="move" name="top_dd"/>
    </contour>
    <contour>
      <point x="229.52846203902169" y="-407" type="move" name="bottom_dd"/>
    </contour>
    <contour>
      <point x="576.30206351636377" y="1600" type="move" name="top0315"/>
    </contour>
    <contour>
      <point x="234.07474062574573" y="1081.9330527645868" type="line"/>
      <point x="27.89956693654203" y="-129.42110051425198" type="line" smooth="yes"/>
      <point x="13.338889819119245" y="-227.74009829611805"/>
      <point x="-29.756411556538083" y="-335.50537171958592"/>
      <point x="-146.11766221693759" y="-333.6273834243201" type="curve" smooth="yes"/>
      <point x="-171.99658133470012" y="-333.209715971268"/>
      <point x="-196.89760699593333" y="-326.14341975403204"/>
      <point x="-221.18634548312789" y="-317.97478120521481" type="curve"/>
      <point x="-234.19328734488568" y="-418.7051787883106" type="line"/>
      <point x="-203.22261220867219" y="-430.22221036959871"/>
      <point x="-173.02902096606041" y="-439.09622437303597"/>
      <point x="-139.67856212869833" y="-440.00681538385282" type="curve" smooth="yes"/>
      <point x="44.101946129524578" y="-445.02470373133809"/>
      <point x="119.42456554238035" y="-287.98625840337786"/>
      <point x="140.00485677714641" y="-128.67794602234554" type="curve" smooth="yes"/>
      <point x="345.5959991194494" y="1081.929468709596" type="line"/>
    </contour>
    <contour>
      <point x="271.64644192928205" y="1393.5914306598172" type="curve" smooth="yes"/>
      <point x="268.61258903280122" y="1351.7601167166367"/>
      <point x="294.27195503112358" y="1312.2204115271877"/>
      <point x="339.30922275467168" y="1313.1735040375956" type="curve" smooth="yes"/>
      <point x="383.06264772369741" y="1314.0994274727971"/>
      <point x="413.17795971450096" y="1353.0602065487544"/>
      <point x="416.34323542061145" y="1394.3366011757269" type="curve" smooth="yes"/>
      <point x="419.57664472541421" y="1436.501483747541"/>
      <point x="393.71873989141636" y="1477.8529989097065"/>
      <point x="347.97924217210783" y="1476.8404707208688" type="curve" smooth="yes"/>
      <point x="303.62331406904457" y="1475.8585703987003"/>
      <point x="274.63905149152316" y="1434.8540740307869"/>
    </contour>
  </outline>
</glyph>
<glyph name="k" format="1">
  <advance width="862.3299999999999"/>
  <unicode hex="006B"/>
  <outline>
    <contour>
      <point x="416.4789287207948" y="1535.9292150931883" type="line"/>
      <point x="305.9302468445482" y="1535.932874542465" type="line"/>
      <point x="39.02756179582498" y="0.0" type="line"/>
      <point x="149.57624367207342" y="0.0" type="line"/>
    </contour>
    <contour>
      <point x="892.2272542905846" y="1081.5916947287988" type="line"/>
      <point x="745.6377188147934" y="1081.6075127008332" type="line"/>
      <point x="352.97274136162275" y="680.4980660672715" type="line"/>
      <point x="179.7771745331994" y="496.1636031670307" type="line"/>
      <point x="171.08851535366153" y="363.87591155335673" type="line"/>
      <point x="397.07770041798864" y="578.356416896663" type="line"/>
    </contour>
    <contour>
      <point x="607.4864172139302" y="0.0" type="line"/>
      <point x="729.6161881036469" y="0.0" type="line"/>
      <point x="416.81108392193755" y="667.3831640515855" type="line"/>
      <point x="342.9423300199552" y="567.7469717517374" type="line"/>
    </contour>
    <contour>
      <point x="359.39671173368725" y="92" type="move" name="bottom"/>
    </contour>
    <contour>
      <point x="372.2168417627746" y="1289" type="move" name="cross"/>
    </contour>
    <contour>
      <point x="640.4554482785601" y="1612" type="move" name="top"/>
    </contour>
    <contour>
      <point x="640.4554482785601" y="1612" type="move" name="top"/>
    </contour>
    <contour>
      <point x="1015.7120635163637" y="1600" type="move" name="top_dd"/>
    </contour>
    <contour>
      <point x="668.9384620390216" y="-407" type="move" name="bottom_dd"/>
    </contour>
    <contour>
      <point x="911.0854482785601" y="1612" type="move" name="top0315"/>
    </contour>
  </outline>
</glyph>
<glyph name="l" format="1">
  <advance width="419.03999999999996"/>
  <unicode hex="006C"/>
  <outline>
    <contour>
      <point x="397.95853891525474" y="1685" type="move" name="top"/>
    </contour>
    <contour>
      <point x="108.54858252534534" y="10" type="move" name="bottom"/>
    </contour>
    <contour>
      <point x="549.72401145131653" y="1536" type="move" name="caron"/>
    </contour>
    <contour>
      <point x="409.29468175052727" y="785" type="move" name="dot"/>
    </contour>
    <contour>
      <point x="608.41506256208743" y="1522" type="move" name="marktop"/>
    </contour>
    <contour>
      <point x="572.42206351636378" y="1600" type="move" name="top_dd"/>
    </contour>
    <contour>
      <point x="225.64846203902169" y="-407" type="move" name="bottom_dd"/>
    </contour>
    <contour>
      <point x="587.10853891525471" y="1685" type="move" name="top0315"/>
    </contour>
    <contour>
      <point x="428.12214066229865" y="1535.9398361411006" type="line"/>
      <point x="317.56889217001378" y="1535.9446038739427" type="line"/>
      <point x="50.664308483935869" y="0.0" type="line"/>
      <point x="161.21755697622262" y="0.0" type="line"/>
    </contour>
  </outline>
</glyph>
<glyph name="m" format="1">
  <advance width="1515.1399999999999"/>
  <unicode hex="006D"/>
  <outline>
    <contour>
      <point x="882.609623826291" y="1290" type="move" name="top"/>
    </contour>
    <contour>
      <point x="655.62858252534534" y="10" type="move" name="bottom"/>
    </contour>
    <contour>
      <point x="882.609623826291" y="1290" type="move" name="marktop"/>
    </contour>
    <contour>
      <point x="1668.5220635163637" y="1600" type="move" name="top_dd"/>
    </contour>
    <contour>
      <point x="1321.7484620390217" y="-407" type="move" name="bottom_dd"/>
    </contour>
    <contour>
      <point x="1614.9596238262911" y="1290" type="move" name="top0315"/>
    </contour>
    <contour>
      <point x="293.86734751627483" y="853.93634920078807" type="line"/>
      <point x="328.94805807003712" y="1081.9378734700663" type="line"/>
      <point x="222.4243787863594" y="1081.9312415254085" type="line"/>
      <point x="34.179188304618307" y="0.0" type="line"/>
      <point x="145.67698215438566" y="0.0" type="line"/>
    </contour>
    <contour>
      <point x="230.32161325265793" y="608.39061269231672" type="line"/>
      <point x="264.53365894174522" y="774.99154297319967"/>
      <point x="351.01356379180322" y="1002.6501266569992"/>
      <point x="556.26949502086802" y="998.33031345974655" type="curve" smooth="yes"/>
      <point x="716.06305957065979" y="994.96730053804981"/>
      <point x="732.36599812509655" y="847.18236038415807"/>
      <point x="718.28352008861896" y="717.28993195171176" type="curve"/>
      <point x="598.8337784365774" y="0.0" type="line"/>
      <point x="709.22729728004606" y="0.0" type="line"/>
      <point x="829.74373995889221" y="720.2498572016442" type="line"/>
      <point x="848.38452919024178" y="896.40091829949483"/>
      <point x="809.81224747489773" y="1096.838757416813"/>
      <point x="597.78684612207599" y="1102.7504631478409" type="curve" smooth="yes"/>
      <point x="340.11088608475967" y="1109.9350006607112"/>
      <point x="225.78297506074671" y="847.18477323646482"/>
      <point x="188.3971761895292" y="632.66810004628383" type="curve"/>
    </contour>
    <contour>
      <point x="831.83461506478397" y="702.2897698681038" type="line"/>
      <point x="860.86824678735638" y="845.92047104168148"/>
      <point x="959.39507141358695" y="999.99695795433922"/>
      <point x="1122.9254353564424" y="998.02340960124411" type="curve" smooth="yes"/>
      <point x="1287.0006729214501" y="996.04328550029572"/>
      <point x="1295.2285849005032" y="837.62515872962365"/>
      <point x="1281.1471225028627" y="708.01169917005461" type="curve"/>
      <point x="1163.2611685247912" y="0.0" type="line"/>
      <point x="1274.7690800218043" y="0.0" type="line"/>
      <point x="1392.9526975715899" y="706.28121751590038" type="line"/>
      <point x="1412.7648505717282" y="890.2317705884002"/>
      <point x="1379.3187057551727" y="1097.7153398005889"/>
      <point x="1156.2370373569481" y="1103.1516809592126" type="curve" smooth="yes"/>
      <point x="927.04305283545273" y="1108.7369749025004"/>
      <point x="796.46852839361804" y="898.48134748433995"/>
      <point x="757.86980025498224" y="697.86156135269755" type="curve"/>
    </contour>
  </outline>
</glyph>
<glyph name="n" format="1">
  <advance width="957.39"/>
  <unicode hex="006E"/>
  <outline>
    <contour>
      <point x="607.12962382629098" y="1290" type="move" name="top"/>
    </contour>
    <contour>
      <point x="381.1185825253454" y="10" type="move" name="bottom"/>
    </contour>
    <contour>
      <point x="167.71679351483283" y="1537" type="move" name="caron"/>
    </contour>
    <contour>
      <point x="710.16076189018167" y="0" type="move" name="right"/>
    </contour>
    <contour>
      <point x="607.12962382629098" y="1290" type="move" name="marktop"/>
    </contour>
    <contour>
      <point x="1110.7720635163637" y="1600" type="move" name="top_dd"/>
    </contour>
    <contour>
      <point x="763.99846203902166" y="-407" type="move" name="bottom_dd"/>
    </contour>
    <contour>
      <point x="1057.2096238262911" y="1290" type="move" name="top0315"/>
    </contour>
    <contour>
      <point x="297.43410182048967" y="852.2708444893367" type="line"/>
      <point x="332.6201014088835" y="1081.933898978504" type="line"/>
      <point x="227.28523844140318" y="1081.9317712685879" type="line"/>
      <point x="39.035007130854368" y="0.0" type="line"/>
      <point x="149.56501775285221" y="0.0" type="line"/>
    </contour>
    <contour>
      <point x="230.60389403013613" y="608.4742839918664" type="line"/>
      <point x="265.24406373886086" y="770.37933761582644"/>
      <point x="371.39893719216872" y="1002.7187567987484"/>
      <point x="568.57194106328836" y="997.93354485554755" type="curve" smooth="yes"/>
      <point x="729.81570722056949" y="994.020303283761"/>
      <point x="733.21062813041658" y="832.69592494215306"/>
      <point x="719.43283216802126" y="707.16429415124855" type="curve"/>
      <point x="601.70426675297904" y="0.0" type="line"/>
      <point x="712.1525322001952" y="0.0" type="line"/>
      <point x="830.13856250043659" y="705.28664967348016" type="line"/>
      <point x="849.35830778795275" y="883.25850332436539"/>
      <point x="823.46430276194542" y="1097.1085430236233"/>
      <point x="603.43027390171949" y="1102.8956437599804" type="curve" smooth="yes"/>
      <point x="351.12460721561411" y="1109.5315187518154"/>
      <point x="230.14848092799429" y="842.43976777521914"/>
      <point x="192.26846371435505" y="632.70735370281182" type="curve"/>
    </contour>
  </outline>
</glyph>
<glyph name="o" format="1">
  <advance width="974.85"/>
  <unicode hex="006F"/>
  <outline>
    <contour>
      <point x="592.50222716291705" y="1290" type="move" name="top"/>
    </contour>
    <contour>
      <point x="395.59080082092049" y="-5" type="move" name="bottom"/>
    </contour>
    <contour>
      <point x="1113.1903292216189" y="1600" type="move" name="top_dd"/>
    </contour>
    <contour>
      <point x="800.49906847382965" y="-407" type="move" name="bottom_dd"/>
    </contour>
    <contour>
      <point x="840.67321777796747" y="654" type="move" name="rhotichook"/>
    </contour>
    <contour>
      <point x="1064.8922271629172" y="1290" type="move" name="top0315"/>
    </contour>
    <contour>
      <point x="85.627432303150201" y="484.73272906605172" type="line" smooth="yes"/>
      <point x="59.790052576295722" y="257.3381349398361"/>
      <point x="120.73667246548757" y="-13.45503968636408"/>
      <point x="394.64500210718683" y="-21.582315330002487" type="curve" smooth="yes"/>
      <point x="681.81431086104112" y="-30.103064340040511"/>
      <point x="821.24316037988035" y="235.87879531233901"/>
      <point x="854.93616365255207" y="485.38781134575265" type="curve" smooth="yes"/>
      <point x="869.34473393601934" y="597.26902150802312" type="line" smooth="yes"/>
      <point x="895.26972851299274" y="825.44167942643423"/>
      <point x="834.19994616028157" y="1094.5436385087116"/>
      <point x="559.84679259791812" y="1102.5795240837144" type="curve" smooth="yes"/>
      <point x="273.0858762708142" y="1110.9788367253448"/>
      <point x="133.76263706743035" y="845.42170977029116"/>
      <point x="100.00669962167949" y="596.22035093091586" type="curve" smooth="yes"/>
    </contour>
    <contour>
      <point x="210.96792980187206" y="597.27582749526675" type="line" smooth="yes"/>
      <point x="236.05593858638261" y="779.90476199823752"/>
      <point x="333.48139362416339" y="1007.2331960054163"/>
      <point x="552.36286912779258" y="999.02758637627494" type="curve" smooth="yes"/>
      <point x="758.90420005663759" y="991.2845942843868"/>
      <point x="777.39155553006299" y="756.82249247113509"/>
      <point x="758.93156852821244" y="598.05387989462452" type="curve" smooth="yes"/>
      <point x="744.2359728693724" y="484.69252170792066" type="line" smooth="yes"/>
      <point x="718.4725572359439" y="296.60361389143713"/>
      <point x="627.97511165430683" y="73.628979932086651"/>
      <point x="402.81454682060587" y="81.982398266372456" type="curve" smooth="yes"/>
      <point x="194.99077848407202" y="89.692624424336543"/>
      <point x="178.17545460807398" y="322.75582730724409"/>
      <point x="196.39655480984823" y="482.6521926264777" type="curve" smooth="yes"/>
    </contour>
  </outline>
</glyph>
<glyph name="p" format="1">
  <advance width="966.12"/>
  <unicode hex="0070"/>
  <outline>
    <contour>
      <point x="634.50180319112735" y="1280" type="move" name="top"/>
    </contour>
    <contour>
      <point x="21.948462039021678" y="-407" type="move" name="bottom"/>
    </contour>
    <contour>
      <point x="634.50180319112735" y="1280" type="move" name="marktop"/>
    </contour>
    <contour>
      <point x="1119.5020635163637" y="1600" type="move" name="top_dd"/>
    </contour>
    <contour>
      <point x="772.72846203902168" y="-407" type="move" name="bottom_dd"/>
    </contour>
    <contour>
      <point x="1064.2118031911273" y="1280" type="move" name="top0315"/>
    </contour>
    <contour>
      <point x="299.17069585066059" y="867.59816912238875" type="line"/>
      <point x="328.7981891151008" y="1081.9481747299153" type="line"/>
      <point x="226.29694148695688" y="1081.9307158047668" type="line"/>
      <point x="-34.014050272504164" y="-415.92824519746483" type="line"/>
      <point x="76.512082804293598" y="-415.93367917541445" type="line"/>
    </contour>
    <contour>
      <point x="857.11287498119532" y="591.34070147052932" type="line" smooth="yes"/>
      <point x="882.03241157381876" y="806.42037130931476"/>
      <point x="869.92534679380424" y="1096.2577006342763"/>
      <point x="592.13089114708259" y="1103.2608352884574" type="curve" smooth="yes"/>
      <point x="363.79315188571195" y="1109.0171774406288"/>
      <point x="231.07850344793391" y="895.45303576914739"/>
      <point x="191.09114728518159" y="693.65197533080789" type="curve" smooth="yes"/>
      <point x="140.68454220254989" y="360.94960680974975" type="line"/>
      <point x="129.73385321696367" y="172.38427771917964"/>
      <point x="226.70104262044023" y="-14.098792287546489"/>
      <point x="430.91513029343628" y="-21.113987359781476" type="curve" smooth="yes"/>
      <point x="717.31328295476294" y="-30.952382605383413"/>
      <point x="812.37461879335308" y="256.4979181491604"/>
      <point x="844.03549119879187" y="491.47988422347538" type="curve" smooth="yes"/>
    </contour>
    <contour>
      <point x="734.80119083687077" y="489.64433926919185" type="line" smooth="yes"/>
      <point x="710.55467524496066" y="303.20398406269612"/>
      <point x="639.22083198704536" y="73.693340682045019"/>
      <point x="410.8385618865077" y="82.531492423383952" type="curve" smooth="yes"/>
      <point x="276.65530281931035" y="87.724242299550866"/>
      <point x="177.81876893099212" y="197.9072944939121"/>
      <point x="180.16107992914169" y="333.68242189965497" type="curve"/>
      <point x="241.99169589137028" y="714.60074752921548" type="line"/>
      <point x="278.55730390658562" y="862.30245310544683"/>
      <point x="398.68721397297554" y="1001.5011627137159"/>
      <point x="559.60861743859346" y="998.01816071676456" type="curve" smooth="yes"/>
      <point x="774.38706995825953" y="993.36947034421291"/>
      <point x="765.52290054492312" y="750.56354864922866"/>
      <point x="747.56515887894238" y="593.06437255061235" type="curve" smooth="yes"/>
    </contour>
  </outline>
</glyph>
<glyph name="q" format="1">
  <advance width="972.91"/>
  <unicode hex="0071"/>
  <outline>
    <contour>
      <point x="576.08962382629102" y="1290" type="move" name="top"/>
    </contour>
    <contour>
      <point x="595.21846203902157" y="-407" type="move" name="bottom"/>
    </contour>
    <contour>
      <point x="576.08962382629102" y="1290" type="move" name="marktop"/>
    </contour>
    <contour>
      <point x="1126.2920635163637" y="1600" type="move" name="top_dd"/>
    </contour>
    <contour>
      <point x="779.51846203902164" y="-407" type="move" name="bottom_dd"/>
    </contour>
    <contour>
      <point x="1072.7296238262911" y="1290" type="move" name="top0315"/>
    </contour>
    <contour>
      <point x="536.32722861291984" y="-415.93036544642621" type="line"/>
      <point x="646.89576548035291" y="-415.93280933411745" type="line"/>
      <point x="907.22607995808437" y="1081.9285684347792" type="line"/>
      <point x="804.1705472217302" y="1081.909082346582" type="line"/>
      <point x="761.15753424432023" y="880.3610836194099" type="line"/>
    </contour>
    <contour>
      <point x="88.43515925066707" y="489.71695680612874" type="line" smooth="yes"/>
      <point x="64.479418921091096" y="278.70358655999217"/>
      <point x="83.128763233897757" y="-14.741016332589899"/>
      <point x="355.99869789993306" y="-22.074802793278653" type="curve" smooth="yes"/>
      <point x="578.98973028281875" y="-28.068019364192327"/>
      <point x="716.23065672926282" y="169.43335422415558"/>
      <point x="755.02726715277038" y="370.08053439211216" type="curve" smooth="yes"/>
      <point x="803.83878308012515" y="694.08122566478357" type="line"/>
      <point x="814.71896843159652" y="882.35057277334522"/>
      <point x="733.0422626839146" y="1094.4584254452061"/>
      <point x="520.40618379011539" y="1102.0953328811863" type="curve" smooth="yes"/>
      <point x="229.78689557404141" y="1112.5330375960345"/>
      <point x="132.77253603198437" y="831.4092730766564"/>
      <point x="101.15223968538625" y="590.24345247528095" type="curve" smooth="yes"/>
    </contour>
    <contour>
      <point x="212.43436712363723" y="591.32414097779088" type="line" smooth="yes"/>
      <point x="236.78912191232956" y="777.57372951212483"/>
      <point x="309.00135770624922" y="1008.0412149535542"/>
      <point x="537.55261900608889" y="998.2996322664427" type="curve" smooth="yes"/>
      <point x="683.33821702558328" y="992.08578575507408"/>
      <point x="771.13125925121346" y="854.18181624231306"/>
      <point x="764.85537810748872" y="714.99904116796006" type="curve"/>
      <point x="704.29788922085186" y="343.1929118309136" type="line"/>
      <point x="665.81209422606037" y="199.51794331078762"/>
      <point x="536.54482929367873" y="77.239151114891968"/>
      <point x="383.98472415229412" y="81.526669025518373" type="curve" smooth="yes"/>
      <point x="170.77395119060159" y="87.518700867424727"/>
      <point x="182.15083519809491" y="333.01060783949754"/>
      <point x="199.83127728712248" y="488.73667519082551" type="curve" smooth="yes"/>
    </contour>
  </outline>
</glyph>
<glyph name="r" format="1">
  <advance width="601.4"/>
  <unicode hex="0072"/>
  <outline>
    <contour>
      <point x="472.29962382629105" y="1290" type="move" name="top"/>
    </contour>
    <contour>
      <point x="103.59249284292717" y="15" type="move" name="bottom"/>
    </contour>
    <contour>
      <point x="754.78206351636379" y="1600" type="move" name="top_dd"/>
    </contour>
    <contour>
      <point x="408.00846203902171" y="-407" type="move" name="bottom_dd"/>
    </contour>
    <contour>
      <point x="701.21962382629101" y="1290" type="move" name="top0315"/>
    </contour>
    <contour>
      <point x="306.34376654118074" y="903.6964159805774" type="line"/>
      <point x="334.67748435291816" y="1081.9517873708278" type="line"/>
      <point x="227.28278422084315" y="1081.9312602692621" type="line"/>
      <point x="39.031261494982445" y="0.0" type="line"/>
      <point x="149.56106437178192" y="0.0" type="line"/>
    </contour>
    <contour>
      <point x="641.75814535262703" y="1090.8163126146035" type="line"/>
      <point x="618.08051531014155" y="1097.5781095565783"/>
      <point x="595.42471688357784" y="1103.3183377552184"/>
      <point x="570.60073879001254" y="1104.2303344447002" type="curve" smooth="yes"/>
      <point x="310.17241970379678" y="1113.7980904247747"/>
      <point x="227.5769942559719" y="803.97036001593403"/>
      <point x="196.11104863045023" y="602.27033698220919" type="curve"/>
      <point x="236.41658033188691" y="618.8882721800012" type="line"/>
      <point x="275.20171402798348" y="782.13835208682463"/>
      <point x="356.37056554882713" y="992.26478283373592"/>
      <point x="557.86188964694463" y="988.20545266835586" type="curve" smooth="yes"/>
      <point x="580.70049419970678" y="987.74533639877859"/>
      <point x="602.51591561421924" y="983.97916206541333"/>
      <point x="624.84851897634201" y="979.67656095967448" type="curve"/>
    </contour>
  </outline>
</glyph>
<glyph name="s" format="1">
  <advance width="887.55"/>
  <unicode hex="0073"/>
  <outline>
    <contour>
      <point x="568.25222716291705" y="1290" type="move" name="top"/>
    </contour>
    <contour>
      <point x="366.17920016247729" y="-7" type="move" name="bottom"/>
    </contour>
    <contour>
      <point x="1023.950329221619" y="1600" type="move" name="top_dd"/>
    </contour>
    <contour>
      <point x="711.25906847382964" y="-407" type="move" name="bottom_dd"/>
    </contour>
    <contour>
      <point x="975.65222716291703" y="1290" type="move" name="top0315"/>
    </contour>
    <contour>
      <point x="611.490226520551" y="273.95417179250074" type="curve" smooth="yes"/>
      <point x="596.30333673907626" y="148.39197460683906"/>
      <point x="480.54525241763298" y="83.24877544741598"/>
      <point x="362.5657984276159" y="84.228950754347665" type="curve" smooth="yes"/>
      <point x="229.23253764886704" y="85.336685748773661"/>
      <point x="154.19073540985974" y="162.73074106112153"/>
      <point x="159.12737332035664" y="295.36454142318712" type="curve"/>
      <point x="48.688192471822973" y="295.60481668405311" type="line"/>
      <point x="34.834461546480881" y="104.22886445292838"/>
      <point x="170.52439862634935" y="-16.307479580676222"/>
      <point x="357.05979574165127" y="-20.250976773446425" type="curve" smooth="yes"/>
      <point x="542.92711677845534" y="-24.180350340455213"/>
      <point x="707.79398076554639" y="86.298647723648742"/>
      <point x="720.63205983307421" y="281.28946276722405" type="curve" smooth="yes"/>
      <point x="732.12018417324168" y="455.77652711917688"/>
      <point x="593.26582583679044" y="528.88550976599959"/>
      <point x="458.69710958273197" y="600.53353367037016" type="curve" smooth="yes"/>
      <point x="373.79685204021797" y="645.73672688809393"/>
      <point x="262.82518210452264" y="697.82066790546537"/>
      <point x="276.32312620815617" y="810.20143018810165" type="curve" smooth="yes"/>
      <point x="290.66717162460549" y="929.62663640772121"/>
      <point x="392.87063856262023" y="999.12590078145104"/>
      <point x="508.84015715430758" y="997.34086553364159" type="curve" smooth="yes"/>
      <point x="633.62014294964149" y="995.42021711179154"/>
      <point x="702.67991394463309" y="905.32699129383741"/>
      <point x="693.6396388515368" y="785.78257862235125" type="curve"/>
      <point x="802.95690330132447" y="785.54418485595386" type="line"/>
      <point x="816.57895213695622" y="970.80537053878606"/>
      <point x="702.2796688698586" y="1098.466471670946"/>
      <point x="514.75912168886407" y="1102.1847275540194" type="curve" smooth="yes"/>
      <point x="337.90176520210423" y="1105.6915480923949"/>
      <point x="179.1408796014621" y="989.06967990037049"/>
      <point x="167.30070196487458" y="805.69692442794894" type="curve" smooth="yes"/>
      <point x="156.58254649780469" y="639.70129818793066"/>
      <point x="292.66846712523932" y="567.63310512822761"/>
      <point x="420.74865835650553" y="499.31710359570377" type="curve" smooth="yes"/>
      <point x="508.80412399610725" y="452.34967430197207"/>
      <point x="625.66878674749319" y="391.17969990528911"/>
    </contour>
  </outline>
</glyph>
<glyph name="t" format="1">
  <advance width="577.15"/>
  <unicode hex="0074"/>
  <outline>
    <contour>
      <point x="271.72076189018173" y="0" type="move" name="bottom"/>
    </contour>
    <contour>
      <point x="613.74710208801105" y="1609" type="move" name="caron"/>
    </contour>
    <contour>
      <point x="289.96639825559635" y="667" type="move" name="cross"/>
    </contour>
    <contour>
      <point x="415.25167779989101" y="1510" type="move" name="top"/>
    </contour>
    <contour>
      <point x="587.95699604936374" y="1325" type="move" name="marktop"/>
    </contour>
    <contour>
      <point x="730.53206351636379" y="1600" type="move" name="top_dd"/>
    </contour>
    <contour>
      <point x="383.75846203902171" y="-407" type="move" name="bottom_dd"/>
    </contour>
    <contour>
      <point x="714.98167779989103" y="1510" type="move" name="top0315"/>
    </contour>
    <contour>
      <point x="570.53205517911715" y="1081.9198828401943" type="line"/>
      <point x="119.51358151724132" y="1081.9245293641027" type="line"/>
      <point x="101.58153694715539" y="982.07906419442111" type="line"/>
      <point x="552.60001060902403" y="982.07441767047089" type="line"/>
    </contour>
    <contour>
      <point x="328.6416296143899" y="1358.932093504289" type="line"/>
      <point x="144.73854237350082" y="263.863435972741" type="line"/>
      <point x="133.77876216938768" y="143.64003874532483"/>
      <point x="145.4738395172823" y="-15.439048568691735"/>
      <point x="298.76092493342321" y="-18.11785837003594" type="curve" smooth="yes"/>
      <point x="333.00761020610844" y="-18.716345554543128"/>
      <point x="367.06347583560273" y="-13.98727378170809"/>
      <point x="399.73269447302368" y="-3.9639057474822263" type="curve"/>
      <point x="406.26109160404928" y="98.422406737468165" type="line"/>
      <point x="380.48730531878471" y="94.030415248995979"/>
      <point x="354.41487271061629" y="89.633867871995932"/>
      <point x="328.14248237171012" y="90.603906963080703" type="curve" smooth="yes"/>
      <point x="239.22751723753132" y="93.886858793880265"/>
      <point x="248.51195335784041" y="197.25287588600088"/>
      <point x="255.08412000814826" y="262.08841288339903" type="curve"/>
      <point x="440.09856781448013" y="1358.9244983457131" type="line"/>
    </contour>
  </outline>
</glyph>
<glyph name="u" format="1">
  <advance width="956.42"/>
  <unicode hex="0075"/>
  <outline>
    <contour>
      <point x="605.53518795332366" y="1292" type="move" name="top"/>
    </contour>
    <contour>
      <point x="704.34076189018174" y="0" type="move" name="ogonek"/>
    </contour>
    <contour>
      <point x="331.86076189018172" y="0" type="move" name="bottomu"/>
    </contour>
    <contour>
      <point x="1109.8020635163639" y="1600" type="move" name="top_dd"/>
    </contour>
    <contour>
      <point x="763.02846203902163" y="-407" type="move" name="bottom_dd"/>
    </contour>
    <contour>
      <point x="779.51023142988356" y="654" type="move" name="rhotichook"/>
    </contour>
    <contour>
      <point x="1056.5851879533238" y="1292" type="move" name="top0315"/>
    </contour>
    <contour>
      <point x="373.57076189018176" y="0" type="move" name="bottom"/>
    </contour>
    <contour>
      <point x="644.281720789411" y="254.41174064972478" type="line"/>
      <point x="603.68698789682412" y="0.0" type="line"/>
      <point x="710.24409127580634" y="0.0" type="line"/>
      <point x="898.47908851233615" y="1081.929364234885" type="line"/>
      <point x="787.94927074954194" y="1081.9343010176156" type="line"/>
    </contour>
    <contour>
      <point x="699.6239512855326" y="450.6154091112333" type="line"/>
      <point x="666.20154990881849" y="268.16079400948303"/>
      <point x="578.15371843217781" y="78.096751533769407"/>
      <point x="362.19037617746409" y="86.39201691268201" type="curve" smooth="yes"/>
      <point x="207.5668229549882" y="92.331188785184636"/>
      <point x="205.83022634939346" y="269.94742898469178"/>
      <point x="218.26243400526255" y="385.87566075467618" type="curve"/>
      <point x="333.84248255826941" y="1081.9348888723439" type="line"/>
      <point x="223.4240437027392" y="1081.9204343851802" type="line"/>
      <point x="107.25117314309382" y="388.7009617179138" type="line"/>
      <point x="87.268580322437714" y="208.35242217916658"/>
      <point x="115.89564341182805" y="-15.948610778381383"/>
      <point x="339.72028488412593" y="-21.914469878197501" type="curve" smooth="yes"/>
      <point x="614.78785586071388" y="-29.246166516157253"/>
      <point x="716.21240159959655" y="221.00030858929884"/>
      <point x="748.63537974216638" y="453.15040707006136" type="curve"/>
    </contour>
  </outline>
</glyph>
<glyph name="v" format="1">
  <advance width="842.93"/>
  <unicode hex="0076"/>
  <outline>
    <contour>
      <point x="330.13514072358436" y="121.41122287836257" type="line"/>
      <point x="290.3978732138317" y="0.0" type="line"/>
      <point x="374.0407696407246" y="0.0" type="line"/>
      <point x="870.7098347176707" y="1081.7430275552927" type="line"/>
      <point x="753.4948588250269" y="1081.7691198221685" type="line"/>
    </contour>
    <contour>
      <point x="236.09437049786158" y="1082.02392847274" type="line"/>
      <point x="125.66015825162026" y="1082.01827074119" type="line"/>
      <point x="285.28459383976343" y="0.0" type="line"/>
      <point x="362.6346089855128" y="0.0" type="line"/>
      <point x="365.21304041851334" y="107.57924523547027" type="line"/>
    </contour>
    <contour>
      <point x="532.7442238707009" y="1280" type="move" name="top"/>
    </contour>
    <contour>
      <point x="332.93780575924484" y="10" type="move" name="bottom"/>
    </contour>
    <contour>
      <point x="979.3303292216189" y="1600" type="move" name="top_dd"/>
    </contour>
    <contour>
      <point x="666.6390684738296" y="-407" type="move" name="bottom_dd"/>
    </contour>
    <contour>
      <point x="929.4742238707009" y="1280" type="move" name="top0315"/>
    </contour>
    <contour>
      <point x="532.7442238707009" y="1280" type="move" name="parent_top"/>
    </contour>
  </outline>
</glyph>
<glyph name="w" format="1">
  <advance width="1296.8899999999999"/>
  <unicode hex="0077"/>
  <outline>
    <contour>
      <point x="761.70518795332373" y="1292" type="move" name="top"/>
    </contour>
    <contour>
      <point x="543.10858252534535" y="10" type="move" name="bottom"/>
    </contour>
    <contour>
      <point x="761.70518795332373" y="1292" type="move" name="marktop"/>
    </contour>
    <contour>
      <point x="1450.2720635163637" y="1600" type="move" name="top_dd"/>
    </contour>
    <contour>
      <point x="1103.4984620390217" y="-407" type="move" name="bottom_dd"/>
    </contour>
    <contour>
      <point x="1397.0551879533236" y="1292" type="move" name="top0315"/>
    </contour>
    <contour>
      <point x="321.71129069625641" y="250.51071434550929" type="line"/>
      <point x="233.54899513516534" y="0.0" type="line"/>
      <point x="313.37735573703173" y="0.0" type="line"/>
      <point x="685.17544593423736" y="856.87688522287806" type="line"/>
      <point x="762.70361367748569" y="1081.7820513943454" type="line"/>
      <point x="678.78936431956265" y="1081.4274488859421" type="line"/>
    </contour>
    <contour>
      <point x="260.18827310156973" y="1082.0273568385276" type="line"/>
      <point x="152.28082679116443" y="1082.0244582873017" type="line"/>
      <point x="220.45420484408231" y="0.0" type="line"/>
      <point x="296.97235403185397" y="0.0" type="line"/>
      <point x="304.86104122049795" y="250.3149044433255" type="line"/>
    </contour>
    <contour>
      <point x="869.37007306215003" y="256.07885738534782" type="line"/>
      <point x="783.58808495999244" y="0.0" type="line"/>
      <point x="865.06411698466491" y="0.0" type="line"/>
      <point x="1310.6201987400357" y="1081.7766276710011" type="line"/>
      <point x="1193.8274950269165" y="1081.8072698779379" type="line"/>
    </contour>
    <contour>
      <point x="774.23382260795427" y="1082.0210813337555" type="line"/>
      <point x="695.96361498492377" y="1081.9982567511179" type="line"/>
      <point x="692.21680628561057" y="868.07341150177285" type="line"/>
      <point x="772.54622689145322" y="0.0" type="line"/>
      <point x="846.63410083374515" y="0.0" type="line"/>
      <point x="843.51160365837438" y="251.66929248460232" type="line"/>
    </contour>
  </outline>
</glyph>
<glyph name="x" format="1">
  <advance width="853.6"/>
  <unicode hex="0078"/>
  <outline>
    <contour>
      <point x="344.57780575924482" y="10" type="move" name="bottom"/>
    </contour>
    <contour>
      <point x="640.80980246702859" y="0" type="move" name="right"/>
    </contour>
    <contour>
      <point x="422.3873845265839" y="553" type="move" name="cross"/>
    </contour>
    <contour>
      <point x="538.56422387070086" y="1280" type="move" name="top"/>
    </contour>
    <contour>
      <point x="990.00032922161893" y="1600" type="move" name="top_dd"/>
    </contour>
    <contour>
      <point x="677.3090684738296" y="-407" type="move" name="bottom_dd"/>
    </contour>
    <contour>
      <point x="940.14422387070078" y="1280" type="move" name="top0315"/>
    </contour>
    <contour>
      <point x="269.41177895013755" y="1082.001189743861" type="line"/>
      <point x="147.38329016907542" y="1081.9808294669392" type="line"/>
      <point x="359.33626513227887" y="556.91534475198341" type="line"/>
      <point x="-41.287190621032508" y="0.0" type="line"/>
      <point x="94.918145174513967" y="0.0" type="line"/>
      <point x="406.77554999403208" y="453.49693483024186" type="line"/>
      <point x="576.88225614749297" y="0.0" type="line"/>
      <point x="698.86075856289006" y="0.0" type="line"/>
      <point x="477.43444664818082" y="545.08289303918468" type="line"/>
      <point x="862.31671621545297" y="1081.6522787154443" type="line"/>
      <point x="726.14069504676502" y="1081.6774973859735" type="line"/>
      <point x="429.05001112452851" y="648.54388665997521" type="line"/>
    </contour>
  </outline>
</glyph>
<glyph name="y" format="1">
  <advance width="831.29"/>
  <unicode hex="0079"/>
  <outline>
    <contour>
      <point x="557.03518795332366" y="1292" type="move" name="top"/>
    </contour>
    <contour>
      <point x="470.43119585459624" y="-158" type="move" name="bottom"/>
    </contour>
    <contour>
      <point x="557.03518795332366" y="1292" type="move" name="marktop"/>
    </contour>
    <contour>
      <point x="984.67206351636378" y="1600" type="move" name="top_dd"/>
    </contour>
    <contour>
      <point x="637.89846203902164" y="-407" type="move" name="bottom_dd"/>
    </contour>
    <contour>
      <point x="634.01023142988356" y="654" type="move" name="rhotichook"/>
    </contour>
    <contour>
      <point x="931.45518795332373" y="1292" type="move" name="top0315"/>
    </contour>
    <contour>
      <point x="322.55138350978831" y="124.63815271851375" type="line"/>
      <point x="205.65227547446824" y="-134.174665367599" type="line" smooth="yes"/>
      <point x="162.98284940407763" y="-233.69868756026113"/>
      <point x="101.07664073910891" y="-338.42110067512675"/>
      <point x="-22.472795880411695" y="-332.3045632034582" type="curve" smooth="yes"/>
      <point x="-38.956371795726248" y="-331.48851407760418"/>
      <point x="-55.423046799813847" y="-327.13755523286795"/>
      <point x="-71.475083593727589" y="-323.66675495740026" type="curve"/>
      <point x="-82.941736184117445" y="-425.37757152310036" type="line"/>
      <point x="-55.388914761592417" y="-433.07688554380451"/>
      <point x="-27.002424332568896" y="-440.03303098145852"/>
      <point x="1.8187192034887119" y="-440.40601463108214" type="curve" smooth="yes"/>
      <point x="158.09708853423544" y="-442.4284630629873"/>
      <point x="237.120987603239" y="-298.71200840472574"/>
      <point x="291.39343539002198" y="-173.80751030606297" type="curve" smooth="yes"/>
      <point x="876.37644055606802" y="1081.8267783574315" type="line"/>
      <point x="753.88665090651455" y="1081.7478905382864" type="line"/>
    </contour>
    <contour>
      <point x="245.18475019655619" y="1082.0208412031711" type="line"/>
      <point x="129.44283776693493" y="1082.0232276865136" type="line"/>
      <point x="276.71183535323229" y="-24.017472496248992" type="line"/>
      <point x="362.94433372766758" y="24.540006706960241" type="line"/>
      <point x="355.95228725925477" y="148.40441289258123" type="line"/>
    </contour>
  </outline>
</glyph>
<glyph name="z" format="1">
  <advance width="853.6"/>
  <unicode hex="007A"/>
  <outline>
    <contour>
      <point x="557.03518795332366" y="1292" type="move" name="top"/>
    </contour>
    <contour>
      <point x="350.07858252534538" y="10" type="move" name="bottom"/>
    </contour>
    <contour>
      <point x="1006.9820635163637" y="1600" type="move" name="top_dd"/>
    </contour>
    <contour>
      <point x="660.20846203902158" y="-407" type="move" name="bottom_dd"/>
    </contour>
    <contour>
      <point x="953.76518795332368" y="1292" type="move" name="top0315"/>
    </contour>
    <contour>
      <point x="701.79895521226206" y="103.91675949512076" type="line"/>
      <point x="43.201368381372347" y="103.92149116396691" type="line"/>
      <point x="24.560795812991344" y="0.0" type="line"/>
      <point x="683.15838264387901" y="0.0" type="line"/>
    </contour>
    <contour>
      <point x="822.04743984533866" y="991.89496842451422" type="line"/>
      <point x="834.51727480450029" y="1081.3768551169012" type="line"/>
      <point x="763.03326448619862" y="1081.0058730943006" type="line"/>
      <point x="3.7459189330951546" y="96.684344877930144" type="line"/>
      <point x="-11.055173103533875" y="0.0" type="line"/>
      <point x="58.361736376262584" y="0.0" type="line"/>
    </contour>
    <contour>
      <point x="789.76199547291435" y="1081.9151188521269" type="line"/>
      <point x="188.39622568280981" y="1081.9198368230304" type="line"/>
      <point x="169.57506914762183" y="977.08525675463022" type="line"/>
      <point x="770.94083893772643" y="977.0805387837238" type="line"/>
    </contour>
  </outline>
</glyph>
<glyph name="braceleft" format="1">
  <advance width="592.67"/>
  <unicode hex="007B"/>
  <outline>
    <contour>
      <point x="678.5696446969165" y="1601.2295030310636" type="line"/>
      <point x="464.35260657715293" y="1520.7234155663357"/>
      <point x="369.23545678701595" y="1351.1153847841531"/>
      <point x="339.9233151134971" y="1131.6776450445298" type="curve" smooth="yes"/>
      <point x="309.41593249843368" y="905.76998095953888" type="line" smooth="yes"/>
      <point x="290.63573683154203" y="768.08423194716761"/>
      <point x="231.04622662487176" y="653.9922900536194"/>
      <point x="79.89031090620702" y="646.56633785266536" type="curve"/>
      <point x="71.04761343746847" y="564.05766525823219" type="line"/>
      <point x="282.74625040595186" y="571.11047620903662"/>
      <point x="394.35830612112261" y="702.3302187823781"/>
      <point x="420.11692172454661" y="906.00359284677052" type="curve" smooth="yes"/>
      <point x="450.85716231560559" y="1132.0974887284744" type="line" smooth="yes"/>
      <point x="474.40883843540996" y="1295.4528836394916"/>
      <point x="539.45016666581444" y="1451.1949329123161"/>
      <point x="701.92145359442793" y="1515.9915370818567" type="curve"/>
    </contour>
    <contour>
      <point x="424.11474671836925" y="-322.70996542482101" type="line"/>
      <point x="277.83339461978744" y="-250.51665406567133"/>
      <point x="268.81659527774212" y="-86.511170788923309"/>
      <point x="286.85300785503364" y="59.028317716817369" type="curve" smooth="yes"/>
      <point x="317.02387720649995" y="286.1734928666159" type="line" smooth="yes"/>
      <point x="334.49471058352026" y="462.909436845009"/>
      <point x="266.15609593827378" y="615.74506364760805"/>
      <point x="73.178731734470688" y="624.47131269407089" type="curve"/>
      <point x="65.352599121918814" y="541.44814098229187" type="line"/>
      <point x="206.10349966458648" y="529.8165185281058"/>
      <point x="220.10309384605958" y="407.8966644834037"/>
      <point x="206.88995681723327" y="287.13288357744887" type="curve" smooth="yes"/>
      <point x="176.56872607035211" y="59.794740259687131" type="line" smooth="yes"/>
      <point x="154.46275788244941" y="-134.38699124922681"/>
      <point x="200.67951816931455" y="-321.60004180540182"/>
      <point x="394.49881027537032" y="-402.09230187788506" type="curve"/>
    </contour>
  </outline>
</glyph>
<glyph name="braceright" format="1">
  <advance width="592.67"/>
  <unicode hex="007D"/>
  <outline>
    <contour>
      <point x="172.8678495887641" y="1515.6888712606344" type="line"/>
      <point x="317.68629782151675" y="1445.7424492177238"/>
      <point x="321.363870998278" y="1273.6126179765095"/>
      <point x="303.9758741095186" y="1132.7897671723595" type="curve" smooth="yes"/>
      <point x="273.92526664080174" y="905.85102015700329" type="line" smooth="yes"/>
      <point x="256.64426500504874" y="729.14587716091989"/>
      <point x="327.15121015486068" y="581.45794702004764"/>
      <point x="518.40801608058905" y="572.66789640636944" type="curve"/>
      <point x="525.50598402407491" y="650.69572112828337" type="line"/>
      <point x="384.72870770890876" y="662.25429967021"/>
      <point x="370.95417191305296" y="783.94152690399756"/>
      <point x="384.08264449582754" y="904.71166432367284" type="curve" smooth="yes"/>
      <point x="414.42923283960653" y="1132.2015080743292" type="line" smooth="yes"/>
      <point x="436.78306831067715" y="1324.9570312145966"/>
      <point x="393.65736756469971" y="1513.9746422626877"/>
      <point x="201.11817413031201" y="1595.6033487243146" type="curve"/>
    </contour>
    <contour>
      <point x="-87.529832999262979" y="-406.83518874415438" type="line"/>
      <point x="126.24129461447468" y="-326.60175990554814"/>
      <point x="221.17150646695686" y="-158.83085563926281"/>
      <point x="250.78787404883815" y="60.206297673811484" type="curve" smooth="yes"/>
      <point x="281.48857026666286" y="286.22016489790792" type="line" smooth="yes"/>
      <point x="300.28685682794583" y="423.66771670499531"/>
      <point x="360.1443411739732" y="537.83314470578489"/>
      <point x="510.99368923151758" y="545.47691388649616" type="curve"/>
      <point x="519.03846358358999" y="623.06978422357872" type="line"/>
      <point x="308.97892912850909" y="616.61162097605347"/>
      <point x="196.31032883864228" y="489.07225672458145"/>
      <point x="170.69711174086285" y="286.03956675206274" type="curve" smooth="yes"/>
      <point x="140.0170914242531" y="59.895321796070384" type="line" smooth="yes"/>
      <point x="116.40872848947487" y="-103.6700542081893"/>
      <point x="49.899574673270351" y="-255.53762812078833"/>
      <point x="-111.61377843428899" y="-320.92452661359232" type="curve"/>
    </contour>
  </outline>
</glyph>
<glyph name="asciitilde" format="1">
  <advance width="1180.49"/>
  <unicode hex="007E"/>
  <outline>
    <contour>
      <point x="977.46690840617191" y="764.55532969176704" type="line"/>
      <point x="959.28165433195466" y="663.78885842145951"/>
      <point x="915.46286794653952" y="527.93221684100047"/>
      <point x="789.65715745309183" y="530.21542526834003" type="curve" smooth="yes"/>
      <point x="716.34652029188908" y="531.54591705542634"/>
      <point x="670.73632510179107" y="592.43038405545724"/>
      <point x="628.3894612188036" y="643.97486104606639" type="curve" smooth="yes"/>
      <point x="568.48691387464078" y="716.88806382282553"/>
      <point x="496.83200792473707" y="788.27850936850211"/>
      <point x="396.42032546593197" y="790.28528333579754" type="curve" smooth="yes"/>
      <point x="210.53212852714657" y="794.00034502294022"/>
      <point x="131.90161675482955" y="605.17454674562259"/>
      <point x="111.98535458011102" y="449.46627382258129" type="curve"/>
      <point x="207.75330653252496" y="450.78258588329965" type="line"/>
      <point x="225.48099995827226" y="551.55476560819977"/>
      <point x="265.3601706580082" y="682.58025800439918"/>
      <point x="391.11724251821659" y="679.59336761838415" type="curve" smooth="yes"/>
      <point x="464.47641563238085" y="677.85099396369003"/>
      <point x="509.6426718453128" y="618.8200232407288"/>
      <point x="552.35087000060946" y="567.05028213038781" type="curve" smooth="yes"/>
      <point x="612.73308461940746" y="493.85656866306988"/>
      <point x="682.70967336492015" y="422.85111063846483"/>
      <point x="783.7588586544573" y="421.0204490882403" type="curve" smooth="yes"/>
      <point x="967.59986427165506" y="417.68988626011162"/>
      <point x="1046.5589827165852" y="612.6121576138695"/>
      <point x="1064.3757453219832" y="765.7685423937744" type="curve"/>
    </contour>
  </outline>
</glyph>
<glyph name="exclamdown" format="1">
  <advance width="415.15999999999997"/>
  <unicode hex="00A1"/>
  <outline>
    <contour>
      <point x="-12.732616321609797" y="-359.92213315352251" type="line"/>
      <point x="101.79966224821386" y="-359.92800596366283" type="line"/>
      <point x="277.49149599159881" y="689.96457464103787" type="line"/>
      <point x="175.80938633364963" y="689.92454065859295" type="line"/>
    </contour>
    <contour>
      <point x="350.93403826183118" y="1022.4435188442022" type="curve" smooth="yes"/>
      <point x="353.96787125323203" y="1064.3117689364992"/>
      <point x="328.24376928244544" y="1103.9796245245411"/>
      <point x="283.14937171047438" y="1103.0119667288866" type="curve" smooth="yes"/>
      <point x="239.36694116198311" y="1102.0724617678693"/>
      <point x="209.29453662945144" y="1062.9750708833046"/>
      <point x="206.13447694798839" y="1021.7054232308674" type="curve" smooth="yes"/>
      <point x="202.90172857128076" y="979.4864780513434"/>
      <point x="228.67620918765098" y="937.96017964111945"/>
      <point x="274.52713464945515" y="938.97423493373356" type="curve" smooth="yes"/>
      <point x="318.9788261505272" y="939.95734427293019"/>
      <point x="347.9396268590404" y="981.11930427912137"/>
    </contour>
  </outline>
</glyph>
<glyph name="cent" format="1">
  <advance width="948.66"/>
  <unicode hex="00A2"/>
  <outline>
    <contour>
      <point x="669.90346297253654" y="1317.8949456682924" type="line"/>
      <point x="559.34990340321531" y="1317.8959591852188" type="line"/>
      <point x="511.578543924835" y="1049.1034428016196" type="line"/>
      <point x="622.12609157466704" y="1049.0978244018922" type="line"/>
    </contour>
    <contour>
      <point x="445.53867463124527" y="22.900206014466779" type="line"/>
      <point x="334.98632562174839" y="22.899369158735084" type="line"/>
      <point x="287.39142645954695" y="-244.8921712418838" type="line"/>
      <point x="397.94053674139701" y="-244.89782420167057" type="line"/>
    </contour>
    <contour>
      <point x="408.56819497882634" y="83.182190867956706" type="curve" smooth="yes"/>
      <point x="190.76014585767348" y="90.68046585954491"/>
      <point x="193.02969107449894" y="360.05674297239693"/>
      <point x="210.80364586260225" y="518.33216705904795" type="curve" smooth="yes"/>
      <point x="215.85777283520008" y="559.96913311579669" type="line" smooth="yes"/>
      <point x="239.69738043712775" y="744.10734069525461"/>
      <point x="327.58680758357008" y="1007.6402970244354"/>
      <point x="556.88274397285284" y="998.62860251036363" type="curve" smooth="yes"/>
      <point x="709.36166341609521" y="992.63593877852395"/>
      <point x="755.91910366286425" y="847.00182078109128"/>
      <point x="749.86197770316187" y="716.68471234908486" type="curve"/>
      <point x="854.74717059745421" y="716.50660694701378" type="line"/>
      <point x="865.69792788465008" y="907.13916861747362"/>
      <point x="776.70051778742311" y="1095.5986497338718"/>
      <point x="564.3671041445316" y="1102.2844009486323" type="curve" smooth="yes"/>
      <point x="272.73901792496309" y="1111.4669068870521"/>
      <point x="137.39244476142005" y="805.94816158521928"/>
      <point x="107.0903789842949" y="560.21638353085837" type="curve" smooth="yes"/>
      <point x="102.09064871096267" y="517.02446731149007" type="line" smooth="yes"/>
      <point x="78.261247176409114" y="295.21275856933329"/>
      <point x="118.99551664758786" y="-13.84237969995962"/>
      <point x="401.71777569132723" y="-21.085083819119397" type="curve" smooth="yes"/>
      <point x="608.69239755031003" y="-26.387304986175351"/>
      <point x="755.29900571347071" y="143.18402776402309"/>
      <point x="789.80866083820342" y="334.23166609114787" type="curve"/>
      <point x="685.84170448853752" y="333.5980438094287" type="line"/>
      <point x="651.94373878292004" y="200.15052934964129"/>
      <point x="559.58210726185655" y="77.983375459514718"/>
    </contour>
  </outline>
</glyph>
<glyph name="sterling" format="1">
  <advance width="995.22"/>
  <unicode hex="00A3"/>
  <outline>
    <contour>
      <point x="814.10137471416579" y="0.0" type="line"/>
      <point x="833.28319012564486" y="106.91565373246716" type="line"/>
      <point x="11.7177303199947" y="106.92040284980266" type="line"/>
      <point x="-7.4640850914837529" y="0.0" type="line"/>
    </contour>
    <contour>
      <point x="638.54795134141114" y="644.07872780705134" type="line"/>
      <point x="657.73283787045193" y="750.91600463419206" type="line"/>
      <point x="120.38956261850406" y="750.92073354515219" type="line"/>
      <point x="101.20467608946184" y="644.08345671801021" type="line"/>
    </contour>
    <contour>
      <point x="419.12449693884537" y="1037.3526405703492" type="line" smooth="yes"/>
      <point x="438.13518880002613" y="1182.555760608474"/>
      <point x="513.35674541332742" y="1376.4204189600034"/>
      <point x="689.97433022783036" y="1370.4066654153878" type="curve" smooth="yes"/>
      <point x="846.12392606500862" y="1365.0898381784941"/>
      <point x="876.93503124486949" y="1217.7122305431444"/>
      <point x="864.40680021272055" y="1088.1092671034712" type="curve"/>
      <point x="978.17969031881148" y="1087.7678471907498" type="line"/>
      <point x="996.56450262337785" y="1278.9305728757079"/>
      <point x="923.11798584082931" y="1469.9085037234622"/>
      <point x="705.99850329453045" y="1476.5569463078152" type="curve" smooth="yes"/>
      <point x="460.72022514046148" y="1484.067642862412"/>
      <point x="334.68010557587428" y="1252.9604066242064"/>
      <point x="306.83082076971721" y="1038.7573743536418" type="curve" smooth="yes"/>
      <point x="212.85940604376344" y="368.85306657313629" type="line" smooth="yes"/>
      <point x="200.33603313493967" y="283.35744854651119"/>
      <point x="178.37001345275283" y="147.71675533356981"/>
      <point x="90.671148440161559" y="106.60559696902169" type="curve"/>
      <point x="195.88903266503968" y="67.028668279943687" type="line"/>
      <point x="282.57674537468142" y="144.6213909133445"/>
      <point x="312.15321058401912" y="259.31403440729179"/>
      <point x="326.87390626056441" y="370.98828411412131" type="curve" smooth="yes"/>
    </contour>
  </outline>
</glyph>
<glyph name="currency" format="1">
  <advance width="1436.57"/>
  <unicode hex="00A4"/>
  <outline>
    <contour>
      <point x="254.33512236789403" y="599.78743712235325" type="curve" smooth="yes"/>
      <point x="290.65298477869004" y="869.47123036344124"/>
      <point x="524.85777232531052" y="1127.6461368451151"/>
      <point x="810.3781785054166" y="1120.3582732555913" type="curve" smooth="yes"/>
      <point x="1076.8093576600913" y="1113.5576591921242"/>
      <point x="1216.3440412617826" y="860.00349194015416"/>
      <point x="1183.4902984502617" y="616.14359262691039" type="curve" smooth="yes"/>
      <point x="1147.2453097554276" y="347.11186176937156"/>
      <point x="913.7740349346027" y="86.285662439444195"/>
      <point x="628.18243817821087" y="93.589888647542935" type="curve" smooth="yes"/>
      <point x="361.10287892501702" y="100.42065516343825"/>
      <point x="221.44909742235572" y="355.58727325760367"/>
    </contour>
    <contour>
      <point x="141.59219157208094" y="600.233818028972" type="curve" smooth="yes"/>
      <point x="104.83464590813959" y="291.21864848270934"/>
      <point x="289.09406996508466" y="-13.558201279712222"/>
      <point x="621.64421670373281" y="-20.57336289460418" type="curve" smooth="yes"/>
      <point x="973.21293651165797" y="-27.989722238843296"/>
      <point x="1257.3931419138269" y="280.76242447526914"/>
      <point x="1297.2807003115611" y="615.69484586621672" type="curve" smooth="yes"/>
      <point x="1334.1882566749578" y="925.60444467278307"/>
      <point x="1149.748731481229" y="1227.5966159310708"/>
      <point x="816.94858390870991" y="1234.532381253551" type="curve" smooth="yes"/>
      <point x="465.70350165910065" y="1241.8525506673209"/>
      <point x="181.4546849244534" y="935.35181677783976"/>
    </contour>
    <contour>
      <point x="1435.5224119469765" y="1170.1288966037534" type="line"/>
      <point x="1361.0790799572464" y="1265.3770260046738" type="line"/>
      <point x="1133.4665141331695" y="1064.8706580530129" type="line"/>
      <point x="1207.9098461228984" y="969.62252865208563" type="line"/>
    </contour>
    <contour>
      <point x="313.27938541539464" y="174.1443087107418" type="line"/>
      <point x="240.70075074702976" y="268.40268684147958" type="line"/>
      <point x="13.059185620589645" y="67.899444333525523" type="line"/>
      <point x="85.738344510972624" y="-26.476766927463512" type="line"/>
    </contour>
    <contour>
      <point x="1146.9753283884127" y="-27.500736431079449" type="line"/>
      <point x="1242.5251612632496" y="56.334570167582534" type="line"/>
      <point x="1076.4783291776314" y="268.51030008797727" type="line"/>
      <point x="981.02220905370837" y="184.68289721505937" type="line"/>
    </contour>
    <contour>
      <point x="371.89124153198418" y="969.53393542627771" type="line"/>
      <point x="465.44170565344916" y="1052.2730042927224" type="line"/>
      <point x="299.41010016602394" y="1264.5397056469126" type="line"/>
      <point x="206.10353208973055" y="1181.7261378094486" type="line"/>
    </contour>
  </outline>
</glyph>
<glyph name="yen" format="1">
  <advance width="903.0699999999999"/>
  <unicode hex="00A5"/>
  <outline>
    <contour>
      <point x="811.12108174433615" y="706.91066412853684" type="line"/>
      <point x="128.27691660283648" y="706.91491838739773" type="line"/>
      <point x="111.8852092346451" y="616.08962945235976" type="line"/>
      <point x="794.7293743761428" y="616.08537519349841" type="line"/>
    </contour>
    <contour>
      <point x="760.3547024864157" y="413.91144648564489" type="line"/>
      <point x="77.510537587524354" y="413.91570358955806" type="line"/>
      <point x="61.298966324896853" y="324.08871728057079" type="line"/>
      <point x="744.1431312237869" y="324.0844601766575" type="line"/>
    </contour>
    <contour>
      <point x="449.73328257936544" y="706.7406913551165" type="line"/>
      <point x="426.48331272132634" y="616.2128548179752" type="line"/>
      <point x="509.34938336411187" y="616.35810117414394" type="line"/>
      <point x="1016.548306110144" y="1455.6631355603067" type="line"/>
      <point x="883.98291400379605" y="1455.723214518772" type="line"/>
    </contour>
    <contour>
      <point x="307.17311338407512" y="1456.5263294652809" type="line"/>
      <point x="188.62724333984249" y="1456.0870490319585" type="line"/>
      <point x="402.90430480094216" y="615.95975975265469" type="line"/>
      <point x="479.18577080261809" y="616.01366378232308" type="line"/>
      <point x="488.91133485173816" y="698.02695388822258" type="line"/>
    </contour>
    <contour>
      <point x="529.38976007284782" y="731.92458333831917" type="line"/>
      <point x="414.95442520818551" y="731.92822248688276" type="line"/>
      <point x="287.34438642388147" y="0.0" type="line"/>
      <point x="401.77972128857596" y="0.0" type="line"/>
    </contour>
  </outline>
</glyph>
<glyph name="brokenbar" format="1">
  <advance width="431.65"/>
  <unicode hex="00A6"/>
  <outline>
    <contour>
      <point x="122.19063222395674" y="-269.92987665264252" type="line"/>
      <point x="256.74584020455603" y="501.92616850036364" type="line"/>
      <point x="137.46527553588908" y="501.92986345083364" type="line"/>
      <point x="2.9100675552723345" y="-269.92618170217395" type="line"/>
    </contour>
    <contour>
      <point x="422.02079471555169" y="1455.9273480991058" type="line"/>
      <point x="302.74023087919977" y="1455.9310462319227" type="line"/>
      <point x="170.6251456940094" y="698.07252932893493" type="line"/>
      <point x="289.90570953035939" y="698.06883119611484" type="line"/>
    </contour>
  </outline>
</glyph>
<glyph name="section" format="1">
  <advance width="1051.48"/>
  <unicode hex="00A7"/>
  <outline>
    <contour>
      <point x="504.80518142071662" y="130.31469974508241" type="line"/>
      <point x="700.6098689453587" y="134.4229292760127"/>
      <point x="892.27454575579929" y="221.12177406367778"/>
      <point x="909.54525479276163" y="438.8132621293804" type="curve" smooth="yes"/>
      <point x="927.61106576773852" y="666.5267431358393"/>
      <point x="773.84271499467218" y="756.47761007562713"/>
      <point x="584.48409228302648" y="829.88316178624211" type="curve" smooth="yes"/>
      <point x="442.20178532883517" y="885.03941023728851"/>
      <point x="323.29142483376086" y="945.35543529122174"/>
      <point x="342.96688658248718" y="1114.8349253210311" type="curve" smooth="yes"/>
      <point x="362.20906952818541" y="1280.5822604710352"/>
      <point x="497.66269854846757" y="1377.4622840139625"/>
      <point x="660.32175107928151" y="1372.9282781740117" type="curve" smooth="yes"/>
      <point x="843.00417126234254" y="1367.8361351479759"/>
      <point x="901.54677833571634" y="1203.8652373915133"/>
      <point x="885.1053727012378" y="1045.0664810904898" type="curve"/>
      <point x="994.61139843634692" y="1044.9468561434019" type="line"/>
      <point x="1017.6067018629234" y="1276.3133512600859"/>
      <point x="918.85255398168817" y="1470.5487501545135"/>
      <point x="666.80636940951638" y="1476.2720065989681" type="curve" smooth="yes"/>
      <point x="443.64900165722838" y="1481.3392796675278"/>
      <point x="250.89271154611734" y="1342.3207078318228"/>
      <point x="232.1302797323599" y="1111.9116018188338" type="curve" smooth="yes"/>
      <point x="214.29804519400594" y="892.9256377934563"/>
      <point x="350.39660763363031" y="800.26776097514539"/>
      <point x="535.47096501155602" y="728.22378991096366" type="curve" smooth="yes"/>
      <point x="673.39532224770915" y="674.53391875568252"/>
      <point x="818.31874453027308" y="606.20206210358015"/>
      <point x="796.73068993096399" y="435.76420976176792" type="curve" smooth="yes"/>
      <point x="778.0397228236551" y="288.19888481288899"/>
      <point x="652.0574868631212" y="215.72243102932109"/>
      <point x="513.75825650218019" y="209.95478256463994" type="curve"/>
    </contour>
    <contour>
      <point x="484.73041866695712" y="854.72989236235981" type="line"/>
      <point x="289.59860323910652" y="850.27738151813094"/>
      <point x="112.32982961677527" y="755.54418290632759"/>
      <point x="95.483140516950769" y="543.2123347072453" type="curve" smooth="yes"/>
      <point x="77.386262283196459" y="315.12338623565358"/>
      <point x="230.12949546956068" y="219.0137060094668"/>
      <point x="421.02180437777167" y="146.14794718566139" type="curve" smooth="yes"/>
      <point x="556.36087407672744" y="94.48748968203212"/>
      <point x="680.70127342067985" y="29.280872380155074"/>
      <point x="661.5929626962303" y="-133.31948480285493" type="curve" smooth="yes"/>
      <point x="642.35454072999187" y="-297.02701125338791"/>
      <point x="503.73327266151261" y="-395.00342501812759"/>
      <point x="343.98237194106684" y="-391.48129529153783" type="curve" smooth="yes"/>
      <point x="152.57995975770848" y="-387.26132455802878"/>
      <point x="81.373886899543237" y="-235.86911103965224"/>
      <point x="98.913638887056052" y="-62.084680617560984" type="curve"/>
      <point x="-12.367922774252904" y="-63.846546237234513" type="line"/>
      <point x="-35.818260994530092" y="-305.42230622733962"/>
      <point x="83.667607895674792" y="-490.1725697811579"/>
      <point x="337.62829192361056" y="-495.66598739729739" type="curve" smooth="yes"/>
      <point x="564.03455443630321" y="-500.56337596613082"/>
      <point x="753.09387192684414" y="-364.75125142410047"/>
      <point x="771.85939443405255" y="-130.95869004437731" type="curve" smooth="yes"/>
      <point x="789.44262144539391" y="88.104098040716536"/>
      <point x="652.40466121375403" y="180.52058677303555"/>
      <point x="466.94454674828216" y="252.67306381503201" type="curve" smooth="yes"/>
      <point x="320.70788874744369" y="309.56582018755211"/>
      <point x="187.27208728783185" y="367.46394528507949"/>
      <point x="209.07769406514149" y="545.09798389518687" type="curve" smooth="yes"/>
      <point x="227.16400146409867" y="692.43366043154151"/>
      <point x="333.14661269524083" y="769.47461228814973"/>
      <point x="476.03792506883804" y="776.19719627299355" type="curve"/>
    </contour>
  </outline>
</glyph>
